<svg width="253" height="203" viewBox="0 0 253 203" fill="none" xmlns="http://www.w3.org/2000/svg">
<mask id="mask0_78_13421" style="mask-type:alpha" maskUnits="userSpaceOnUse" x="0" y="0" width="253" height="203">
<g clip-path="url(#clip0_78_13421)">
<path d="M195.584 50.7502C195.584 50.7502 195.512 50.5299 195.404 50.4985C194.61 49.8377 193.745 49.2399 192.771 48.7995C192.771 48.7051 192.699 48.6736 192.591 48.6736C190.571 47.2892 188.371 46.188 186.063 45.2756C178.381 42.1922 170.23 40.7449 161.899 39.7066C153.099 38.6054 144.299 38.1649 135.463 38.0076C119.269 37.7559 103.076 37.6615 86.9907 39.7381C80.8596 40.5247 74.8366 41.6259 69.03 43.5137C68.9579 43.5137 68.8858 43.5137 68.8137 43.5766C64.8825 44.8351 61.1317 46.4397 57.7776 48.6736C57.7055 48.6736 57.6333 48.7365 57.6333 48.7995C57.4891 48.9253 57.3087 49.0826 57.1645 49.2085C56.7678 49.4287 56.371 49.6804 56.0104 49.9007C55.8661 49.9007 55.83 49.9951 55.83 50.0894L55.7579 50.1524C55.7579 50.1524 55.5415 50.2153 55.5055 50.3097C55.3612 50.467 55.1809 50.5929 55.0366 50.7502C53.9186 51.5682 52.8366 52.4492 51.935 53.456C51.7546 53.6133 51.6104 53.7392 51.4301 53.8965C51.3579 53.8965 51.3219 53.9594 51.2858 54.0223C51.1415 54.2426 50.9612 54.4943 50.8169 54.7145C50.312 55.0292 49.9153 55.4067 49.735 55.9416C48.3284 57.326 47.3546 58.9306 46.453 60.5981C43.5317 65.5378 41.8727 70.8551 40.2858 76.2038C38.2661 83.0313 36.8596 89.9847 35.453 96.9066C34.6235 100.934 33.9743 104.993 33.2891 109.02C32.6038 113.236 31.9907 117.452 31.3776 121.637C30.8366 125.444 30.2235 129.282 29.7907 133.089C29.2497 137.62 28.8169 142.182 28.312 146.713C27.8792 150.834 27.4104 154.987 26.9415 159.109C26.6169 162.098 26.2563 165.056 26.0038 168.045C25.9317 168.863 25.6071 169.02 24.7415 169.051C22.8301 169.146 20.9546 169.492 19.1153 169.932C11.794 171.726 6.02349 175.155 2.92186 181.479C1.2989 184.814 0.433331 188.307 0.000543731 191.862C-0.432243 195.323 1.19071 197.337 4.90546 198.658C5.87923 199.004 6.81694 199.319 7.82677 199.571C14.8235 201.27 22.0005 201.616 29.1776 201.962C37.6891 202.371 46.2005 202.497 54.712 202.591C67.4432 202.748 80.1743 202.843 92.9055 202.874C131.748 202.969 170.591 203.157 209.397 202.371C219.243 202.182 229.089 202.056 238.863 200.798C242.542 200.326 246.148 199.728 249.394 198.06C251.63 196.928 253.181 195.292 252.856 192.901C252.568 190.698 252.135 188.496 251.594 186.325C248.781 175.533 240.955 171.065 229.919 169.335C227.214 168.926 227.178 169.02 227.033 166.912C226.601 161.312 225.519 155.743 224.797 150.174C224.04 144.384 223.03 138.658 222.092 132.869C221.119 126.797 220.253 120.756 219.171 114.683C218.017 108.202 216.719 101.72 215.42 95.2705C213.761 87.0901 211.85 78.9411 209.073 70.981C207.558 66.5761 205.935 62.1713 202.869 58.3328C202.509 57.3574 201.679 56.6338 200.994 55.8157C200.994 55.7213 200.922 55.6899 200.85 55.6584C200.453 55.1865 200.201 54.5887 199.587 54.274C199.587 54.2111 199.515 54.1796 199.443 54.1482C199.155 53.8965 198.902 53.6448 198.614 53.3931C198.505 53.2987 198.433 53.2358 198.325 53.1414C197.712 52.4177 196.991 51.7885 196.161 51.285C196.017 51.1592 195.873 51.0333 195.728 50.876C195.62 50.8131 195.512 50.7502 195.404 50.6872L195.584 50.7502ZM204.709 40.7134C205.899 40.8393 206.873 40.273 207.774 39.6437C208.748 39.0144 209.722 38.3537 210.66 37.6615C215.528 34.1377 220.65 30.834 225.338 27.1214C227.286 25.5797 227.466 23.1256 225.915 21.7097C224.364 20.2939 222.164 20.3883 220.037 21.9929C218.125 23.4087 216.214 24.8246 214.266 26.1775C210.299 29.0092 206.332 31.7779 202.401 34.6096C200.85 35.7423 200.309 37.284 200.958 38.6683C201.643 40.0842 202.869 40.7764 204.745 40.682L204.709 40.7134ZM51.5743 37.7874C51.6104 36.2142 50.8891 35.2703 49.8071 34.5152C48.112 33.2881 46.3809 32.0611 44.6858 30.8655C40.3219 27.7506 35.9579 24.6358 31.5579 21.5209C30.0792 20.4827 28.5284 20.3883 26.8694 21.3007C25.3186 22.1187 25.1022 23.3458 25.2464 24.7302C25.3907 25.9258 26.4005 26.6809 27.4104 27.4045C31.3776 30.2992 35.3809 33.1938 39.3841 36.0569C41.3678 37.4727 43.3874 38.8571 45.4071 40.1786C46.7055 41.0281 48.2202 41.1225 49.6628 40.4303C50.9612 39.8325 51.5022 38.7942 51.5382 37.8188L51.5743 37.7874ZM225.627 59.434C225.879 59.434 226.312 59.434 226.709 59.3396C234.282 57.2945 241.856 55.2494 249.394 53.1414C250.512 52.8267 251.378 52.1345 251.738 51.0333C252.568 48.4534 249.574 46.0936 246.364 46.8487C244.633 47.2578 242.938 47.8241 241.243 48.2961C235.509 49.9007 229.774 51.4424 224.04 53.1099C222.201 53.6448 221.227 55.2494 221.587 56.6967C221.984 58.2699 223.607 59.4025 225.627 59.434ZM67.5514 10.0684C67.4071 10.8864 68.0563 11.7674 68.6333 12.6484C71.3382 16.7386 74.0432 20.8288 76.7841 24.856C77.5055 25.8943 78.0464 27.027 79.0563 27.908C80.4268 29.1036 82.3382 29.3867 84.0333 28.6631C85.512 28.0023 86.4497 26.4292 86.2333 24.9819C86.0891 24.1009 85.512 23.3773 85.0071 22.6536C82.9514 19.6017 80.9317 16.5183 78.8399 13.4664C77.4694 11.4528 76.4596 9.2818 74.6923 7.4884C73.4661 6.22988 71.8792 6.10402 70.2202 6.60743C68.5612 7.11084 67.5874 8.21205 67.5153 10.0998L67.5514 10.0684ZM184.079 9.69082C184.079 8.30644 182.781 6.82768 181.158 6.41866C179.319 5.94671 177.443 6.54451 176.253 8.27498C172.682 13.4979 169.184 18.7522 165.65 24.0065C165.181 24.7302 164.892 25.4538 165.217 26.3348C165.794 27.8136 166.876 28.7575 168.679 28.9777C170.627 29.1979 172.069 28.4743 173.043 27.027C176.397 22.0558 179.787 17.0846 183.142 12.082C183.646 11.3584 184.151 10.6032 184.079 9.65936V9.69082ZM25.1022 59.3711C28.312 59.4025 29.7546 58.5845 30.1874 56.9484C30.6202 55.2809 29.5743 53.5819 27.5186 52.9841C20.4497 50.9075 13.3448 48.8309 6.20382 46.8802C3.03005 46.0307 0.577593 47.9814 1.08251 50.6872C1.4071 52.3233 2.77759 53.047 4.40054 53.5189C9.44972 54.9662 14.535 56.4135 19.6202 57.8294C21.712 58.4272 23.7317 59.2767 25.1382 59.3711H25.1022ZM130.089 12.5854C130.089 9.62789 130.089 6.67036 130.089 3.71283C130.089 3.14649 130.089 2.61162 129.801 2.07675C128.971 0.629444 127.06 -0.251523 125.328 0.0631082C123.273 0.409202 121.938 1.6048 121.938 3.3982C121.902 9.47058 121.902 15.5115 121.938 21.5839C121.938 24.038 123.525 25.4538 126.014 25.4538C128.574 25.4538 130.125 23.9751 130.125 21.458C130.125 18.5005 130.125 15.543 130.125 12.5854H130.089ZM230.099 78.8782C228.945 78.8782 228.151 78.8782 227.322 78.8782C225.194 78.9097 223.643 80.1996 223.571 81.9616C223.499 83.8808 224.689 85.2337 226.925 85.3281C234.066 85.6742 241.243 85.9574 248.384 86.2091C250.512 86.272 252.171 84.8247 252.279 83.0313C252.387 81.3323 250.909 79.8536 248.745 79.7592C242.433 79.4131 236.086 79.1614 230.063 78.8782H230.099ZM11.253 86.2406C15.4005 86.1147 19.512 85.7057 23.6596 85.6113C26.112 85.5798 27.771 84.1325 27.735 82.0874C27.735 80.1367 26.076 78.7838 23.6235 78.8467C20.5579 78.9097 17.4563 79.004 14.3907 79.1614C10.7842 79.3187 7.17759 79.476 3.6071 79.7277C1.11858 79.9165 -0.143719 81.2065 0.0366093 83.1886C0.180872 84.8876 1.91202 86.2091 4.11202 86.2091C6.49235 86.2091 8.87267 86.2091 11.2891 86.2091L11.253 86.2406Z" fill="white"/>
<path d="M203.013 58.3643C206.079 62.2028 207.702 66.6076 209.217 71.0124C211.994 78.9726 213.905 87.1215 215.564 95.302C216.863 101.752 218.161 108.233 219.315 114.715C220.397 120.756 221.263 126.828 222.236 132.9C223.138 138.658 224.184 144.416 224.941 150.205C225.663 155.806 226.745 161.343 227.177 166.943C227.322 169.051 227.358 168.957 230.063 169.366C241.063 171.065 248.889 175.533 251.738 186.356C252.315 188.527 252.712 190.73 253 192.932C253.325 195.355 251.738 196.959 249.538 198.092C246.292 199.759 242.649 200.357 239.007 200.829C229.233 202.088 219.387 202.214 209.541 202.402C170.699 203.158 131.892 203 93.0495 202.906C80.3183 202.874 67.5872 202.78 54.856 202.623C46.3446 202.528 37.797 202.402 29.3216 201.993C22.1446 201.647 14.9315 201.333 7.9708 199.602C6.96097 199.35 5.9872 199.036 5.04949 198.69C1.29867 197.368 -0.288213 195.355 0.144574 191.894C0.577361 188.338 1.44293 184.846 3.06589 181.511C6.16752 175.187 11.938 171.757 19.2593 169.964C21.0987 169.523 22.9741 169.146 24.8856 169.083C25.7511 169.051 26.0757 168.894 26.1479 168.076C26.4003 165.087 26.761 162.13 27.0856 159.141C27.5183 155.019 27.9872 150.866 28.456 146.744C28.961 142.213 29.3938 137.651 29.9347 133.121C30.4036 129.282 30.9806 125.475 31.5216 121.668C32.1347 117.452 32.7479 113.236 33.4331 109.051C34.0823 104.993 34.7675 100.965 35.597 96.938C37.0036 90.0161 38.4462 83.0628 40.4298 76.2353C42.0167 70.8866 43.6757 65.5693 46.597 60.6296C47.0298 61.9825 45.8397 62.9264 45.3708 64.0276C43.2429 69.0303 41.5839 74.1273 40.2495 79.3187C38.7347 85.2967 37.3282 91.2747 36.2462 97.3156C35.2364 102.853 34.1544 108.391 33.361 113.96C32.4593 120.063 31.5577 126.199 30.6921 132.303C30.0069 137.211 29.4659 142.151 28.9249 147.09C28.2036 153.792 27.5183 160.494 26.797 167.195C26.7249 167.982 26.761 168.737 27.879 169.177C27.1577 169.398 25.9675 169.177 26.2921 169.618C26.8331 170.341 25.9315 171.757 27.5183 171.82C35.3085 172.166 43.0987 172.449 50.8528 172.764C55.1085 172.921 59.3282 172.733 63.62 173.016C69.2462 173.393 74.9085 173.236 80.5708 173.299C95.2134 173.519 109.892 173.393 124.535 173.362C124.968 173.362 125.472 173.551 125.905 173.205C125.292 172.859 124.246 173.456 124.03 172.733C123.777 171.978 125.004 172.229 125.328 171.789C125.545 171.443 125.833 171.034 125.797 170.688C125.689 170.153 125.04 170.341 124.607 170.341C121.577 170.341 118.548 170.436 115.518 170.562C111.335 170.75 107.151 170.53 102.968 170.625C96.2593 170.782 89.5872 170.404 82.9151 169.995C80.5708 169.87 78.2265 170.499 75.9544 170.247C71.5544 169.712 67.1183 169.932 62.7183 169.838C55.1085 169.649 47.4626 169.398 39.8167 169.429C38.0856 169.429 36.3544 169.272 34.6233 169.366C32.0987 169.492 30.8724 168.108 31.5577 166.125C32.1708 164.395 31.9183 162.633 32.3151 160.871C32.9282 158.323 33.0003 155.648 33.361 153.037C33.6495 150.929 33.6134 148.789 33.8298 146.681C33.9741 145.108 33.9741 143.346 34.4069 141.993C35.1282 139.665 34.7675 137.337 35.4167 135.04C36.2823 132.051 36.1741 128.842 36.679 125.79C36.8233 124.877 36.3905 123.996 36.8593 123.115C37.5446 121.857 37.2921 120.41 37.5446 119.057C37.8692 117.389 37.9052 115.627 38.1577 113.96C38.6626 110.939 39.1315 107.95 39.7446 104.93C40.2495 102.318 40.5019 99.7068 41.1872 97.0954C41.7642 94.8615 41.9806 92.5647 42.4495 90.3308C42.9905 87.4991 43.6036 84.636 44.6495 81.8672C45.3347 79.948 45.479 77.9028 46.0921 75.9521C46.7052 74.1273 47.2101 72.271 47.7511 70.4461C48.256 68.8415 48.4003 66.9537 50.2757 65.8525C49.0134 69.5022 47.6069 73.1205 46.561 76.8331C44.9019 82.7796 43.5315 88.7576 42.2692 94.7671C41.1511 99.99 40.3577 105.276 39.4921 110.53C38.8429 114.557 38.2298 118.553 37.6528 122.58C36.9675 127.52 36.3183 132.46 35.7052 137.4C35.02 142.811 34.4069 148.191 33.7938 153.603C33.2888 158.039 32.8921 162.507 32.2069 166.943C31.9905 168.359 32.4233 168.705 33.8298 168.737C37.3282 168.863 40.8265 168.894 44.3249 168.989C56.5872 169.303 68.8495 169.492 81.0757 169.649C87.279 169.744 93.4462 169.744 99.6495 169.807C102.246 170.31 104.843 169.995 107.44 169.995C112.669 169.995 117.935 169.964 123.164 169.932L123.597 169.744C123.597 169.744 123.813 169.838 123.922 169.901C124.21 169.932 124.499 170.027 124.751 170.027C136.689 170.027 148.59 170.027 160.528 170.027C160.925 170.027 161.358 170.09 161.682 169.807C162.62 169.807 163.594 169.807 164.531 169.807C164.64 169.932 164.748 169.932 164.856 169.807C165.974 169.807 167.056 169.744 168.174 169.744C185.522 169.744 202.869 169.712 220.217 169.051C220.722 168.957 221.659 169.555 221.515 168.454C220.83 163.168 220.181 157.882 219.423 152.596C218.594 146.776 217.656 140.955 216.754 135.134C215.708 128.37 214.735 121.574 213.508 114.841C212.246 107.887 210.948 100.965 209.433 94.0434C207.125 83.5977 204.6 73.2463 199.984 63.3669C200.994 63.5557 201.066 64.3737 201.318 65.003C204.853 72.9631 207.161 81.2379 209.036 89.5757C210.551 96.3088 211.886 103.073 213.184 109.869C213.869 113.456 214.41 117.074 215.023 120.661C215.708 124.657 216.394 128.653 217.007 132.649C217.656 136.707 218.269 140.766 218.846 144.825C219.351 148.38 219.856 151.936 220.361 155.491C220.938 159.55 221.443 163.608 222.02 167.667C222.092 168.171 221.695 168.989 222.633 169.02C224.004 169.114 225.41 169.335 226.781 168.863C226.853 168.863 226.889 168.58 226.853 168.454C226.636 166.251 226.492 164.017 226.168 161.815C225.554 157.347 224.797 152.911 224.148 148.443C223.39 143.441 222.777 138.406 221.984 133.404C221.046 127.457 219.964 121.511 218.918 115.564C217.945 110.121 217.079 104.678 215.961 99.2663C214.482 92.2186 213.004 85.1394 210.912 78.186C209.072 72.0507 207.233 65.9154 203.843 60.252C203.482 59.6857 202.977 59.1194 203.194 58.3957L203.013 58.3643ZM234.174 174.211C230.82 172.701 227.322 172.072 223.571 172.638C222.236 173.079 220.83 173.016 219.459 172.984C219.099 172.512 218.63 172.796 218.197 172.827C212.174 173.079 206.151 173.393 200.164 173.582C197.135 173.677 194.105 173.582 191.112 173.614C186.315 173.582 181.518 173.456 176.722 173.802C176.541 173.802 176.325 173.802 176.145 173.802C175.856 173.645 175.531 173.645 175.243 173.802C174.702 173.802 174.161 173.802 173.656 173.802C173.512 173.802 173.331 173.802 173.187 173.802C148.807 173.802 124.427 173.802 100.046 173.802C95.3577 173.614 90.6692 173.519 85.9806 173.614C80.4987 173.582 75.0167 173.551 69.5347 173.488C67.4429 173.236 65.3151 173.173 63.1872 173.268C57.561 173.11 51.9347 173.205 46.3085 172.953C42.197 172.764 38.0856 172.607 33.9741 172.418C29.3938 172.198 24.7774 171.757 20.3413 173.268C19.62 173.519 18.6823 173.488 18.6101 174.432C16.338 174.432 14.6429 175.501 13.056 176.728C8.1872 180.41 6.8167 185.444 6.05933 190.698C5.55441 194.096 7.28556 195.512 11.3249 196.173C16.0495 197.305 20.9183 197.589 25.7511 197.966C31.1249 198.375 36.5708 198.281 41.9446 198.564C47.2823 198.847 52.656 198.69 58.0298 198.816C72.8528 199.193 87.6757 199.004 102.463 199.099C129.872 199.256 157.318 199.571 184.728 198.91C192.518 198.721 200.345 198.91 208.171 198.69C216.718 198.469 225.266 198.218 233.777 197.62C236.266 197.431 238.899 197.368 241.171 196.204C244.597 196.078 246.725 194.757 246.761 192.492C246.833 187.741 245.679 183.178 242.469 179.277C240.558 176.949 238.177 174.998 234.607 174.746H234.535C234.535 174.526 234.715 174.211 234.21 174.149L234.174 174.211Z" fill="#262529"/>
<path d="M50.1333 65.7897C48.2579 66.8909 48.0776 68.7472 47.6087 70.3833C47.0678 72.2082 46.5628 74.0645 45.9497 75.8893C45.3005 77.8086 45.1924 79.8852 44.5071 81.8044C43.4973 84.5732 42.8842 87.4363 42.3071 90.268C41.8743 92.5019 41.6579 94.7987 41.0448 97.0325C40.3596 99.6125 40.1071 102.255 39.6022 104.867C39.0251 107.856 38.5202 110.876 38.0153 113.897C37.7268 115.564 37.6907 117.326 37.4022 118.994C37.1497 120.347 37.4022 121.794 36.7169 123.053C36.2481 123.934 36.6809 124.814 36.5366 125.727C36.0317 128.81 36.1399 131.988 35.2743 134.977C34.6251 137.274 34.9858 139.634 34.2645 141.93C33.8317 143.315 33.8317 145.077 33.6874 146.618C33.471 148.726 33.5071 150.866 33.2186 152.974C32.8579 155.585 32.7858 158.228 32.1727 160.808C31.7399 162.57 31.9924 164.332 31.4153 166.063C30.7301 168.045 31.9563 169.429 34.4809 169.303C36.212 169.209 37.9432 169.366 39.6743 169.366C47.3202 169.335 54.9661 169.586 62.576 169.775C66.976 169.901 71.412 169.649 75.812 170.184C78.0842 170.467 80.4284 169.807 82.7727 169.933C89.4448 170.342 96.1169 170.719 102.825 170.562C107.009 170.467 111.192 170.688 115.376 170.499C118.405 170.373 121.435 170.247 124.464 170.279C124.897 170.279 125.546 170.058 125.655 170.625C125.727 170.971 125.438 171.38 125.186 171.726C124.861 172.166 123.635 171.915 123.887 172.67C124.104 173.394 125.15 172.796 125.763 173.142C125.33 173.488 124.825 173.299 124.392 173.299C109.75 173.299 95.071 173.456 80.4284 173.236C74.7661 173.142 69.1038 173.331 63.4776 172.953C59.2219 172.67 54.9661 172.859 50.7104 172.701C42.9202 172.418 35.1301 172.104 27.376 171.757C25.7891 171.695 26.6907 170.279 26.1497 169.555C25.7891 169.083 26.9792 169.335 27.7366 169.115C26.6186 168.674 26.5825 167.919 26.6546 167.132C27.376 160.431 28.0251 153.729 28.7825 147.027C29.3235 142.088 29.8284 137.148 30.5497 132.24C31.4153 126.136 32.3169 120.001 33.2186 113.897C34.012 108.328 35.094 102.79 36.1038 97.2528C37.1858 91.2119 38.5924 85.2024 40.1071 79.2559C41.4415 74.0645 43.1005 68.936 45.2284 63.9648C45.6973 62.8636 46.9235 61.9197 46.4546 60.5668C48.2579 59.4027 49.0514 57.6722 49.7366 55.9103C50.7825 55.9103 50.9268 55.3754 50.8186 54.6832C51.3956 54.6832 51.6481 54.4944 51.2874 53.991C51.2874 53.9281 51.3596 53.8966 51.4317 53.8652C51.9366 54.0225 51.9005 53.7078 51.9366 53.4247C52.8383 52.4179 53.8842 51.5369 55.0383 50.7189C55.3268 50.7189 55.7235 50.7188 55.5071 50.2784C55.5071 50.1525 55.6153 50.121 55.7596 50.121C55.7956 50.2469 55.8678 50.2784 55.9399 50.121C55.9399 50.121 55.8678 50.0581 55.8317 50.0267C55.8317 49.9008 55.9038 49.8379 56.012 49.8379C56.8776 50.2154 57.1301 49.775 57.1661 49.1457C57.4546 49.1457 57.8153 49.1457 57.635 48.7367C57.635 48.6737 57.7071 48.6423 57.7792 48.6108C58.176 48.9254 58.5005 48.7052 58.8612 48.5164C61.6022 46.9118 64.5235 45.5904 67.553 44.4892C68.0219 44.3318 68.8874 44.3318 68.8153 43.5138C68.8514 43.4509 68.9235 43.4194 69.0317 43.4509C69.8612 43.9543 70.6186 43.5138 71.376 43.2936C80.4284 40.6821 89.7694 39.7068 99.2186 39.046C101.887 38.8573 104.592 38.9831 107.225 38.7314C112.166 38.228 117.107 38.6685 122.048 38.637C121.038 38.7943 119.992 38.7629 118.983 38.8258C118.55 38.8258 117.72 38.5426 117.72 39.2348C117.72 39.7697 118.405 40.1787 119.019 40.0214C120.858 39.518 122.048 39.9899 122.697 41.5945C117.864 41.4687 113.032 41.6889 108.199 41.8463C105.169 41.9721 102.176 42.1923 99.1465 42.2553C96.9825 42.2867 94.7104 42.2553 92.6547 42.6643C88.8678 43.4194 85.0087 43.7026 81.2219 44.3004C78.8055 44.7094 76.3891 45.1499 74.1169 45.905C71.376 46.786 68.7071 47.8557 66.0743 48.9569C65.1366 49.3345 63.694 49.3659 63.5858 50.7189C63.5137 50.8132 63.4055 50.8447 63.2973 50.8447C62.7923 50.6874 62.576 50.9076 62.5399 51.3481C62.2153 51.5684 61.8907 51.7886 61.5301 52.0088C61.0251 52.0088 60.5563 52.0403 60.5563 52.6381C60.1956 52.9213 59.7989 53.2044 59.4383 53.5191C58.8973 53.4561 58.5366 53.7078 58.3202 54.1169C57.7432 54.4315 57.2383 54.7461 57.3104 55.4069C57.2383 55.5327 57.1661 55.6271 57.094 55.7529C56.8415 55.9417 56.553 56.099 56.3005 56.2878C56.1563 56.3822 56.012 56.5081 55.9038 56.6024C54.6776 57.2317 53.5596 57.8924 53.812 59.3712C52.7301 59.5285 52.694 60.1892 52.8383 60.9129C52.8383 61.0073 52.8022 61.1017 52.694 61.1646C51.9727 61.4792 51.1792 61.7624 51.7924 62.7063C51.6481 62.9265 51.5038 63.1782 51.3596 63.3985C51.2153 63.367 51.071 63.3356 50.9268 63.3041C50.8907 63.3041 50.8546 63.2726 50.7825 63.2412C50.8186 63.2412 50.8546 63.2726 50.9268 63.3041C50.0973 63.9019 50.0973 64.6885 50.3497 65.5065C50.3137 65.6009 50.2776 65.6953 50.2415 65.7897H50.1333Z" fill="#1D2840"/>
<path d="M203.017 58.3642C202.8 59.0878 203.305 59.6542 203.666 60.2205C207.092 65.8839 208.895 72.0192 210.735 78.1545C212.827 85.1078 214.305 92.1556 215.784 99.2348C216.902 104.646 217.804 110.121 218.741 115.533C219.787 121.479 220.869 127.426 221.807 133.372C222.6 138.375 223.25 143.409 223.971 148.412C224.62 152.879 225.377 157.316 225.991 161.783C226.315 163.986 226.459 166.22 226.676 168.422C226.676 168.579 226.676 168.831 226.604 168.831C225.269 169.303 223.827 169.051 222.456 168.988C221.518 168.926 221.915 168.139 221.843 167.636C221.302 163.577 220.761 159.518 220.184 155.459C219.679 151.904 219.21 148.349 218.669 144.793C218.056 140.735 217.479 136.676 216.83 132.617C216.181 128.621 215.495 124.625 214.846 120.63C214.233 117.043 213.728 113.425 213.007 109.838C211.673 103.073 210.374 96.3087 208.859 89.5441C206.984 81.2064 204.676 72.9316 201.141 64.9714C200.853 64.3422 200.817 63.5241 199.807 63.3353C199.591 63.0522 199.338 62.8005 199.374 62.4229L199.591 62.2656C199.591 62.2656 199.41 62.2027 199.338 62.1712H199.41C199.446 61.7622 199.266 61.5419 198.797 61.5419C198.617 61.2588 198.292 61.07 198.364 60.6925C198.4 60.189 198.473 59.7171 197.643 59.6856C197.427 59.4025 197.21 59.1193 196.958 58.8047C196.958 58.3327 197.03 57.8608 196.273 57.8293C196.164 57.7349 196.056 57.6091 195.948 57.5147C195.84 57.4203 195.768 57.3259 195.659 57.2315C195.299 56.9169 194.902 56.6022 194.541 56.2561C193.315 54.4942 191.295 53.4245 189.6 52.0401C189.456 51.9457 189.312 51.8199 189.168 51.7255C189.059 51.6625 188.951 51.5996 188.879 51.5367C188.807 51.1906 188.518 51.0962 188.158 51.0962C188.158 51.0962 187.833 50.9074 187.689 50.813C187.436 50.813 187.184 50.7501 187.076 50.5299C187.076 49.8062 186.499 49.8691 185.958 49.9006C185.705 49.9006 185.453 49.9006 185.309 49.6174C184.695 48.4218 183.433 48.2331 182.171 48.0757L182.063 48.1701C181.702 47.3836 180.836 47.3521 180.079 47.1004C170.81 43.9855 161.073 42.9158 151.299 42.318C144.915 41.9404 138.532 41.4056 132.112 41.6258C130.597 41.6887 129.082 41.6258 127.568 41.6258C127.135 41.6258 126.486 41.846 126.305 41.3741C126.089 40.8392 126.774 40.7763 127.171 40.5875C127.676 40.3358 128.361 40.1156 128.433 39.6122C128.577 38.448 129.479 38.6368 130.345 38.6053C134.889 38.4166 139.433 38.8256 143.977 38.9514C147.873 39.0458 151.768 39.1402 155.627 39.6122C161.65 40.3358 167.709 40.8392 173.623 42.2236C179.358 43.608 185.056 45.0238 190.069 47.9499C190.755 48.3274 191.404 49.1769 192.522 48.7365C192.63 48.7365 192.666 48.7994 192.702 48.8623C193.063 50.0265 193.928 50.6243 195.335 50.5613C195.479 50.5613 195.551 50.6557 195.515 50.7816C195.479 50.7816 195.443 50.813 195.407 50.8445C195.407 50.8445 195.479 50.9074 195.515 50.9074C195.515 50.876 195.515 50.8445 195.551 50.7816C195.659 50.8445 195.768 50.9074 195.876 50.9703C195.659 51.4108 196.02 51.3479 196.309 51.3794C196.525 52.4491 197.246 53.0469 198.473 53.2357C198.581 53.3301 198.653 53.393 198.761 53.4874C198.761 53.9593 198.581 54.5886 199.591 54.2425C199.663 54.2425 199.699 54.3054 199.735 54.3684C199.699 55.1549 199.843 55.7842 200.997 55.7527C201.105 55.7527 201.141 55.8157 201.141 55.9101C200.817 57.2944 201.899 57.8608 203.017 58.4271V58.3642Z" fill="#56181B"/>
<path d="M204.71 40.7135C202.871 40.8079 201.608 40.0842 200.923 38.6998C200.274 37.3155 200.779 35.7738 202.366 34.6411C206.297 31.8094 210.3 29.0092 214.231 26.209C216.179 24.8246 218.09 23.4088 220.002 22.0244C222.13 20.4512 224.33 20.3254 225.881 21.7412C227.431 23.1571 227.251 25.6112 225.303 27.1529C220.615 30.8655 215.494 34.1692 210.625 37.693C209.687 38.3852 208.713 39.0459 207.74 39.6752C206.802 40.3045 205.864 40.8708 204.674 40.7449L204.71 40.7135Z" fill="#EE3935"/>
<path d="M51.5752 37.7873C51.5031 38.7627 50.9621 39.7695 49.6998 40.3988C48.2572 41.0909 46.7424 40.9966 45.4441 40.1471C43.3883 38.8256 41.3686 37.4412 39.4211 36.0254C35.4178 33.1622 31.4145 30.2676 27.4473 27.373C26.4736 26.6494 25.4277 25.9257 25.2834 24.6987C25.1031 23.3143 25.3555 22.0872 26.9064 21.2692C28.5654 20.3882 30.1162 20.4511 31.5949 21.4894C35.9949 24.6043 40.3588 27.7191 44.7227 30.834C46.4539 32.061 48.149 33.2566 49.8441 34.4837C50.926 35.2703 51.6473 36.1827 51.6113 37.7559L51.5752 37.7873Z" fill="#6299D2"/>
<path d="M225.625 59.434C223.605 59.434 221.982 58.3013 221.586 56.6967C221.225 55.2494 222.199 53.6448 224.038 53.1099C229.736 51.4738 235.507 49.9007 241.241 48.2961C242.936 47.8241 244.631 47.2578 246.363 46.8488C249.572 46.0936 252.53 48.4534 251.736 51.0333C251.376 52.1346 250.546 52.8267 249.392 53.1414C241.854 55.2494 234.245 57.263 226.707 59.3396C226.31 59.434 225.913 59.434 225.625 59.434Z" fill="#EF3A36"/>
<path d="M67.5519 10.0685C67.624 8.1807 68.5978 7.11096 70.2568 6.57608C71.8797 6.07267 73.5027 6.19853 74.7289 7.45705C76.4601 9.25045 77.506 11.4214 78.8765 13.435C80.9683 16.487 82.9879 19.5389 85.0437 22.6223C85.5486 23.3774 86.1257 24.101 86.2699 24.9505C86.5224 26.4293 85.5486 28.0025 84.0699 28.6317C82.3748 29.3554 80.4634 29.0722 79.0929 27.8766C78.083 26.9956 77.542 25.863 76.8207 24.8247C74.0437 20.7659 71.3748 16.6757 68.6699 12.617C68.0929 11.736 67.4437 10.8551 67.5879 10.037L67.5519 10.0685Z" fill="#6299D1"/>
<path d="M184.043 9.69079C184.151 10.6032 183.61 11.3583 183.142 12.1135C179.787 17.0846 176.433 22.0873 173.043 27.0584C172.069 28.5057 170.627 29.2294 168.679 29.0091C166.876 28.7889 165.794 27.845 165.217 26.3662C164.892 25.5167 165.181 24.7616 165.65 24.038C169.184 18.7836 172.646 13.5293 176.253 8.30642C177.443 6.57594 179.282 5.97814 181.158 6.45009C182.781 6.85911 184.079 8.30642 184.079 9.69079H184.043Z" fill="#EF3A36"/>
<path d="M25.1008 59.3711C23.6943 59.2767 21.6746 58.4272 19.5828 57.8294C14.4976 56.4136 9.44838 54.9663 4.36313 53.519C2.74018 53.047 1.36969 52.3234 1.0451 50.6873C0.504117 47.95 2.99264 45.9993 6.16641 46.8803C13.3074 48.831 20.4123 50.8761 27.4812 52.9841C29.5369 53.5819 30.5828 55.3124 30.15 56.9485C29.7533 58.5845 28.2746 59.4341 25.0648 59.3711H25.1008Z" fill="#6299D2"/>
<path d="M130.09 12.5853C130.09 15.5428 130.09 18.5004 130.09 21.4579C130.09 23.9749 128.539 25.4222 125.978 25.4537C123.49 25.4537 121.939 24.0379 121.903 21.5837C121.903 15.5114 121.867 9.47045 121.903 3.39807C121.903 1.60467 123.237 0.409073 125.293 0.062979C127.06 -0.251652 128.936 0.660778 129.765 2.07662C130.09 2.61149 130.054 3.14636 130.054 3.7127C130.054 6.67023 130.054 9.62777 130.054 12.5853H130.09Z" fill="#EF3A36"/>
<path d="M230.099 78.8783C236.122 79.1614 242.434 79.4131 248.781 79.7592C250.945 79.8851 252.424 81.3639 252.316 83.0314C252.172 84.8248 250.549 86.2721 248.421 86.2092C241.28 85.9575 234.103 85.6743 226.962 85.3282C224.762 85.2338 223.535 83.8809 223.608 81.9616C223.68 80.1997 225.231 78.9097 227.358 78.8783C228.188 78.8783 228.981 78.8783 230.136 78.8783H230.099Z" fill="#EE3935"/>
<path d="M11.2543 86.2406C8.87392 86.2406 6.49359 86.2406 4.0772 86.2406C1.8772 86.2406 0.146054 84.9192 0.00179191 83.2202C-0.14247 81.238 1.08376 79.948 3.57228 79.7592C7.17884 79.5075 10.7493 79.3502 14.3559 79.1929C17.4215 79.067 20.5231 78.9412 23.5887 78.8783C26.0411 78.8468 27.6641 80.1683 27.7002 82.119C27.7002 84.1326 26.0772 85.5799 23.6247 85.6428C19.4772 85.7058 15.3657 86.1148 11.2182 86.2721L11.2543 86.2406Z" fill="#6299D1"/>
<path d="M192.556 48.6735C191.438 49.114 190.789 48.2645 190.104 47.8869C185.055 44.9609 179.392 43.545 173.658 42.1606C167.743 40.7448 161.684 40.2414 155.661 39.5492C151.802 39.1087 147.907 38.9829 144.012 38.8885C139.468 38.7941 134.96 38.3536 130.379 38.5424C129.514 38.5738 128.612 38.3851 128.468 39.5492C128.396 40.0526 127.747 40.2728 127.206 40.5246C126.845 40.7133 126.16 40.8077 126.34 41.3111C126.52 41.7831 127.17 41.5628 127.602 41.5628C129.117 41.5628 130.632 41.6258 132.147 41.5628C138.566 41.3741 144.95 41.8775 151.333 42.255C161.107 42.8528 170.845 43.9226 180.114 47.0374C180.835 47.2891 181.737 47.3206 182.097 48.1072C181.124 48.1072 180.33 47.6352 179.501 47.352C173.081 45.2126 166.373 44.1743 159.592 43.4506C155.229 42.9787 150.829 42.6326 146.429 42.5697C145.31 42.5697 144.229 42.5067 143.11 42.4753C142.173 42.0662 141.163 42.2236 140.153 42.255C137.953 42.1606 135.753 42.0348 133.553 42.0348C130.127 42.0348 126.737 41.6572 123.31 42.1292C123.202 42.1292 123.094 42.0348 122.986 42.0662C115.592 42.255 108.199 42.2865 100.842 42.7584C93.6646 43.2304 86.5236 43.8911 79.4908 45.2755C74.1892 46.3452 69.0318 47.7611 64.3793 50.3725C64.0548 50.4984 63.7662 50.6242 63.4416 50.7186C63.5498 49.3657 64.9564 49.3342 65.9302 48.9567C68.5629 47.8555 71.2318 46.7857 73.9728 45.9047C76.281 45.1811 78.6613 44.7091 81.0777 44.3001C84.8646 43.6709 88.7236 43.3877 92.5105 42.664C94.5662 42.255 96.8384 42.2865 99.0023 42.255C102.032 42.1921 105.025 41.9719 108.055 41.846C112.888 41.6572 117.72 41.4684 122.553 41.5943C121.904 39.9897 120.714 39.5177 118.874 40.0211C118.297 40.1785 117.576 39.7694 117.576 39.2346C117.576 38.5424 118.37 38.857 118.838 38.8255C119.848 38.7626 120.894 38.8255 121.904 38.6368C116.963 38.6682 112.022 38.2277 107.081 38.7312C104.412 39.0143 101.743 38.8885 99.0744 39.0458C89.6252 39.675 80.2482 40.6504 71.2318 43.2933C70.5105 43.5135 69.717 43.9855 68.8875 43.4506C74.6941 41.5628 80.717 40.4616 86.8482 39.675C102.933 37.5985 119.127 37.6929 135.32 37.9446C144.156 38.0704 152.992 38.5424 161.756 39.6436C170.088 40.6819 178.238 42.1292 185.92 45.2126C188.229 46.125 190.465 47.2262 192.448 48.6106L192.556 48.6735Z" fill="#262529"/>
<path d="M68.7767 43.5765C68.8488 44.3631 67.9833 44.3631 67.5144 44.5519C64.4488 45.6531 61.5636 46.9745 58.8226 48.5792C58.462 48.7994 58.1374 48.9882 57.7406 48.6735C61.0947 46.4397 64.8456 44.835 68.7767 43.5765Z" fill="#262529"/>
<path d="M49.7365 55.9101C49.0873 57.7035 48.2578 59.4025 46.4545 60.5666C47.3201 58.8991 48.33 57.2945 49.7365 55.9101Z" fill="#262529"/>
<path d="M195.366 50.4984C193.96 50.5299 193.094 49.9635 192.733 48.7994C193.707 49.2399 194.573 49.8377 195.366 50.4984Z" fill="#262529"/>
<path d="M203.016 58.3643C201.898 57.798 200.816 57.2002 201.141 55.8473C201.79 56.6653 202.655 57.3889 203.016 58.3643Z" fill="#262529"/>
<path d="M198.47 53.2044C197.243 53.0156 196.522 52.3864 196.306 51.3481C197.135 51.8829 197.857 52.4807 198.47 53.2044Z" fill="#262529"/>
<path d="M200.994 55.6899C199.84 55.7213 199.696 55.0921 199.732 54.3055C200.345 54.6201 200.597 55.2179 200.994 55.6899Z" fill="#262529"/>
<path d="M50.78 54.683C50.8882 55.4067 50.744 55.9416 49.6981 55.9101C49.8784 55.3752 50.2751 54.9977 50.78 54.683Z" fill="#262529"/>
<path d="M57.1303 49.2085C57.0581 49.8692 56.8417 50.2783 55.9762 49.9007C56.3729 49.6805 56.7696 49.4288 57.1303 49.2085Z" fill="#262529"/>
<path d="M199.589 54.1795C198.579 54.5571 198.795 53.8964 198.759 53.4244C199.048 53.6761 199.3 53.9278 199.589 54.1795Z" fill="#262529"/>
<path d="M51.2509 54.0224C51.6115 54.5258 51.359 54.7146 50.782 54.7146C50.9263 54.4944 51.1066 54.2427 51.2509 54.0224Z" fill="#262529"/>
<path d="M55.4335 50.3413C55.6138 50.7818 55.2532 50.7503 54.9646 50.7818C55.1089 50.6245 55.2892 50.4986 55.4335 50.3413Z" fill="#262529"/>
<path d="M57.5621 48.7994C57.7424 49.2399 57.3817 49.2084 57.0932 49.2084C57.2375 49.0826 57.4178 48.9253 57.5621 48.7994Z" fill="#262529"/>
<path d="M51.9013 53.4561C51.9013 53.7078 51.9013 54.0539 51.3964 53.8966C51.5767 53.7393 51.721 53.6134 51.9013 53.4561Z" fill="#262529"/>
<path d="M196.341 51.348C196.053 51.348 195.656 51.4109 195.908 50.939C196.053 51.0648 196.197 51.1907 196.341 51.348Z" fill="#262529"/>
<path d="M55.7592 50.0894C55.7592 50.0894 55.8681 50.1528 55.8681 50.1844C55.7955 50.3111 55.7229 50.3111 55.6866 50.1844L55.7592 50.1211V50.0894Z" fill="#262529"/>
<path d="M195.584 50.7503C195.584 50.7503 195.584 50.8136 195.548 50.877C195.548 50.877 195.475 50.8136 195.439 50.8136C195.475 50.8136 195.512 50.782 195.548 50.7503H195.584Z" fill="#262529"/>
<path d="M164.423 169.744C163.485 169.744 162.511 169.744 161.574 169.744C158.544 169.744 155.515 169.712 152.485 169.712C142.928 169.744 133.37 169.807 123.813 169.838C123.705 169.775 123.597 169.744 123.488 169.681C123.488 169.272 123.488 168.863 123.488 168.454C123.488 150.834 123.488 133.215 123.416 115.596C123.416 111.568 123.344 107.541 123.308 103.545C123.344 103.482 123.38 103.388 123.416 103.325C126.987 100.871 130.521 98.3854 134.092 95.9313C139.862 91.9669 145.597 87.9397 151.656 84.3529C152.197 84.3529 152.738 84.4158 152.738 83.7236C153.531 83.7865 154.144 83.6607 154.144 82.8112C154.721 82.8741 155.226 82.8112 155.19 82.119C155.623 81.8358 156.056 81.5526 156.488 81.2695C156.633 81.1751 156.813 81.0807 156.957 80.9548C157.642 80.5458 158.292 80.1368 158.977 79.7278C159.121 79.6334 159.265 79.539 159.41 79.4446C159.41 79.4446 159.626 79.2873 159.734 79.2244C159.806 79.1615 159.915 79.13 160.023 79.13C160.167 79.0356 160.311 78.9412 160.456 78.8468C160.564 78.7839 160.672 78.6895 160.78 78.6266C160.997 78.5007 161.249 78.3749 161.465 78.249C161.574 78.1546 161.718 78.0917 161.826 77.9973C163.629 76.8961 165.397 75.7634 167.308 74.8825C167.488 74.7881 167.633 74.6937 167.813 74.5993C167.921 74.5049 168.029 74.442 168.138 74.3476C168.21 74.2847 168.318 74.2532 168.426 74.2532C168.57 74.1588 168.715 74.0644 168.895 73.97C168.895 73.97 169.111 73.8127 169.22 73.7498C169.292 73.6869 169.4 73.6554 169.508 73.6554C170.049 73.6554 170.626 73.7498 170.662 73.0261C170.662 73.0261 170.915 72.8688 171.059 72.743C171.167 72.6801 171.275 72.6171 171.347 72.5227C171.456 72.4598 171.528 72.4283 171.636 72.3969C171.78 72.3025 171.924 72.2081 172.069 72.1137H172.141H172.249C172.429 71.9879 172.61 71.8935 172.754 71.7676C172.934 71.6732 173.115 71.5788 173.295 71.5159L173.8 71.2013C173.8 71.2013 174.016 71.044 174.124 70.981C174.197 70.9181 174.305 70.9181 174.377 70.8867L174.846 70.6035L174.918 70.572H174.99C174.99 70.572 175.351 70.3518 175.495 70.2574C175.675 70.163 175.856 70.0686 176.036 69.9742C176.216 69.8798 176.36 69.7854 176.541 69.6911C176.757 69.5967 176.938 69.4708 177.154 69.3764C177.298 69.282 177.442 69.1876 177.587 69.0933H177.659L177.767 69.0618C178.308 69.0618 178.957 69.1876 178.957 68.4325C178.957 68.4325 179.21 68.2752 179.318 68.1808C179.39 68.1494 179.462 68.1179 179.534 68.1179C179.715 68.0235 179.859 67.9291 180.039 67.8347C180.039 67.8347 180.256 67.7089 180.364 67.6145C180.688 67.4886 181.013 67.3313 181.301 67.2055C181.879 67.2369 182.456 67.2999 182.492 66.5447C182.672 66.4504 182.888 66.356 183.069 66.293C183.213 66.1986 183.393 66.1043 183.538 66.0099L183.61 65.9784H183.718C184.259 65.9784 184.908 66.1043 184.944 65.3491C185.16 65.2548 185.341 65.1604 185.557 65.066C185.701 64.9716 185.846 64.8772 185.99 64.8143C186.062 64.7828 186.134 64.7513 186.206 64.7828C186.387 64.6884 186.531 64.594 186.711 64.4996C186.747 64.4682 186.82 64.4367 186.892 64.4367C188.226 64.2479 188.839 64.6884 189.344 65.884C191.364 70.8237 192.482 75.9208 193.383 81.0807C194.177 85.5799 194.682 90.1106 195.944 94.5155C196.81 97.5359 197.206 100.588 197.531 103.64C197.928 107.415 198.324 111.191 198.793 114.966C199.515 121.039 200.164 127.143 200.705 133.247C201.174 138.438 201.679 143.598 201.895 148.821C201.967 150.362 202.003 151.967 202.256 153.509C202.977 158.228 203.338 163.011 203.121 167.762C203.085 168.989 203.41 169.052 204.528 169.052C209.072 169.02 213.616 168.517 218.161 168.737C218.774 168.737 219.459 168.548 220 168.989C202.652 169.618 185.305 169.681 167.957 169.681C166.839 169.681 165.757 169.712 164.639 169.744C164.531 169.681 164.423 169.681 164.315 169.744H164.423Z" fill="#EE3935"/>
<path d="M241.133 196.298C238.861 197.463 236.229 197.557 233.74 197.714C225.229 198.312 216.681 198.564 208.133 198.784C200.307 199.004 192.517 198.784 184.691 199.004C157.281 199.665 129.835 199.382 102.425 199.193C87.6023 199.099 72.7794 199.287 57.9925 198.91C52.6187 198.784 47.281 198.941 41.9072 198.658C36.4974 198.344 31.0876 198.469 25.7138 198.06C20.881 197.683 16.0122 197.4 11.2876 196.267C11.2154 193.184 11.5761 190.1 12.4056 187.111C13.5236 183.147 15.1826 179.371 18.5728 176.414C18.7171 176.288 18.8253 176.162 18.9695 176.036C18.9695 175.942 18.9695 175.847 19.0417 175.753C22.8285 176.665 26.7236 176.791 30.5826 176.949C36.9302 177.2 43.2777 177.043 49.5892 177.672C53.5925 178.081 57.5597 177.546 61.563 177.798C69.1007 178.302 76.7105 177.924 84.2843 178.113C91.3171 178.302 98.3499 178.27 105.383 178.27C124.389 178.27 143.432 177.861 162.438 178.459C163.953 178.522 165.504 177.987 166.947 178.27C170.373 178.931 173.799 178.396 177.153 178.333C180.832 178.239 184.583 178.207 188.297 177.987C194.104 177.672 199.947 177.893 205.753 177.578C208.35 177.452 210.983 177.421 213.579 177.358C220.432 177.137 227.284 176.854 234.065 176.036C236.012 177.546 237.202 179.56 238.212 181.574C240.484 186.262 241.422 191.17 241.097 196.267L241.133 196.298ZM226.743 179.466C226.743 178.931 226.347 178.899 225.842 178.836C220.937 178.144 216.032 178.302 211.127 178.585C210.622 178.585 210.406 178.836 210.117 179.277C209.324 179.56 208.314 179.56 207.845 180.378C207.268 180.41 207.268 180.661 207.412 181.102C207.592 181.668 207.917 181.983 208.602 181.888C208.602 182.612 209.36 182.612 209.865 182.706C214.95 183.682 220.035 183.682 225.156 182.927C225.661 182.864 226.419 182.99 226.491 182.203C226.852 181.983 227.176 181.794 227.537 181.574C228.871 180.756 228.835 180.378 227.429 179.78C227.356 179.78 227.248 179.78 227.176 179.717C227.068 179.623 226.924 179.529 226.815 179.466H226.743Z" fill="#3B3B3C"/>
<path d="M220.112 168.989C219.571 168.548 218.885 168.768 218.272 168.737C213.728 168.517 209.184 169.02 204.639 169.051C203.521 169.051 203.161 168.989 203.233 167.762C203.413 163.011 203.089 158.228 202.367 153.509C202.115 151.967 202.079 150.362 202.007 148.821C201.79 143.629 201.321 138.438 200.816 133.246C200.239 127.143 199.626 121.07 198.905 114.966C198.436 111.191 198.039 107.415 197.643 103.64C197.318 100.588 196.921 97.5044 196.056 94.5154C194.794 90.1106 194.325 85.5484 193.495 81.0807C192.557 75.9207 191.476 70.8237 189.456 65.884C188.987 64.7198 188.374 64.2479 187.003 64.4367C187.436 64.1535 187.833 63.8703 188.266 63.5872C188.59 63.5872 189.059 63.6186 189.167 63.304C189.672 62.0455 190.43 60.8813 190.718 59.497C191.367 56.2877 191.403 56.2563 194.541 56.2563C194.577 56.8855 194.974 57.2631 195.659 57.4204C195.659 57.4204 195.876 57.6721 196.02 57.7665C196.02 58.0182 196.056 58.3014 196.453 58.3328H196.416C196.525 58.4587 196.633 58.5845 196.741 58.7104C196.849 59.3711 196.994 60.0633 197.967 60.1891C198.112 60.3465 198.292 60.5038 198.436 60.6611C198.364 61.0387 198.689 61.2274 198.869 61.5106C199.013 61.7623 199.049 62.1084 199.482 62.1399H199.41C199.41 62.1713 199.374 62.2028 199.374 62.2343C199.374 62.2972 199.446 62.3601 199.446 62.423C199.446 62.8006 199.662 63.0523 199.879 63.3355C204.495 73.2149 207.056 83.5662 209.328 94.012C210.843 100.934 212.141 107.856 213.403 114.809C214.63 121.574 215.603 128.338 216.649 135.103C217.551 140.923 218.489 146.744 219.318 152.565C220.076 157.851 220.725 163.136 221.41 168.422C221.554 169.492 220.616 168.926 220.112 169.02V168.989Z" fill="#ED2D2A"/>
<path d="M123.345 103.577C123.345 107.604 123.453 111.631 123.453 115.627C123.453 133.247 123.489 150.866 123.525 168.485C123.525 168.894 123.525 169.303 123.525 169.712C123.381 169.775 123.236 169.838 123.092 169.901C117.791 169.461 112.453 169.649 107.151 169.775C104.627 169.775 102.102 169.775 99.5774 169.775C93.3742 169.744 87.2069 169.712 81.0037 169.618C68.7414 169.429 56.4791 169.272 44.2529 168.957C40.7545 168.863 37.2561 168.831 33.7578 168.705C32.3512 168.643 31.9184 168.296 32.1348 166.912C32.8201 162.476 33.1807 158.039 33.7217 153.572C34.3348 148.16 34.984 142.78 35.6332 137.368C36.2463 132.428 36.8955 127.489 37.5807 122.549C38.1578 118.522 38.7348 114.495 39.4201 110.499C40.2856 105.244 41.043 99.9586 42.1971 94.7357C43.4955 88.7262 44.866 82.7482 46.4889 76.8017C47.5348 73.0891 48.9414 69.4708 50.2037 65.8211C50.2397 65.7267 50.2758 65.6323 50.3119 65.5379C50.7807 64.8772 51.1053 64.185 51.3217 63.4299C51.466 63.2096 51.6102 62.9579 51.7545 62.7377C52.043 62.2343 52.3315 61.7309 52.6561 61.196C52.7283 61.1331 52.8004 61.0387 52.8004 60.9443C52.9447 60.787 53.0889 60.6611 53.2332 60.5038C53.5938 61.1016 53.161 61.605 52.8725 62.077C51.1414 64.7828 50.4922 67.8662 49.0856 70.6664C48.0397 72.7744 48.0037 75.1656 47.066 77.3366C46.0561 79.6648 45.8037 82.1504 45.3709 84.6046C44.9742 86.9328 44.2529 89.2296 43.6758 91.5264C43.1348 93.5715 43.243 95.6166 42.6299 97.6303C41.584 101.06 41.1512 104.615 40.4299 108.108C39.7447 111.443 39.925 114.872 38.7709 118.144C38.6266 118.585 38.5184 119.088 39.0594 119.371C39.6004 119.654 39.8889 119.183 40.2135 118.931C43.243 116.697 45.9479 114.148 48.7971 111.757C50.6725 110.184 52.6201 108.705 54.7119 107.038C54.0266 113.708 53.2332 120.126 52.7283 126.576C52.2594 133.058 51.9709 139.539 51.7906 146.021C51.7184 149.104 51.502 162.759 52.2955 165.307V163.514C52.8365 164.08 52.4758 164.773 52.6201 165.402C52.043 166.377 51.466 167.353 50.925 168.296C53.5938 168.768 56.2988 168.8 59.0397 168.705C64.9184 168.517 70.761 169.146 76.6758 168.8C84.6824 168.359 92.725 169.146 100.768 169.24C106.286 169.303 111.84 169.052 117.358 169.052C118.728 169.052 120.099 169.146 121.505 169.114C122.732 169.052 123.092 168.768 123.092 167.699C123.056 146.398 123.056 125.129 123.056 103.829C123.164 103.734 123.273 103.671 123.381 103.577H123.345ZM42.8463 168.202C42.8463 168.202 42.8463 168.296 42.8463 168.359H49.0135C49.0135 168.359 49.0135 168.265 49.0135 168.202H42.8102H42.8463Z" fill="#72A8DB"/>
<path d="M176.652 173.834C181.448 173.519 186.245 173.614 191.042 173.645C191.258 173.96 191.619 173.928 191.98 173.928C199.265 174.054 206.514 173.802 213.763 173.488C215.639 173.393 217.622 173.677 219.425 172.984C220.832 173.016 222.203 173.079 223.537 172.638C223.717 172.733 223.97 172.921 224.114 172.89C226.711 172.449 229.163 173.142 231.652 173.677C232.481 173.834 233.203 174.369 234.14 174.211C234.032 174.495 234.068 174.746 234.465 174.841H234.537C234.465 175.061 234.429 175.344 234.104 175.47C233.996 175.47 233.852 175.47 233.743 175.438C233.383 174.998 232.878 175.187 232.445 175.25C227.865 175.973 223.212 176.131 218.56 176.351C211.924 176.634 205.288 176.76 198.652 176.949C192.016 177.169 185.38 177.137 178.707 177.232C167.166 177.421 155.589 177.295 144.048 177.326C143.471 177.326 142.57 176.917 142.281 177.83C136.186 177.956 130.091 177.956 123.996 177.83C123.707 176.917 122.842 177.326 122.229 177.326C108.271 177.137 94.3501 177.421 80.3927 177.075C69.5009 176.791 58.6091 176.697 47.7173 176.445C40.6124 176.288 33.5074 175.879 26.4025 175.722C24.491 175.69 22.5796 175.344 20.7042 175.092C20.2714 175.029 19.6943 174.935 19.6222 174.463C19.514 173.865 20.1992 173.897 20.5599 173.771C23.9501 172.796 27.5206 172.544 31.0189 172.796C33.5796 172.984 36.1402 173.11 38.6648 173.205C46.2747 173.456 53.9206 173.582 61.5304 173.865C66.9402 174.086 72.3861 174.086 77.796 174.117C110.147 174.274 142.498 174.211 174.812 174.211C175.389 174.211 176.111 174.526 176.507 173.834H176.652Z" fill="#8B8C8F"/>
<path d="M234.141 175.47C234.465 175.344 234.465 175.061 234.573 174.809C238.144 175.061 240.56 177.043 242.436 179.34C245.646 183.241 246.8 187.804 246.728 192.554C246.728 194.82 244.564 196.141 241.137 196.267C241.462 191.17 240.56 186.262 238.252 181.605C237.278 179.56 236.052 177.578 234.105 176.068C234.105 175.879 234.105 175.659 234.105 175.47H234.141Z" fill="#5C5D5C"/>
<path d="M18.5386 176.382C15.1484 179.371 13.4894 183.147 12.3714 187.08C11.5058 190.069 11.1451 193.152 11.2533 196.235C7.21398 195.575 5.48283 194.159 5.98775 190.761C6.74513 185.507 8.11562 180.472 12.9845 176.791C14.5714 175.596 16.2664 174.494 18.5386 174.494C18.6107 174.557 18.6468 174.652 18.6107 174.746C18.7189 174.872 18.8632 174.998 18.9714 175.124C18.9714 175.344 18.9714 175.533 19.0074 175.753C18.9714 175.847 18.9353 175.942 18.9353 176.036C18.791 176.162 18.6828 176.288 18.5386 176.414V176.382Z" fill="#5C5D5C"/>
<path d="M18.6114 174.778C18.6114 174.778 18.6114 174.589 18.5392 174.526C18.6114 173.582 19.5491 173.614 20.2704 173.362C24.7064 171.852 29.3228 172.292 33.9032 172.512C38.0146 172.701 42.1261 172.858 46.2376 173.047C51.8638 173.33 57.49 173.205 63.1163 173.362C65.2081 173.834 67.336 173.582 69.4638 173.582C74.9458 173.614 80.4278 173.645 85.9097 173.708C90.5982 174.148 95.2868 173.928 99.9753 173.897C124.356 173.897 148.736 173.897 173.116 173.897C173.261 173.897 173.441 173.897 173.585 173.897C174.126 173.897 174.667 173.897 175.172 173.897C175.461 173.897 175.749 173.897 176.074 173.897C176.254 173.897 176.47 173.897 176.651 173.897C176.254 174.589 175.533 174.274 174.956 174.274C142.605 174.274 110.254 174.337 77.9392 174.18C72.5294 174.18 67.0835 174.148 61.6737 173.928C54.0638 173.645 46.4179 173.519 38.8081 173.267C36.2835 173.173 33.6868 173.047 31.1622 172.858C27.6638 172.607 24.0933 172.858 20.7032 173.834C20.3064 173.96 19.6573 173.928 19.7655 174.526C19.8376 174.998 20.4146 175.124 20.8474 175.155C22.7589 175.407 24.6343 175.722 26.5458 175.785C33.6507 175.942 40.7556 176.351 47.8605 176.508C58.7523 176.76 69.6441 176.854 80.5359 177.137C94.4933 177.484 108.415 177.2 122.372 177.389C122.985 177.389 123.851 176.98 124.139 177.893C117.683 177.83 111.192 177.767 104.736 177.735C87.3163 177.641 69.8966 177.609 52.4769 177.106C44.831 176.886 37.2212 176.697 29.5753 176.382C26.0409 176.225 22.4704 176.099 19.0441 175.187C18.936 175.061 18.7917 174.935 18.6835 174.809L18.6114 174.778Z" fill="#B8B9BC"/>
<path d="M123.813 169.838C133.37 169.807 142.928 169.744 152.485 169.712C155.514 169.712 158.544 169.712 161.573 169.744C161.249 169.995 160.816 169.964 160.419 169.964C148.482 169.964 136.58 169.964 124.642 169.964C124.354 169.964 124.065 169.87 123.813 169.838Z" fill="#56181B"/>
<path d="M219.425 173.016C217.585 173.708 215.638 173.425 213.763 173.519C206.513 173.834 199.264 174.086 191.979 173.96C191.618 173.96 191.258 173.96 191.041 173.677C194.071 173.677 197.1 173.739 200.094 173.645C206.117 173.425 212.14 173.142 218.126 172.89C218.559 172.89 219.028 172.607 219.389 173.047L219.425 173.016Z" fill="#B8B9BC"/>
<path d="M234.175 174.211C233.237 174.4 232.516 173.865 231.686 173.676C229.234 173.173 226.781 172.481 224.149 172.89C223.968 172.89 223.752 172.733 223.572 172.638C227.322 172.072 230.821 172.67 234.175 174.211Z" fill="#B8B9BC"/>
<path d="M107.115 169.775C112.453 169.649 117.755 169.461 123.056 169.901C117.827 169.901 112.561 169.933 107.332 169.964C107.26 169.901 107.187 169.838 107.115 169.775Z" fill="#5A8CC9"/>
<path d="M99.9367 173.897C95.2482 173.897 90.5596 174.149 85.8711 173.708C90.5596 173.614 95.2482 173.708 99.9367 173.897Z" fill="#8B8C8F"/>
<path d="M107.118 169.775C107.118 169.775 107.262 169.901 107.334 169.964C104.738 169.964 102.141 170.247 99.5443 169.775C102.069 169.775 104.594 169.775 107.118 169.775Z" fill="#1D2840"/>
<path d="M69.4623 173.614C67.3345 173.614 65.2066 173.865 63.1148 173.393C65.2427 173.299 67.3705 173.362 69.4623 173.614Z" fill="#8B8C8F"/>
<path d="M176.073 173.834C175.784 173.834 175.496 173.834 175.171 173.834C175.46 173.677 175.748 173.677 176.073 173.834Z" fill="#8B8C8F"/>
<path d="M234.463 174.841C234.102 174.746 234.03 174.495 234.138 174.211C234.607 174.274 234.463 174.589 234.463 174.841Z" fill="#B8B9BC"/>
<path d="M164.423 169.744C164.423 169.744 164.639 169.681 164.747 169.744C164.639 169.901 164.531 169.901 164.423 169.744Z" fill="#56181B"/>
<path d="M53.7015 59.3711C53.449 57.9238 54.5671 57.2316 55.7933 56.6024C55.7933 57.2946 54.9277 57.6407 54.8195 58.3014C54.4589 58.3958 54.3507 58.679 54.2786 58.9621C54.2786 58.9621 53.9179 59.2453 53.7376 59.4026H53.7015V59.3711Z" fill="#262529"/>
<path d="M63.4757 50.7502C63.8002 50.6244 64.0888 50.4985 64.4134 50.4042L64.5216 50.4985C63.6199 51.5683 62.3576 52.1346 61.0232 52.638L60.9511 52.5751C61.1314 52.4178 61.2757 52.229 61.456 52.0717C61.7806 51.8515 62.1052 51.6312 62.4658 51.411C62.7183 51.2537 62.9707 51.0649 63.2232 50.9076C63.3314 50.9076 63.4396 50.8446 63.5117 50.7817L63.4757 50.7502Z" fill="#72A8DB"/>
<path d="M54.8198 58.3013C54.928 57.6406 55.7936 57.3259 55.7936 56.6023C55.9379 56.5079 56.0821 56.382 56.1903 56.2876C56.4428 56.0989 56.7313 55.9415 56.9838 55.7528C57.0559 55.8472 57.128 55.9101 57.2002 55.973C56.551 56.854 56.2264 57.9866 54.8559 58.2698L54.8198 58.3013Z" fill="#72A8DB"/>
<path d="M51.2506 63.3984C51.0342 64.1535 50.7457 64.8457 50.2408 65.5064C49.9883 64.6884 49.9883 63.9018 50.8178 63.304C50.8178 63.304 51.1063 63.3669 51.2506 63.3984Z" fill="#262529"/>
<path d="M59.3265 53.5503C59.6872 53.2671 60.0839 52.984 60.4446 52.6693C60.6249 52.6379 60.7692 52.575 60.9495 52.5435L61.0216 52.6064C60.661 53.4874 59.9757 54.0537 58.8577 54.0852C59.0019 53.8964 59.1823 53.7076 59.3265 53.5188V53.5503Z" fill="#72A8DB"/>
<path d="M53.1622 60.4722C53.1622 60.4722 52.8737 60.7554 52.7294 60.9127C52.5851 60.1576 52.6212 59.5283 53.7032 59.371H53.7392C53.5589 59.7171 53.3786 60.0632 53.2343 60.4093L53.1622 60.4722Z" fill="#262529"/>
<path d="M52.5842 61.1644C52.2957 61.6678 52.0071 62.1712 51.6826 62.7061C51.0334 61.7937 51.8629 61.5105 52.5842 61.1644Z" fill="#262529"/>
<path d="M56.9505 55.7527C56.9505 55.7527 57.0947 55.5325 57.1668 55.4066C57.4914 55.1549 57.8521 54.9032 58.1767 54.6515C58.2488 55.3437 57.7078 55.6583 57.1668 55.9729C57.0947 55.91 57.0226 55.8156 56.9505 55.7527Z" fill="#72A8DB"/>
<path d="M58.2103 54.6831C57.8858 54.9348 57.5251 55.1865 57.2005 55.4382C57.1644 54.7775 57.6694 54.4314 58.2103 54.1482C58.2825 54.2112 58.3907 54.2741 58.4628 54.3685C58.3907 54.4943 58.2825 54.5887 58.2103 54.7146V54.6831Z" fill="#262529"/>
<path d="M60.9513 52.5436C60.9513 52.5436 60.6267 52.638 60.4464 52.6695C60.4464 52.0717 60.9152 52.0087 61.4201 52.0402C61.2398 52.1975 61.0955 52.3863 60.9152 52.5436H60.9513Z" fill="#262529"/>
<path d="M59.3303 53.5503C59.1861 53.7391 59.0057 53.9279 58.8615 54.1167C58.7172 54.1796 58.573 54.274 58.4648 54.3369C58.3926 54.274 58.2844 54.211 58.2123 54.1167C58.4287 53.7076 58.7893 53.4874 59.3303 53.5188V53.5503Z" fill="#262529"/>
<path d="M63.1875 50.8761C62.935 51.0334 62.6826 51.2222 62.4301 51.3795C62.4301 50.939 62.6465 50.7502 63.1875 50.8761Z" fill="#262529"/>
<path d="M50.8569 63.3045C50.8569 63.3045 50.7843 63.2728 50.7117 63.2411C50.748 63.2411 50.7843 63.2728 50.8569 63.3045Z" fill="#262529"/>
<path d="M56.1536 56.2876C56.1536 56.2876 55.8651 56.5078 55.7569 56.6022C55.9012 56.5078 56.0454 56.382 56.1536 56.2876Z" fill="#262529"/>
<path d="M194.537 56.2563C191.399 56.2563 191.363 56.2878 190.714 59.497C190.425 60.8814 189.668 62.0455 189.163 63.3041C189.019 63.6502 188.586 63.5558 188.262 63.5872C188.117 63.3355 187.973 63.0838 187.865 62.8321C187.865 62.1085 187.937 61.3533 186.783 61.1646C186.783 61.1646 186.566 60.9443 186.458 60.8499C186.422 60.787 186.386 60.7241 186.422 60.6612C186.314 60.5038 186.206 60.378 186.098 60.2207C186.062 60.1892 186.025 60.1263 186.062 60.0634C186.062 59.5914 186.206 59.0251 185.34 59.0251C185.34 59.0251 185.304 58.7734 185.268 58.616C185.196 58.7104 185.124 58.8363 185.052 58.9307C184.835 58.9307 184.619 58.9936 184.439 58.9936C184.835 58.0183 184.006 57.3575 183.609 56.5709C183.97 56.0675 183.393 56.3507 183.285 56.2563C182.347 55.5641 181.409 54.8719 180.471 54.1483C180.471 53.4561 179.93 53.4876 179.389 53.519C179.389 53.11 179.317 52.6695 178.704 53.2359C177.911 52.8898 177.081 52.5751 176.288 52.229C176.18 51.4739 175.35 51.5369 174.809 51.3795C172.898 50.7817 170.842 50.6559 168.894 50.2154C164.675 49.24 160.419 48.4535 156.163 47.7927C154.721 47.5725 152.917 47.1635 151.727 48.6108C151.655 48.6422 151.583 48.6737 151.511 48.6422L151.042 48.8939C151.042 48.8939 150.862 48.9569 150.753 48.9569C150.609 49.0513 150.465 49.1142 150.321 49.2086C149.996 49.3344 149.671 49.4603 149.347 49.5861C148.157 49.5547 147.039 49.6805 146.462 50.7817C146.389 50.8132 146.317 50.8447 146.245 50.8132C146.101 50.9076 145.921 50.9705 145.776 51.0649C145.704 51.0964 145.632 51.1278 145.524 51.1278C145.38 51.2222 145.235 51.2851 145.091 51.3795C144.73 51.5054 144.406 51.6312 144.045 51.7571C143.576 51.2537 143.396 51.5054 143.324 51.9773C143.216 51.9773 143.107 52.0088 142.999 52.0403C142.891 52.1347 142.783 52.1976 142.639 52.292C142.53 52.292 142.422 52.3234 142.278 52.3549C140.042 52.701 138.203 53.8651 136.255 54.7461C136.255 54.7461 136.291 54.9663 136.327 55.0922C135.281 55.6585 134.307 56.3822 132.973 56.3192C132.468 56.3192 132.107 56.4136 132.107 56.9485C132.107 56.9485 131.855 57.1058 131.747 57.2002C131.675 57.2317 131.603 57.2631 131.494 57.2631C131.35 57.3261 131.206 57.4205 131.026 57.4834C130.917 57.4834 130.809 57.5148 130.665 57.5463C129.871 57.5778 129.042 57.5463 128.898 58.4902C128.681 58.5846 128.465 58.679 128.248 58.7734C128.104 58.8678 127.996 58.9307 127.852 59.0251C127.78 59.0565 127.707 59.088 127.599 59.088C126.77 59.088 125.94 59.0565 125.724 60.0004C125.724 60.0004 125.471 60.1577 125.363 60.2207C125.291 60.2521 125.183 60.2836 125.075 60.2836C123.812 60.3465 123.921 59.5599 123.921 58.8363C123.921 54.2112 123.993 49.5547 123.921 44.9296C123.921 43.3879 124.101 42.5384 126.265 42.5699C130.629 42.6328 134.993 42.3496 139.357 42.7272C141.665 42.9474 144.045 43.2306 146.353 42.5699C150.753 42.6328 155.153 42.9789 159.517 43.4508C166.298 44.1745 173.006 45.2442 179.425 47.3523C180.291 47.6354 181.048 48.1074 182.022 48.1074L182.13 48.013C183.032 48.7681 184.186 49.1142 185.268 49.5547C185.376 49.8064 185.629 49.8378 185.917 49.8378C186.278 50.0581 186.675 50.2469 187.035 50.4671C187.144 50.7188 187.36 50.7503 187.648 50.7503C187.793 50.8447 187.973 50.9391 188.117 51.0649C188.37 51.2222 188.586 51.3481 188.839 51.5054C188.947 51.5683 189.055 51.6312 189.127 51.6942C189.271 51.7886 189.416 51.9144 189.56 52.0088C191.219 53.3932 193.239 54.4629 194.501 56.2563H194.537Z" fill="#EE3935"/>
<path d="M185.414 49.586C184.332 49.114 183.142 48.7994 182.277 48.0443C183.539 48.2016 184.837 48.3904 185.414 49.586Z" fill="#262529"/>
<path d="M197.894 60.1577C196.92 60.0319 196.812 59.3397 196.668 58.679C196.776 58.679 196.884 58.7104 196.956 58.7734C197.173 59.0565 197.389 59.3397 197.641 59.6543C197.714 59.8116 197.822 60.0004 197.894 60.1577Z" fill="#EE3935"/>
<path d="M195.659 57.4204C194.974 57.2631 194.577 56.8855 194.541 56.2563C194.902 56.5709 195.299 56.8855 195.659 57.2002C195.659 57.2631 195.659 57.326 195.659 57.4204Z" fill="#EE3935"/>
<path d="M197.894 60.1576C197.822 59.9688 197.714 59.8115 197.642 59.6542C198.472 59.6542 198.399 60.1576 198.363 60.661C198.219 60.5037 198.039 60.3464 197.894 60.189V60.1576Z" fill="#262529"/>
<path d="M187.145 50.4984C186.784 50.2782 186.388 50.0894 186.027 49.8692C186.604 49.8062 187.145 49.7748 187.145 50.4984Z" fill="#262529"/>
<path d="M196.955 58.7733C196.955 58.7733 196.774 58.6789 196.666 58.6789C196.558 58.5531 196.45 58.4272 196.342 58.3014H196.378C196.342 58.1126 196.269 57.9553 196.233 57.7665C196.991 57.7665 196.955 58.2384 196.919 58.7104L196.955 58.7733Z" fill="#262529"/>
<path d="M199.405 62.1085C198.972 62.077 198.972 61.6995 198.792 61.4792C199.261 61.4792 199.441 61.7309 199.405 62.1085Z" fill="#262529"/>
<path d="M188.914 51.5369C188.698 51.3796 188.445 51.2538 188.193 51.0964C188.553 51.0964 188.842 51.1908 188.914 51.5369Z" fill="#262529"/>
<path d="M188.227 51.0962C188.227 51.0962 187.903 50.9075 187.758 50.7816C187.903 50.876 188.083 50.9704 188.227 51.0962Z" fill="#262529"/>
<path d="M199.373 62.3915C199.373 62.3915 199.301 62.2657 199.301 62.2027C199.301 62.2027 199.301 62.1398 199.337 62.1083C199.409 62.1398 199.517 62.1713 199.59 62.2027L199.373 62.36V62.3915Z" fill="#262529"/>
<path d="M189.633 52.0401C189.633 52.0401 189.344 51.8199 189.2 51.7255C189.344 51.8199 189.489 51.9458 189.633 52.0401Z" fill="#262529"/>
<path d="M195.944 57.4832C195.944 57.4832 196.16 57.7035 196.268 57.7979C196.16 57.7979 196.052 57.7664 195.98 57.735C195.98 57.6406 195.944 57.5462 195.944 57.4518V57.4832Z" fill="#262529"/>
<path d="M195.657 57.4204C195.657 57.4204 195.657 57.2945 195.657 57.2001C195.765 57.2945 195.837 57.3889 195.946 57.4833C195.837 57.4519 195.729 57.4204 195.621 57.4204H195.657Z" fill="#262529"/>
<path d="M64.4148 50.4041C69.0672 47.7926 74.2246 46.3768 79.5262 45.307C86.559 43.8912 93.7 43.2305 100.877 42.79C108.27 42.3181 115.628 42.2551 123.021 42.0978C123.13 42.0978 123.238 42.1607 123.346 42.1607L123.418 42.2866C123.418 43.0732 123.418 43.8597 123.418 44.6778C123.418 44.8036 123.418 44.898 123.418 45.0239C123.418 50.4355 123.418 55.8157 123.454 61.2274C123.418 61.3218 123.382 61.4162 123.346 61.5105C122.769 61.7308 122.228 61.9825 121.651 62.2027C122.084 61.2274 123.021 60.5352 123.021 59.3081C122.949 53.9594 123.021 48.5792 122.733 43.2305C122.697 42.4124 122.228 42.5698 121.759 42.6012C119.487 42.6327 117.215 42.7585 114.979 42.8215C110.975 42.9158 106.936 43.0102 102.933 43.2305C99.3984 43.4193 95.8639 43.5136 92.3656 44.0485C89.7328 44.4575 87.0639 44.7092 84.4311 45.0239C84.0344 45.0239 83.6016 45.0239 83.2049 45.1183C81.2213 45.5902 79.2016 45.9363 77.218 46.5341C74.9459 47.1948 72.7098 47.887 70.4377 48.5163C68.382 49.0826 66.723 50.4355 64.4869 50.4985L64.3787 50.4041H64.4148Z" fill="#72A8DB"/>
<path d="M123.453 44.9925C123.453 44.9925 123.453 44.7723 123.453 44.6464C123.849 43.8599 123.885 43.0418 123.453 42.2553L123.38 42.1294C126.771 41.6575 130.197 42.035 133.623 42.035C135.823 42.035 138.023 42.1923 140.223 42.2553C141.161 42.7901 142.207 42.4126 143.18 42.4755C144.298 42.4755 145.38 42.5384 146.498 42.5699C144.19 43.2306 141.81 42.9474 139.502 42.7272C135.138 42.3182 130.774 42.6328 126.41 42.5699C124.246 42.5384 124.03 43.3879 124.066 44.9296C124.174 49.5547 124.102 54.2112 124.066 58.8363C124.066 59.56 123.957 60.3465 125.22 60.2836C124.715 60.5668 124.246 60.85 123.741 61.1017C123.741 56.2563 123.741 51.4425 123.741 46.5972C123.741 46.0623 123.957 45.4645 123.489 44.9925H123.453Z" fill="#ED2D2A"/>
<path d="M143.182 42.4754C142.208 42.4125 141.162 42.7901 140.225 42.2552C141.235 42.2552 142.244 42.0664 143.182 42.4754Z" fill="#EE3935"/>
<path d="M121.686 62.1399C122.263 61.9197 122.804 61.6679 123.381 61.4477C123.381 62.1084 123.381 62.7692 123.381 63.4299C123.381 76.7388 123.381 90.0477 123.417 103.357C123.381 103.419 123.345 103.514 123.309 103.577C123.2 103.671 123.092 103.734 122.984 103.829C117.682 107.352 112.85 111.348 107.945 115.281C107.584 115.501 107.115 115.69 107.223 116.162C106.935 116.131 106.827 116.225 106.863 116.477C106.574 116.445 106.466 116.54 106.502 116.791C106.141 116.665 105.925 116.886 105.745 117.106C105.42 117.389 105.059 117.672 104.735 117.955L104.374 118.333C104.266 118.427 104.122 118.553 104.013 118.648C104.013 118.648 103.761 118.836 103.653 118.962C103.653 118.962 103.4 119.151 103.292 119.277C103.292 119.277 102.968 119.466 102.787 119.592C101.345 120.724 99.9381 121.857 98.4955 122.99C98.3512 123.084 98.2069 123.21 98.0627 123.304C97.9545 123.399 97.8102 123.524 97.702 123.619C97.702 123.619 97.4496 123.839 97.3414 123.965V124.5C97.0528 124.468 96.9446 124.563 96.9807 124.814C96.7282 124.814 96.584 124.877 96.62 125.129C96.3676 125.129 96.2233 125.192 96.2594 125.444C95.9709 125.412 95.8627 125.507 95.8987 125.758C95.6102 125.727 95.502 125.821 95.5381 126.073C95.2496 126.041 95.1414 126.136 95.1774 126.388C94.8168 126.262 94.6004 126.482 94.42 126.702C94.0955 126.985 93.7709 127.3 93.4102 127.583C93.1577 127.74 92.9053 127.898 93.0496 128.244C92.761 128.212 92.6528 128.307 92.6889 128.559H92.0758C92.0758 128.559 91.7873 128.81 91.643 128.905C91.643 128.905 91.3905 129.093 91.2823 129.219C91.2823 129.219 91.0299 129.408 90.9217 129.534C90.9217 129.534 90.6692 129.723 90.525 129.849C90.525 129.849 90.2725 130.037 90.1282 130.163C90.1282 130.163 89.8758 130.383 89.7676 130.509C89.7676 130.698 89.7676 130.855 89.7676 131.044C89.5151 131.013 89.3709 131.107 89.4069 131.359C89.1905 131.359 89.0102 131.359 88.7938 131.359C88.6496 131.453 88.5053 131.579 88.3971 131.673C88.2528 131.799 88.1446 131.894 88.0004 131.988C87.8922 132.114 87.7479 132.208 87.6397 132.334C87.6397 132.334 87.3873 132.523 87.243 132.649C87.243 132.649 86.9905 132.869 86.8823 132.995C86.8823 133.184 86.8823 133.341 86.8823 133.53C86.5938 133.498 86.4856 133.593 86.5217 133.844C86.2692 133.813 86.125 133.907 86.161 134.159C85.8725 134.128 85.7643 134.222 85.8004 134.474C85.584 134.474 85.4037 134.474 85.1873 134.474C85.043 134.568 84.8987 134.694 84.7905 134.788C84.7905 134.788 84.5381 134.977 84.4299 135.103C84.4299 135.103 84.1774 135.292 84.0692 135.417C84.0692 135.417 83.8168 135.638 83.7086 135.764C83.6004 135.858 83.5282 135.921 83.42 136.015C83.2758 136.11 83.1315 136.236 82.9873 136.33C82.9873 136.33 82.7348 136.582 82.6266 136.707C82.5184 136.865 82.3741 137.054 82.2659 137.211C81.5807 137.84 80.8955 138.438 80.1741 139.067C72.6004 145.8 65.3512 152.754 58.1741 159.801C56.1545 161.784 54.4594 163.986 52.0791 165.685C51.9348 165.056 52.2955 164.364 51.7545 163.797C51.6102 154.138 51.6102 144.479 52.1151 134.851C52.2233 132.932 52.2594 130.981 52.4758 129.093C53.2332 122.895 53.5578 116.665 54.2791 110.467C54.4594 109.02 53.9545 107.258 55.6135 106.094C55.6135 106.094 55.866 105.874 55.9741 105.779C55.9741 105.779 56.2266 105.59 56.3348 105.465C56.443 105.37 56.5873 105.244 56.6955 105.15C56.8037 105.056 56.9479 104.93 57.0561 104.835C57.2725 104.835 57.4168 104.741 57.4168 104.521H57.5971L57.7414 104.458C57.9217 104.332 58.1381 104.238 58.3184 104.112C68.2004 96.4347 78.3709 89.0409 88.902 82.0246C98.4955 75.6061 108.305 69.5023 118.512 63.9018C118.909 63.8074 119.269 63.6501 119.486 63.3355H119.522C120.171 63.1467 120.784 62.895 121.217 62.4231H121.253L121.686 62.1399Z" fill="#C0DFF5"/>
<path d="M123.454 103.357C123.454 90.0476 123.454 76.7388 123.418 63.4299C123.418 62.7691 123.418 62.1084 123.418 61.4477C123.454 61.3533 123.49 61.2589 123.526 61.1645C123.598 61.1645 123.67 61.1016 123.778 61.1016C124.283 60.8184 124.752 60.5352 125.257 60.2835C125.365 60.2835 125.437 60.2835 125.546 60.2206C125.654 60.1262 125.798 60.0633 125.906 59.9689C126.591 59.7801 127.205 59.4655 127.782 59.0565C127.854 59.0565 127.962 59.0565 128.034 58.9936C128.178 58.8992 128.287 58.8362 128.431 58.7419C128.647 58.6475 128.864 58.5531 129.08 58.4587C129.729 58.2384 130.414 58.0497 130.847 57.5148C130.955 57.5148 131.064 57.4833 131.208 57.4519C131.352 57.3889 131.496 57.2945 131.677 57.2316C131.749 57.2316 131.857 57.2316 131.929 57.1687C132.037 57.0743 132.182 56.9799 132.29 56.917C132.723 56.8541 133.083 56.7282 133.155 56.2877C134.49 56.3507 135.464 55.627 136.509 55.0607C138.529 54.2112 140.657 53.519 142.46 52.2919C142.568 52.2919 142.677 52.2605 142.821 52.229C142.929 52.1346 143.037 52.0717 143.182 51.9773C143.29 51.9773 143.398 51.9458 143.506 51.9144C143.795 51.9458 144.047 51.9144 144.228 51.6941C144.588 51.5683 144.913 51.4424 145.273 51.3166C145.418 51.2222 145.562 51.1592 145.706 51.0648C145.778 51.0648 145.887 51.0648 145.959 51.0019C146.103 50.9075 146.283 50.8446 146.428 50.7502C146.5 50.7502 146.572 50.7502 146.644 50.7188C147.618 50.3097 148.555 49.9322 149.529 49.5232C149.854 49.3973 150.178 49.2715 150.503 49.1456C150.647 49.0512 150.791 48.9883 150.936 48.8939C151.044 48.8939 151.116 48.8939 151.224 48.831C151.368 48.7366 151.549 48.6737 151.693 48.5793C151.765 48.5793 151.837 48.5793 151.909 48.5478C152.883 48.422 153.713 47.7927 154.759 47.9815C159.7 48.7995 164.713 49.3973 169.473 50.939C166.768 50.939 164.605 51.8829 164.352 53.3302C163.991 55.3753 165.795 56.2563 167.454 57.1372C170.664 58.8677 174.162 59.906 177.841 60.3779C180.221 60.6611 182.782 60.9128 184.621 58.9621C184.837 58.9621 185.054 58.8992 185.234 58.8992C185.306 58.9621 185.414 58.9936 185.523 59.025C185.595 59.4655 185.919 59.7801 186.244 60.0633C186.244 60.1262 186.244 60.1892 186.28 60.2206C186.388 60.3779 186.496 60.5038 186.605 60.6611C186.605 60.724 186.605 60.787 186.641 60.8499C186.749 60.9443 186.857 61.0701 186.965 61.1645C187.109 61.8252 187.47 62.3601 188.011 62.8321C188.155 63.0838 188.3 63.3355 188.408 63.5872C187.975 63.8703 187.578 64.1535 187.146 64.4367C187.073 64.4367 187.037 64.4367 186.965 64.4996C186.785 64.594 186.641 64.6884 186.46 64.7828C186.388 64.7828 186.316 64.7828 186.244 64.8142C186.1 64.9086 185.955 65.003 185.811 65.0659C185.595 65.1603 185.414 65.2547 185.198 65.3491C184.801 65.5693 184.405 65.7581 183.972 65.9784H183.864L183.791 66.0098C183.647 66.1042 183.467 66.1986 183.323 66.293C183.142 66.3874 182.926 66.4818 182.746 66.5447C182.349 66.7649 181.952 66.9852 181.555 67.2054C181.231 67.3313 180.906 67.4886 180.618 67.6144C180.509 67.6774 180.401 67.7718 180.293 67.8347C180.113 67.9291 179.968 68.0235 179.788 68.1179C179.716 68.1179 179.644 68.1179 179.572 68.1808C179.464 68.2752 179.319 68.3696 179.211 68.4325C178.706 68.464 178.346 68.7471 178.021 69.0618H177.913L177.841 69.0932C177.696 69.1876 177.552 69.282 177.408 69.3764C177.191 69.4708 177.011 69.5966 176.795 69.691C176.614 69.7854 176.47 69.8798 176.29 69.9742C176.109 70.0686 175.929 70.163 175.749 70.2574C175.568 70.3832 175.388 70.4776 175.244 70.6034H175.172L175.1 70.6349C174.955 70.7293 174.775 70.8237 174.631 70.9181C174.523 70.9181 174.45 70.9181 174.378 70.981C174.27 71.0754 174.162 71.1383 174.054 71.2327C173.873 71.3271 173.729 71.4215 173.549 71.5473C173.368 71.6417 173.188 71.7361 173.008 71.799C172.828 71.9249 172.647 72.0193 172.503 72.1451H172.395H172.323C172.178 72.2395 172.034 72.3339 171.89 72.4283C171.782 72.4283 171.673 72.4912 171.601 72.5542C171.493 72.6171 171.385 72.68 171.313 72.7744C171.168 72.8688 171.06 72.9632 170.916 73.0576C170.447 73.152 170.087 73.3722 169.762 73.6868C169.654 73.6868 169.546 73.7498 169.473 73.7812C169.365 73.8441 169.257 73.9385 169.149 74.0015C169.005 74.0959 168.86 74.1902 168.68 74.2846C168.572 74.2846 168.5 74.3161 168.391 74.379C168.283 74.4734 168.175 74.5363 168.067 74.6307C167.887 74.7251 167.742 74.8195 167.562 74.9139C165.614 75.8263 163.847 76.959 162.08 78.0287C161.972 78.1231 161.828 78.1861 161.719 78.2804C161.503 78.4063 161.25 78.5321 161.034 78.658C160.926 78.7209 160.818 78.8153 160.709 78.8782C160.565 78.9726 160.421 79.067 160.277 79.1614C160.168 79.1614 160.06 79.1929 159.988 79.2558C159.88 79.3187 159.772 79.4131 159.664 79.476C159.519 79.5704 159.375 79.6648 159.231 79.7592C158.546 80.1682 157.896 80.5773 157.211 80.9863C157.067 81.0807 156.887 81.1751 156.742 81.3009C156.309 81.5841 155.877 81.8672 155.444 82.1504C154.975 82.2763 154.614 82.465 154.398 82.8426C153.713 82.9055 153.352 83.3145 152.991 83.755C152.487 83.755 152.198 84.0697 151.909 84.3843C145.814 87.9711 140.116 91.9984 134.346 95.9627C130.775 98.4168 127.241 100.902 123.67 103.357H123.454Z" fill="#F37A7A"/>
<path d="M152.81 83.7551C153.171 83.3146 153.567 82.9056 154.217 82.8427C154.217 83.6922 153.603 83.818 152.81 83.7551Z" fill="#ED2D2A"/>
<path d="M183.863 66.0412C184.26 65.821 184.657 65.6322 185.09 65.412C185.09 66.1671 184.44 66.0412 183.863 66.0412Z" fill="#ED2D2A"/>
<path d="M151.73 84.3842C152.019 84.0695 152.307 83.7549 152.812 83.7549C152.812 84.4471 152.271 84.4156 151.73 84.3842Z" fill="#ED2D2A"/>
<path d="M177.877 69.0932C178.201 68.7786 178.562 68.5269 179.067 68.4639C179.067 69.219 178.418 69.0932 177.877 69.0932Z" fill="#ED2D2A"/>
<path d="M154.217 82.8426C154.433 82.465 154.83 82.2762 155.262 82.1504C155.299 82.8426 154.794 82.874 154.217 82.8426Z" fill="#ED2D2A"/>
<path d="M169.545 73.6552C169.869 73.3406 170.194 73.1203 170.699 73.0259C170.699 73.7496 170.122 73.6867 169.545 73.6552Z" fill="#ED2D2A"/>
<path d="M181.41 67.237C181.807 67.0167 182.203 66.7965 182.6 66.5762C182.6 67.3313 181.987 67.2684 181.41 67.237Z" fill="#ED2D2A"/>
<path d="M173.334 71.5474C173.334 71.5474 173.659 71.3586 173.839 71.2328C173.659 71.3271 173.515 71.4215 173.334 71.5474Z" fill="#ED2D2A"/>
<path d="M172.288 72.145C172.288 72.145 172.648 71.9247 172.792 71.7989C172.612 71.9247 172.432 72.0191 172.288 72.145Z" fill="#ED2D2A"/>
<path d="M171.675 72.4597C171.675 72.4597 171.964 72.271 172.108 72.1766C171.964 72.271 171.82 72.3654 171.675 72.4597Z" fill="#ED2D2A"/>
<path d="M171.061 72.7743C171.061 72.7743 171.277 72.6484 171.349 72.554C171.241 72.6169 171.133 72.6799 171.061 72.7743Z" fill="#ED2D2A"/>
<path d="M170.662 73.0575C170.662 73.0575 170.914 72.8687 171.058 72.7743C170.914 72.8687 170.806 72.9631 170.662 73.0575Z" fill="#ED2D2A"/>
<path d="M168.93 74.0013C168.93 74.0013 169.147 73.844 169.255 73.7811C169.147 73.844 169.038 73.9384 168.93 74.0013Z" fill="#ED2D2A"/>
<path d="M168.498 74.2846C168.498 74.2846 168.786 74.0958 168.967 74.0014C168.823 74.0958 168.678 74.1902 168.498 74.2846Z" fill="#ED2D2A"/>
<path d="M167.886 74.5992C167.886 74.5992 168.102 74.4419 168.21 74.3475C168.102 74.4419 167.994 74.5048 167.886 74.5992Z" fill="#ED2D2A"/>
<path d="M167.418 74.8824C167.418 74.8824 167.743 74.6936 167.923 74.5992C167.743 74.6936 167.598 74.788 167.418 74.8824Z" fill="#ED2D2A"/>
<path d="M161.539 78.2804C161.539 78.2804 161.792 78.123 161.9 78.0287C161.792 78.123 161.648 78.186 161.539 78.2804Z" fill="#ED2D2A"/>
<path d="M160.528 78.8782C160.528 78.8782 160.744 78.7209 160.852 78.658C160.744 78.7209 160.636 78.8153 160.528 78.8782Z" fill="#ED2D2A"/>
<path d="M179.679 68.1806C179.679 68.1806 180.003 67.9919 180.183 67.8975C180.003 67.9919 179.859 68.0862 179.679 68.1806Z" fill="#ED2D2A"/>
<path d="M160.095 79.1927C160.095 79.1927 160.384 79.004 160.528 78.9096C160.384 79.004 160.24 79.0984 160.095 79.1927Z" fill="#ED2D2A"/>
<path d="M180.15 67.8976C180.15 67.8976 180.367 67.7403 180.475 67.6774C180.367 67.7403 180.258 67.8347 180.15 67.8976Z" fill="#ED2D2A"/>
<path d="M159.481 79.5075C159.481 79.5075 159.697 79.3502 159.806 79.2873C159.697 79.3502 159.589 79.4446 159.481 79.5075Z" fill="#ED2D2A"/>
<path d="M159.049 79.7907C159.049 79.7907 159.337 79.602 159.482 79.5076C159.337 79.602 159.193 79.6963 159.049 79.7907Z" fill="#ED2D2A"/>
<path d="M156.562 81.3009C156.562 81.3009 156.887 81.1121 157.031 80.9863C156.887 81.0807 156.707 81.175 156.562 81.3009Z" fill="#ED2D2A"/>
<path d="M179.066 68.4953C179.066 68.4953 179.319 68.3065 179.427 68.2436C179.319 68.338 179.174 68.4324 179.066 68.4953Z" fill="#ED2D2A"/>
<path d="M183.179 66.3245C183.179 66.3245 183.503 66.1357 183.647 66.0413C183.503 66.1357 183.323 66.2301 183.179 66.3245Z" fill="#ED2D2A"/>
<path d="M185.667 65.1289C185.667 65.1289 185.956 64.9401 186.1 64.8772C185.956 64.9716 185.811 65.066 185.667 65.1289Z" fill="#ED2D2A"/>
<path d="M186.319 64.8142C186.319 64.8142 186.643 64.6255 186.824 64.5311C186.643 64.6255 186.499 64.7198 186.319 64.8142Z" fill="#ED2D2A"/>
<path d="M177.262 69.4077C177.262 69.4077 177.551 69.2189 177.695 69.1245C177.551 69.2189 177.407 69.3133 177.262 69.4077Z" fill="#ED2D2A"/>
<path d="M176.145 70.0057C176.145 70.0057 176.47 69.8169 176.65 69.7225C176.47 69.8169 176.326 69.9113 176.145 70.0057Z" fill="#ED2D2A"/>
<path d="M175.062 70.6347C175.062 70.6347 175.422 70.4145 175.566 70.2886C175.386 70.4145 175.206 70.5089 175.062 70.6347Z" fill="#ED2D2A"/>
<path d="M174.451 70.9179C174.451 70.9179 174.776 70.7292 174.92 70.6348C174.776 70.7292 174.596 70.8235 174.451 70.9179Z" fill="#ED2D2A"/>
<path d="M173.839 71.2326C173.839 71.2326 174.055 71.0753 174.164 70.9809C174.055 71.0753 173.947 71.1382 173.839 71.2326Z" fill="#ED2D2A"/>
<path d="M18.9716 175.124C22.3978 176.036 25.9683 176.162 29.5027 176.319C37.1125 176.634 44.7584 176.823 52.4043 177.043C69.824 177.546 87.2437 177.609 104.663 177.672C111.119 177.672 117.611 177.767 124.067 177.83C130.162 177.955 136.257 177.955 142.352 177.83C160.781 177.767 179.247 177.672 197.676 177.326C207.017 177.137 216.358 176.917 225.663 176.319C228.368 176.162 231.145 176.193 233.778 175.438C233.886 175.438 234.031 175.438 234.139 175.47C234.139 175.659 234.139 175.879 234.139 176.068C227.322 176.854 220.506 177.137 213.654 177.389C211.057 177.483 208.424 177.483 205.827 177.609C200.021 177.924 194.142 177.672 188.372 178.018C184.657 178.239 180.906 178.27 177.227 178.364C173.873 178.427 170.447 178.962 167.021 178.301C165.614 178.018 164.027 178.553 162.513 178.49C143.506 177.861 124.463 178.27 105.457 178.301C98.424 178.301 91.3552 178.301 84.3584 178.144C76.7847 177.955 69.1748 178.301 61.6371 177.83C57.6339 177.578 53.6666 178.113 49.6634 177.704C43.3519 177.074 37.0043 177.2 30.6568 176.98C26.7978 176.823 22.8666 176.697 19.1158 175.784C19.1158 175.564 19.1158 175.375 19.0798 175.155L18.9716 175.124Z" fill="#262529"/>
<path d="M227.106 179.717C227.106 179.717 227.25 179.78 227.358 179.78C227.827 180.347 227.755 180.976 227.466 181.574C227.106 181.794 226.781 181.983 226.421 182.203C220.434 183.084 214.483 183.399 208.568 181.857C207.991 181.479 207.739 180.976 207.811 180.347C208.28 179.529 209.289 179.529 210.083 179.246C215.637 178.679 221.191 178.459 226.709 179.466V179.434C226.817 179.529 226.962 179.623 227.07 179.686L227.106 179.717Z" fill="#8B8C8F"/>
<path d="M208.569 181.857C214.484 183.367 220.435 183.084 226.422 182.203C226.349 182.958 225.592 182.832 225.087 182.927C219.966 183.682 214.881 183.713 209.795 182.706C209.29 182.612 208.569 182.612 208.533 181.888L208.569 181.857Z" fill="#262529"/>
<path d="M226.746 179.497C221.228 178.459 215.674 178.679 210.12 179.277C210.372 178.837 210.625 178.616 211.129 178.585C216.034 178.302 220.975 178.144 225.844 178.837C226.349 178.899 226.782 178.962 226.746 179.529V179.497Z" fill="#262529"/>
<path d="M227.469 181.574C227.758 180.945 227.83 180.347 227.361 179.781C228.804 180.41 228.804 180.787 227.469 181.574Z" fill="#262529"/>
<path d="M207.811 180.347C207.739 180.976 207.991 181.479 208.568 181.857C207.847 181.951 207.559 181.637 207.378 181.07C207.234 180.63 207.234 180.378 207.811 180.347Z" fill="#262529"/>
<path d="M18.5392 176.382C18.5392 176.382 18.7917 176.131 18.936 176.005C18.7917 176.131 18.6835 176.257 18.5392 176.382Z" fill="#262529"/>
<path d="M227.107 179.717C227.107 179.717 226.855 179.529 226.747 179.466C226.855 179.56 226.999 179.655 227.107 179.717Z" fill="#262529"/>
<path d="M195.944 57.7665C195.944 57.7665 196.16 57.7979 196.232 57.8294C196.268 58.0182 196.34 58.1755 196.377 58.3643C195.98 58.3013 195.944 58.0496 195.944 57.7665Z" fill="#EE3935"/>
<path d="M196.343 58.3327C196.343 58.3327 196.559 58.5844 196.668 58.7103C196.559 58.5844 196.451 58.4586 196.343 58.3327Z" fill="#EE3935"/>
<path d="M195.621 57.4203C195.621 57.4203 195.837 57.4204 195.946 57.4833C195.946 57.5777 195.946 57.6721 195.982 57.7664C195.873 57.6406 195.765 57.5147 195.621 57.4203Z" fill="#EE3935"/>
<path d="M93.5908 127.426C93.9154 127.143 94.24 126.828 94.6007 126.545C94.9252 126.545 95.2138 126.545 95.358 126.23C95.4662 126.136 95.5744 126.041 95.7187 125.916C95.8269 125.821 95.9351 125.727 96.0793 125.601C96.1875 125.507 96.2957 125.412 96.44 125.286C96.5482 125.192 96.6925 125.066 96.8007 124.972C96.9089 124.877 97.0531 124.751 97.1613 124.657C97.2695 124.563 97.3777 124.468 97.522 124.342C97.9548 123.996 98.8564 123.965 98.5679 123.115C98.6039 123.021 98.64 122.927 98.7121 122.832C100.155 121.7 101.561 120.567 103.004 119.434C103.184 119.34 103.329 119.245 103.509 119.12C103.617 119.025 103.761 118.899 103.87 118.805C103.978 118.711 104.122 118.585 104.23 118.49C104.338 118.396 104.483 118.27 104.591 118.176C104.699 118.05 104.843 117.924 104.951 117.798C105.276 117.515 105.637 117.232 105.961 116.949C106.286 116.949 106.574 116.949 106.719 116.634C106.827 116.54 106.935 116.445 107.079 116.319C107.188 116.225 107.296 116.131 107.44 116.005C107.765 115.753 108.486 115.753 108.161 115.124C113.066 111.191 117.899 107.226 123.201 103.671C123.201 124.972 123.201 146.241 123.237 167.541C123.237 168.611 122.876 168.894 121.65 168.957C120.243 169.02 118.873 168.894 117.502 168.894C111.948 168.894 106.43 169.146 100.912 169.083C92.8695 168.989 84.8269 168.202 76.8203 168.642C70.9056 168.989 65.063 168.359 59.1843 168.548C56.4794 168.642 53.7384 168.611 51.0695 168.139C51.6105 167.195 52.1876 166.22 52.7646 165.244C55.1449 163.577 56.84 161.343 58.8597 159.361C66.0367 152.313 73.2859 145.36 80.8597 138.627C81.5449 137.997 82.2302 137.4 82.9515 136.77C84.5744 136.298 85.4039 135.04 86.4498 134.002C86.558 133.907 86.6662 133.813 86.8105 133.687C86.9187 133.593 87.0269 133.498 87.1712 133.372C87.2794 133.278 87.3875 133.184 87.5318 133.058C88.5416 132.491 89.3712 131.799 89.9843 130.918C90.0925 130.824 90.2007 130.729 90.3449 130.604C91.463 129.943 92.4007 129.125 93.158 128.149C93.2662 128.055 93.3744 127.961 93.5187 127.835C93.8794 127.709 93.8794 127.457 93.8794 127.174L93.5908 127.426Z" fill="#6299D2"/>
<path d="M56.1205 105.811C54.4615 106.975 54.9664 108.737 54.7861 110.184C54.0648 116.382 53.7402 122.612 52.9828 128.81C52.7664 130.729 52.7303 132.649 52.6221 134.568C52.1172 144.227 52.1172 153.855 52.2615 163.514C52.2615 164.112 52.2615 164.71 52.2615 165.307C51.468 162.759 51.6844 149.104 51.7566 146.02C51.9369 139.539 52.2254 133.026 52.6943 126.576C53.1631 120.126 53.9926 113.708 54.6779 107.038C52.5861 108.705 50.6385 110.215 48.7631 111.757C45.9139 114.148 43.209 116.697 40.1795 118.931C39.8549 119.182 39.5664 119.654 39.0254 119.371C38.4844 119.088 38.5566 118.585 38.7369 118.144C39.891 114.872 39.6746 111.411 40.3959 108.107C41.1172 104.615 41.55 101.06 42.5959 97.6302C43.209 95.6166 43.1008 93.5715 43.6418 91.5264C44.2549 89.2296 44.9402 86.9327 45.3369 84.6045C45.7697 82.1503 46.0221 79.6648 47.032 77.3365C47.9697 75.1655 48.0057 72.7743 49.0516 70.6663C50.4582 67.8346 51.1074 64.7827 52.8385 62.0769C53.127 61.6049 53.5959 61.133 53.1992 60.5037L53.2713 60.4408C54.2811 60.315 54.4975 59.7486 54.3172 58.9935C54.8943 59.025 55.1828 58.8991 54.8582 58.3328C56.2287 58.0496 56.5533 56.9169 57.2025 56.036C57.7434 55.7213 58.2844 55.4067 58.2123 54.7145C58.2844 54.5887 58.3926 54.4943 58.4648 54.3684C58.609 54.3055 58.7533 54.2111 58.8615 54.1482C59.9795 54.0853 60.6648 53.5504 61.0254 52.6694C62.3598 52.166 63.6221 51.5682 64.5238 50.5299C66.7598 50.467 68.4189 49.1141 70.4746 48.5478C72.7467 47.9185 75.0189 47.2263 77.2549 46.5656C79.2385 45.9678 81.2582 45.6217 83.2418 45.1497C83.6385 45.0553 84.0352 45.0868 84.468 45.0553C83.0615 45.9048 83.0975 47.7612 81.9434 48.4848C79.9959 49.7119 78.8779 52.1031 75.9566 52.1031C75.4877 52.1031 75.2352 52.5121 75.1631 52.8267C74.9828 53.9909 74.0811 54.3055 72.6385 54.3055C73.5041 54.6831 74.2975 54.274 74.6943 54.8718C73.9369 54.8718 73.1795 54.8089 72.4221 54.8718C68.8877 55.0606 65.75 57.8608 66.0385 60.4723C64.7041 60.8498 64.2352 61.9825 63.9107 62.8949C61.6385 68.5898 60.4484 74.5363 59.2943 80.4513C58.5369 84.3213 57.8516 88.2227 57.4189 92.1556C56.9139 96.3717 56.0844 100.556 55.4352 104.741C55.3631 105.244 55.291 105.811 56.1566 105.905L56.1205 105.811Z" fill="#5A8CC9"/>
<path d="M42.8449 168.202H49.0482C49.0482 168.202 49.0482 168.296 49.0482 168.359H42.881C42.881 168.359 42.881 168.265 42.881 168.202H42.8449Z" fill="#6299D2"/>
<path d="M233.778 175.439C231.145 176.194 228.368 176.162 225.663 176.32C216.358 176.886 207.017 177.138 197.676 177.326C179.246 177.704 160.781 177.767 142.351 177.83C142.64 176.917 143.505 177.326 144.118 177.326C155.659 177.295 167.237 177.421 178.778 177.232C185.414 177.138 192.086 177.138 198.722 176.949C205.358 176.729 211.994 176.634 218.63 176.351C223.246 176.131 227.899 175.973 232.515 175.25C232.948 175.187 233.453 175.03 233.814 175.439H233.778Z" fill="#B8B9BC"/>
<path d="M18.6096 174.778C18.6096 174.778 18.862 175.03 18.9702 175.155C18.862 175.03 18.7178 174.904 18.6096 174.778Z" fill="#262529"/>
<path d="M54.2791 58.9621C54.4234 59.7172 54.207 60.2835 53.2332 60.4094C53.4136 60.0633 53.5939 59.7172 53.7382 59.3711C53.9185 59.2138 54.0988 59.0879 54.2791 58.9306V58.9621Z" fill="#72A8DB"/>
<path d="M54.8189 58.3013C55.1435 58.8362 54.8189 58.9935 54.2779 58.962C54.3861 58.6789 54.4582 58.3957 54.8189 58.3013Z" fill="#72A8DB"/>
<path d="M184.477 59.025C182.638 60.9757 180.077 60.7555 177.697 60.4409C174.018 59.9689 170.483 58.9306 167.31 57.2002C165.687 56.3192 163.847 55.4068 164.208 53.3931C164.46 51.9458 166.66 51.0334 169.329 51.0019C171.746 51.0648 174.018 51.6941 176.29 52.2605C177.083 52.6065 177.913 52.9212 178.706 53.2673C178.815 53.5504 179.139 53.519 179.392 53.5819C179.644 53.928 180.077 54.0538 180.474 54.2112C181.411 54.9033 182.349 55.5955 183.287 56.3192C183.395 56.4136 183.503 56.5394 183.611 56.6338C184.008 57.4204 184.838 58.0811 184.441 59.0565L184.477 59.025Z" fill="white"/>
<path d="M176.325 52.2605C174.017 51.6942 171.745 51.0649 169.364 51.002C164.604 49.4603 159.591 48.8625 154.65 48.0444C153.604 47.8557 152.774 48.4849 151.8 48.6108C152.991 47.1635 154.794 47.5725 156.237 47.7927C160.492 48.4849 164.748 49.24 168.968 50.2154C170.915 50.6559 172.971 50.8132 174.882 51.3795C175.423 51.5368 176.253 51.4425 176.361 52.229L176.325 52.2605Z" fill="#ED2D2A"/>
<path d="M142.352 52.2919C140.548 53.5189 138.421 54.2111 136.401 55.0606C136.401 54.9348 136.293 54.7145 136.329 54.7145C138.312 53.8335 140.116 52.6694 142.352 52.3233V52.2919Z" fill="#ED2D2A"/>
<path d="M149.421 49.5545C148.447 49.9635 147.51 50.3411 146.536 50.7501C147.113 49.6804 148.231 49.5231 149.421 49.5545Z" fill="#ED2D2A"/>
<path d="M127.709 59.0565C127.168 59.4655 126.555 59.7802 125.834 59.9689C126.014 58.9936 126.844 59.025 127.709 59.0565Z" fill="#ED2D2A"/>
<path d="M130.774 57.5146C130.341 58.0495 129.656 58.2383 129.007 58.4585C129.151 57.5146 129.981 57.5461 130.774 57.5146Z" fill="#ED2D2A"/>
<path d="M187.83 62.832C187.289 62.3915 186.928 61.8252 186.784 61.1644C187.938 61.3217 187.866 62.0769 187.83 62.832Z" fill="#ED2D2A"/>
<path d="M180.508 54.1797C180.075 54.0539 179.679 53.928 179.426 53.5505C180.003 53.4875 180.508 53.4875 180.508 54.1797Z" fill="#ED2D2A"/>
<path d="M186.099 60.0947C185.774 59.7801 185.45 59.4969 185.377 59.0564C186.243 59.0564 186.099 59.6227 186.099 60.0947Z" fill="#ED2D2A"/>
<path d="M144.119 51.7256C143.939 51.9459 143.686 51.9773 143.398 51.9459C143.47 51.4739 143.65 51.2537 144.119 51.7256Z" fill="#ED2D2A"/>
<path d="M179.427 53.5819C179.174 53.5189 178.85 53.5504 178.742 53.2672C179.355 52.7324 179.391 53.1728 179.427 53.5819Z" fill="#ED2D2A"/>
<path d="M133.048 56.2878C132.976 56.7283 132.615 56.8541 132.182 56.917C132.182 56.3822 132.543 56.2563 133.048 56.2878Z" fill="#ED2D2A"/>
<path d="M183.646 56.6022C183.646 56.6022 183.43 56.382 183.321 56.2876C183.466 56.382 184.007 56.0988 183.646 56.6022Z" fill="#ED2D2A"/>
<path d="M185.378 59.0566C185.378 59.0566 185.162 59.0251 185.09 58.9308C185.162 58.8364 185.234 58.7105 185.306 58.6161C185.306 58.742 185.342 58.8993 185.378 59.0251V59.0566Z" fill="#ED2D2A"/>
<path d="M150.827 48.9569C150.827 48.9569 150.538 49.1142 150.394 49.2086C150.538 49.1142 150.682 49.0513 150.827 48.9569Z" fill="#ED2D2A"/>
<path d="M146.32 50.7816C146.32 50.7816 145.996 50.9389 145.851 51.0333C145.996 50.9389 146.176 50.876 146.32 50.7816Z" fill="#ED2D2A"/>
<path d="M145.599 51.0964C145.599 51.0964 145.311 51.2538 145.167 51.3481C145.311 51.2538 145.455 51.1908 145.599 51.0964Z" fill="#ED2D2A"/>
<path d="M186.819 61.1959C186.819 61.1959 186.603 60.9756 186.495 60.8813C186.603 60.9756 186.711 61.1015 186.819 61.1959Z" fill="#ED2D2A"/>
<path d="M186.461 60.6924C186.461 60.6924 186.245 60.4093 186.137 60.252C186.245 60.4093 186.353 60.5351 186.461 60.6924Z" fill="#ED2D2A"/>
<path d="M125.872 59.9375C125.872 59.9375 125.619 60.0948 125.511 60.1892C125.619 60.0948 125.764 60.0319 125.872 59.9375Z" fill="#ED2D2A"/>
<path d="M143.039 52.0087C143.039 52.0087 142.822 52.166 142.678 52.2604C142.786 52.166 142.895 52.1031 143.039 52.0087Z" fill="#ED2D2A"/>
<path d="M151.585 48.6421C151.585 48.6421 151.26 48.7994 151.116 48.8938C151.26 48.7994 151.44 48.7364 151.585 48.6421Z" fill="#ED2D2A"/>
<path d="M131.567 57.2001C131.567 57.2001 131.279 57.3575 131.098 57.4204C131.243 57.3575 131.387 57.2631 131.567 57.2001Z" fill="#ED2D2A"/>
<path d="M132.183 56.8856C132.183 56.8856 131.93 57.0743 131.822 57.1373C131.93 57.0429 132.075 56.9485 132.183 56.8856Z" fill="#ED2D2A"/>
<path d="M128.357 58.7419C128.357 58.7419 128.105 58.8992 127.96 58.9936C128.105 58.8992 128.213 58.8363 128.357 58.7419Z" fill="#ED2D2A"/>
<path d="M56.1211 105.811C55.2555 105.716 55.3276 105.15 55.3998 104.647C56.0489 100.462 56.8784 96.2773 57.3834 92.0613C57.8522 88.1284 58.5014 84.2584 59.2588 80.357C60.4489 74.4419 61.6391 68.4954 63.8752 62.8006C64.2358 61.9196 64.6686 60.7555 66.003 60.3779L65.8948 60.4723C66.003 60.7869 66.2916 60.8184 66.5801 60.8184C66.6161 61.0072 66.7243 61.1016 66.9047 60.8813C69.7538 61.6994 72.2784 60.9757 74.6588 59.6543C77.544 58.0496 77.508 56.2563 74.6588 54.7775C74.226 54.1797 73.4686 54.5887 72.603 54.2112C74.0817 54.2112 74.9834 53.8965 75.1276 52.7324C75.1637 52.4178 75.4161 52.0087 75.9211 52.0087C78.8424 52.0087 79.9604 49.6175 81.9079 48.3905C83.062 47.6668 83.026 45.842 84.4325 44.961C87.0653 44.6464 89.7342 44.3947 92.367 43.9856C95.8653 43.4193 99.3998 43.3564 102.934 43.1676C106.937 42.9474 110.941 42.853 114.98 42.7586C117.252 42.6957 119.488 42.5698 121.76 42.5383C122.229 42.5383 122.698 42.381 122.734 43.1676C123.023 48.5163 122.951 53.8965 123.023 59.2452C123.023 60.4723 122.121 61.1645 121.652 62.1399H121.616C120.751 62.014 120.21 62.3601 119.921 63.0208H119.885C119.452 63.0523 118.875 62.9264 118.911 63.5872C108.705 69.2191 98.8948 75.3229 89.3014 81.7099C78.8063 88.7262 68.5998 96.12 58.7178 103.797C58.5375 103.923 58.3211 104.017 58.1407 104.143C57.9965 103.954 57.8883 104.017 57.8161 104.206C57.708 104.3 57.5637 104.426 57.4555 104.521C57.3473 104.615 57.203 104.741 57.0948 104.835C56.9866 104.93 56.8424 105.056 56.7342 105.15C56.626 105.244 56.4817 105.37 56.3735 105.465C56.2653 105.559 56.1211 105.685 56.0129 105.779L56.1211 105.811ZM83.4588 56.7597C85.803 57.5148 88.1834 57.3889 90.5637 56.8226C90.8161 56.7282 91.0686 56.6338 91.3571 56.5709C94.2784 56.036 97.1637 55.5011 99.6883 54.0538C100.77 53.456 101.888 52.638 101.6 51.348C101.347 50.0266 100.013 49.5231 98.6784 49.3029C93.1243 48.4219 87.9309 49.4602 83.026 51.6312C81.6555 52.229 80.2489 53.0785 80.4293 54.5887C80.6096 55.9731 82.1965 56.3192 83.4948 56.7597H83.4588Z" fill="#6299D2"/>
<path d="M123.743 61.1015C123.743 61.1015 123.563 61.133 123.491 61.1644C123.491 55.7528 123.491 50.3726 123.455 44.9609C123.924 45.4643 123.707 46.0307 123.707 46.5656C123.707 51.4109 123.707 56.2247 123.707 61.0701L123.743 61.1015Z" fill="#EE3935"/>
<path d="M123.455 42.2552C123.888 43.0418 123.888 43.8283 123.455 44.6464C123.455 43.8598 123.455 43.0732 123.455 42.2552Z" fill="#EE3935"/>
<path d="M86.2356 134.19C85.1897 135.229 84.3962 136.487 82.7372 136.959C82.8454 136.802 82.9897 136.613 83.0979 136.456C83.2061 136.33 83.3503 136.173 83.4585 136.047C83.6028 135.952 83.747 135.826 83.8913 135.732C83.9995 135.638 84.0716 135.575 84.1798 135.48C84.288 135.355 84.4323 135.229 84.5405 135.103C84.6487 134.977 84.793 134.883 84.9011 134.757C85.0093 134.662 85.1536 134.536 85.2618 134.442C85.4061 134.348 85.5503 134.222 85.6585 134.127C85.8749 134.127 86.0552 134.127 86.2716 134.127L86.2356 134.19Z" fill="#5A8CC9"/>
<path d="M92.8689 128.37C92.1116 129.345 91.1738 130.163 90.0558 130.824C90.0558 130.635 90.0558 130.478 90.0558 130.289C90.164 130.163 90.3083 130.037 90.4165 129.911C90.5607 129.785 90.6689 129.691 90.7771 129.565C90.9214 129.439 91.0296 129.345 91.1378 129.219C91.2821 129.093 91.3902 128.999 91.4984 128.873C91.6066 128.747 91.7509 128.653 91.8591 128.527C92.0034 128.433 92.1476 128.307 92.2919 128.212H92.905L92.8689 128.37Z" fill="#5A8CC9"/>
<path d="M89.7323 131.139C89.0831 132.02 88.2896 132.743 87.2798 133.278C87.2798 133.089 87.2798 132.932 87.2798 132.743C87.388 132.617 87.5323 132.492 87.6405 132.397C87.7847 132.271 87.8929 132.177 88.0372 132.051C88.1814 131.925 88.2896 131.831 88.3978 131.705C88.5421 131.579 88.6503 131.485 88.7946 131.39C88.9388 131.296 89.0831 131.17 89.1913 131.076C89.4077 131.076 89.588 131.076 89.8044 131.076L89.7323 131.139Z" fill="#5A8CC9"/>
<path d="M119.955 63.0208C120.279 62.3286 120.784 61.9825 121.65 62.1398C121.217 62.6118 120.604 62.8635 119.955 63.0208Z" fill="#72A8DB"/>
<path d="M98.4596 123.178C98.7481 123.996 97.8465 124.059 97.4137 124.405C97.4137 124.217 97.4137 124.059 97.4137 123.871C97.5219 123.745 97.6662 123.619 97.7744 123.493C97.8826 123.399 98.0268 123.273 98.135 123.178C98.2432 123.178 98.3514 123.178 98.4596 123.147V123.178Z" fill="#5A8CC9"/>
<path d="M118.91 63.6501C118.91 62.9894 119.451 63.1152 119.884 63.0838C119.668 63.3984 119.307 63.5872 118.91 63.6501Z" fill="#72A8DB"/>
<path d="M107.983 115.25C108.307 115.91 107.586 115.91 107.261 116.13C107.189 115.627 107.658 115.47 107.983 115.25Z" fill="#5A8CC9"/>
<path d="M95.3227 126.23C95.1784 126.545 94.8899 126.576 94.5653 126.545C94.7456 126.325 94.962 126.136 95.3227 126.23Z" fill="#5A8CC9"/>
<path d="M93.5904 127.426C93.5904 127.709 93.5904 127.961 93.2298 128.087C93.0855 127.772 93.3379 127.615 93.5904 127.426Z" fill="#5A8CC9"/>
<path d="M106.541 116.76C106.396 117.075 106.108 117.106 105.783 117.075C105.963 116.854 106.18 116.666 106.541 116.76Z" fill="#5A8CC9"/>
<path d="M57.8875 104.269C57.9597 104.08 58.0318 104.017 58.2121 104.206L58.0679 104.269H57.8875Z" fill="#5A8CC9"/>
<path d="M57.5255 104.584C57.5255 104.584 57.778 104.363 57.8862 104.269C57.8862 104.458 57.7419 104.552 57.5255 104.584Z" fill="#5A8CC9"/>
<path d="M57.1656 104.898C57.1656 104.898 57.418 104.678 57.5262 104.584C57.418 104.678 57.2738 104.804 57.1656 104.898Z" fill="#5A8CC9"/>
<path d="M56.8036 105.181C56.8036 105.181 57.056 104.961 57.1642 104.867C57.056 104.961 56.9118 105.087 56.8036 105.181Z" fill="#5A8CC9"/>
<path d="M56.4809 105.496C56.4809 105.496 56.7334 105.276 56.8416 105.181C56.7334 105.276 56.5891 105.402 56.4809 105.496Z" fill="#5A8CC9"/>
<path d="M56.1189 105.811C56.1189 105.811 56.3714 105.59 56.4796 105.496C56.3714 105.59 56.2271 105.716 56.1189 105.811Z" fill="#5A8CC9"/>
<path d="M107.261 116.162C107.261 116.162 107.045 116.351 106.901 116.477C106.865 116.225 106.973 116.131 107.261 116.162Z" fill="#5A8CC9"/>
<path d="M106.899 116.477C106.899 116.477 106.683 116.665 106.539 116.791C106.503 116.54 106.611 116.445 106.899 116.477Z" fill="#5A8CC9"/>
<path d="M104.807 117.924C104.807 117.924 104.555 118.176 104.447 118.302C104.555 118.176 104.699 118.05 104.807 117.924Z" fill="#5A8CC9"/>
<path d="M104.448 118.301C104.448 118.301 104.195 118.522 104.087 118.616C104.195 118.522 104.339 118.396 104.448 118.301Z" fill="#5A8CC9"/>
<path d="M104.086 118.585C104.086 118.585 103.833 118.805 103.725 118.899C103.833 118.805 103.977 118.679 104.086 118.585Z" fill="#5A8CC9"/>
<path d="M103.761 118.899C103.761 118.899 103.508 119.12 103.4 119.214C103.508 119.12 103.653 118.994 103.761 118.899Z" fill="#5A8CC9"/>
<path d="M103.402 119.214C103.402 119.214 103.078 119.403 102.897 119.529C103.078 119.434 103.222 119.34 103.402 119.214Z" fill="#5A8CC9"/>
<path d="M98.4602 123.178C98.4602 123.178 98.2438 123.21 98.1356 123.21C98.2799 123.115 98.4242 122.989 98.5684 122.895C98.5324 122.989 98.4963 123.084 98.4242 123.178H98.4602Z" fill="white"/>
<path d="M98.1736 123.21C98.1736 123.21 97.9211 123.43 97.813 123.524C97.9211 123.43 98.0654 123.304 98.1736 123.21Z" fill="white"/>
<path d="M97.8468 123.524C97.8468 123.524 97.5943 123.776 97.4861 123.902C97.5943 123.776 97.7386 123.65 97.8468 123.524Z" fill="white"/>
<path d="M97.4501 124.405C97.4501 124.405 97.2337 124.594 97.0894 124.72C97.0534 124.468 97.1616 124.374 97.4501 124.405Z" fill="#5A8CC9"/>
<path d="M97.0897 124.72C97.0897 124.72 96.8372 124.94 96.729 125.035C96.729 124.814 96.8012 124.688 97.0897 124.72Z" fill="#5A8CC9"/>
<path d="M96.7277 125.003C96.7277 125.003 96.4752 125.223 96.367 125.318C96.367 125.097 96.4392 124.972 96.7277 125.003Z" fill="#5A8CC9"/>
<path d="M96.3703 125.318C96.3703 125.318 96.1539 125.507 96.0096 125.632C95.9736 125.381 96.0818 125.286 96.3703 125.318Z" fill="#5A8CC9"/>
<path d="M96.0414 125.632C96.0414 125.632 95.825 125.821 95.6807 125.947C95.6447 125.695 95.7529 125.601 96.0414 125.632Z" fill="#5A8CC9"/>
<path d="M95.681 125.947C95.681 125.947 95.4646 126.136 95.3203 126.262C95.3203 126.041 95.3925 125.916 95.681 125.947Z" fill="#5A8CC9"/>
<path d="M93.2302 128.087C93.2302 128.087 93.0138 128.275 92.8696 128.401C92.8335 128.15 92.9417 128.055 93.2302 128.087Z" fill="#5A8CC9"/>
<path d="M92.2572 128.401C92.2572 128.401 91.9687 128.621 91.8244 128.716C91.9687 128.621 92.113 128.496 92.2572 128.401Z" fill="white"/>
<path d="M91.8624 128.716C91.8624 128.716 91.61 128.936 91.5018 129.062C91.61 128.936 91.7542 128.842 91.8624 128.716Z" fill="white"/>
<path d="M91.5355 128.999C91.5355 128.999 91.2831 129.219 91.1749 129.345C91.2831 129.219 91.4273 129.125 91.5355 128.999Z" fill="white"/>
<path d="M91.1736 129.314C91.1736 129.314 90.9211 129.534 90.8129 129.66C90.9211 129.565 91.0654 129.439 91.1736 129.314Z" fill="white"/>
<path d="M90.8157 129.628C90.8157 129.628 90.5632 129.848 90.455 129.974C90.5632 129.848 90.7075 129.754 90.8157 129.628Z" fill="white"/>
<path d="M90.4889 129.943C90.4889 129.943 90.2364 130.195 90.1282 130.32C90.2364 130.195 90.3807 130.069 90.4889 129.943Z" fill="white"/>
<path d="M90.0922 130.824C90.0922 130.824 89.8758 131.013 89.7315 131.139C89.6955 130.887 89.8037 130.792 90.0922 130.824Z" fill="#5A8CC9"/>
<path d="M89.1204 131.17C89.1204 131.17 88.8319 131.39 88.7237 131.485C88.8679 131.39 89.0122 131.264 89.1204 131.17Z" fill="white"/>
<path d="M88.7212 131.453C88.7212 131.453 88.4687 131.673 88.3244 131.768C88.4326 131.673 88.5769 131.548 88.7212 131.453Z" fill="white"/>
<path d="M88.3624 131.768C88.3624 131.768 88.1099 131.988 88.0017 132.114C88.1099 131.988 88.2542 131.893 88.3624 131.768Z" fill="white"/>
<path d="M88.0365 132.082C88.0365 132.082 87.784 132.303 87.6397 132.428C87.7479 132.334 87.8922 132.208 88.0365 132.082Z" fill="white"/>
<path d="M87.6777 132.365C87.6777 132.365 87.4252 132.617 87.317 132.711C87.4252 132.586 87.5695 132.46 87.6777 132.365Z" fill="white"/>
<path d="M87.281 133.278C87.281 133.278 87.0646 133.467 86.9204 133.593C86.8843 133.341 86.9925 133.247 87.281 133.278Z" fill="#5A8CC9"/>
<path d="M86.9211 133.593C86.9211 133.593 86.7047 133.781 86.5604 133.907C86.5244 133.655 86.6326 133.561 86.9211 133.593Z" fill="#5A8CC9"/>
<path d="M86.5591 133.876C86.5591 133.876 86.3427 134.064 86.1984 134.19C86.1624 133.939 86.2706 133.844 86.5591 133.876Z" fill="#5A8CC9"/>
<path d="M85.5831 134.222C85.5831 134.222 85.2946 134.442 85.1864 134.536C85.3307 134.442 85.4749 134.316 85.5831 134.222Z" fill="white"/>
<path d="M85.2244 134.505C85.2244 134.505 84.9719 134.725 84.8637 134.82C84.9719 134.725 85.1162 134.599 85.2244 134.505Z" fill="white"/>
<path d="M84.8624 134.82C84.8624 134.82 84.6099 135.04 84.5017 135.166C84.6099 135.04 84.7542 134.946 84.8624 134.82Z" fill="white"/>
<path d="M84.5004 135.134C84.5004 135.134 84.2479 135.386 84.1397 135.512C84.2479 135.386 84.3922 135.26 84.5004 135.134Z" fill="white"/>
<path d="M83.8878 135.732C83.8878 135.732 83.5993 135.952 83.455 136.047C83.5993 135.952 83.7435 135.826 83.8878 135.732Z" fill="white"/>
<path d="M83.4578 136.047C83.4578 136.047 83.2053 136.33 83.0972 136.456C83.2053 136.33 83.3496 136.172 83.4578 136.047Z" fill="white"/>
<path d="M74.694 54.7775C77.5432 56.2877 77.5793 58.0811 74.694 59.6543C72.3137 60.9757 69.7891 61.6679 66.9399 60.8813C66.8317 60.8184 66.7236 60.8184 66.6154 60.7869C66.4711 60.5667 66.2908 60.3465 65.9301 60.4408L66.0383 60.3465C65.7498 57.7036 68.8875 54.9348 72.4219 54.746C73.1793 54.7146 73.9367 54.746 74.694 54.746V54.7775Z" fill="white"/>
<path d="M83.4579 56.7597C82.1595 56.3192 80.5726 55.9731 80.3923 54.5887C80.212 53.0785 81.6546 52.229 82.989 51.6312C87.93 49.4288 93.1235 48.4219 98.6415 49.3029C100.012 49.5231 101.31 50.0266 101.563 51.348C101.815 52.638 100.697 53.4246 99.6513 54.0538C97.1267 55.5011 94.2054 56.0675 91.3202 56.5709C91.0317 56.6338 90.7792 56.7282 90.5267 56.8226C88.1464 56.8855 85.8022 56.9799 83.4218 56.7597H83.4579Z" fill="white"/>
<path d="M83.455 56.7597C85.8353 56.98 88.1796 56.8541 90.5599 56.8227C88.1796 57.4205 85.8353 57.5148 83.455 56.7597Z" fill="#5A8CC9"/>
<path d="M65.9632 60.5037C66.3239 60.4093 66.5042 60.6296 66.6485 60.8498C66.3239 60.8498 66.0353 60.8498 65.9632 60.5037Z" fill="#5A8CC9"/>
<path d="M66.6479 60.8184C66.6479 60.8184 66.8643 60.8499 66.9725 60.9128C66.7922 61.133 66.684 61.0386 66.6479 60.8184Z" fill="#5A8CC9"/>
</g>
</mask>
<g mask="url(#mask0_78_13421)">
<rect x="-44.4825" y="-30.45" width="389.751" height="297.118" fill="#27AE60"/>
</g>
<defs>
<clipPath id="clip0_78_13421">
<rect width="253" height="203" fill="white"/>
</clipPath>
</defs>
</svg>
