<svg width="181" height="141" viewBox="0 0 181 141" fill="none" xmlns="http://www.w3.org/2000/svg">
<ellipse cx="36.5" cy="28.5" rx="36.5" ry="28.5" transform="matrix(-1 0 0 1 158 9)" fill="#81B998"/>
<ellipse cx="36.5" cy="28.5" rx="36.5" ry="28.5" transform="matrix(-1 0 0 1 168 38)" fill="#81B998"/>
<ellipse cx="36.5" cy="28.5" rx="36.5" ry="28.5" transform="matrix(-1 0 0 1 117 37)" fill="#81B998"/>
<ellipse cx="36.5" cy="28.5" rx="36.5" ry="28.5" transform="matrix(-1 0 0 1 197 65)" fill="#81B998"/>
<ellipse cx="36.5" cy="28.5" rx="36.5" ry="28.5" transform="matrix(-1 0 0 1 205 44)" fill="#81B998"/>
<ellipse cx="36.5" cy="28.5" rx="36.5" ry="28.5" transform="matrix(-1 0 0 1 157 73)" fill="#81B998"/>
<ellipse cx="36.5" cy="28.5" rx="36.5" ry="28.5" transform="matrix(-1 0 0 1 73 72)" fill="#81B998"/>
<ellipse cx="36.5" cy="28.5" rx="36.5" ry="28.5" transform="matrix(-1 0 0 1 100 84)" fill="#81B998"/>
<ellipse cx="36.5" cy="28.5" rx="36.5" ry="28.5" transform="matrix(-1 0 0 1 197 0)" fill="#81B998"/>
<circle cx="7.5" cy="7.5" r="7.5" transform="matrix(-1 0 0 1 168 29)" fill="#E3A5D0"/>
<circle cx="7.5" cy="7.5" r="7.5" transform="matrix(-1 0 0 1 160 21)" fill="#E3A5D0"/>
<circle cx="7.5" cy="7.5" r="7.5" transform="matrix(-1 0 0 1 160 37)" fill="#E3A5D0"/>
<circle cx="7.5" cy="7.5" r="7.5" transform="matrix(-1 0 0 1 153 29)" fill="#E3A5D0"/>
<circle cx="5" cy="5" r="5" transform="matrix(-1 0 0 1 158 32)" fill="#E3DCA5"/>
<circle cx="7.5" cy="7.5" r="7.5" transform="matrix(-1 0 0 1 87 61)" fill="#E3A5D0"/>
<circle cx="7.5" cy="7.5" r="7.5" transform="matrix(-1 0 0 1 79 53)" fill="#E3A5D0"/>
<circle cx="7.5" cy="7.5" r="7.5" transform="matrix(-1 0 0 1 79 69)" fill="#E3A5D0"/>
<circle cx="7.5" cy="7.5" r="7.5" transform="matrix(-1 0 0 1 72 61)" fill="#E3A5D0"/>
<circle cx="5" cy="5" r="5" transform="matrix(-1 0 0 1 77 64)" fill="#E3DCA5"/>
<circle cx="7.5" cy="7.5" r="7.5" transform="matrix(-1 0 0 1 145 80)" fill="#E3A5D0"/>
<circle cx="7.5" cy="7.5" r="7.5" transform="matrix(-1 0 0 1 137 72)" fill="#E3A5D0"/>
<circle cx="7.5" cy="7.5" r="7.5" transform="matrix(-1 0 0 1 137 88)" fill="#E3A5D0"/>
<circle cx="7.5" cy="7.5" r="7.5" transform="matrix(-1 0 0 1 130 80)" fill="#E3A5D0"/>
<circle cx="5" cy="5" r="5" transform="matrix(-1 0 0 1 135 83)" fill="#E3DCA5"/>
</svg>
