<svg width="178" height="141" viewBox="0 0 178 141" fill="none" xmlns="http://www.w3.org/2000/svg">
<ellipse cx="56.5" cy="37.5" rx="36.5" ry="28.5" fill="#81B998"/>
<ellipse cx="46.5" cy="66.5" rx="36.5" ry="28.5" fill="#81B998"/>
<ellipse cx="97.5" cy="65.5" rx="36.5" ry="28.5" fill="#81B998"/>
<ellipse cx="17.5" cy="93.5" rx="36.5" ry="28.5" fill="#81B998"/>
<ellipse cx="9.5" cy="72.5" rx="36.5" ry="28.5" fill="#81B998"/>
<ellipse cx="57.5" cy="101.5" rx="36.5" ry="28.5" fill="#81B998"/>
<ellipse cx="141.5" cy="100.5" rx="36.5" ry="28.5" fill="#81B998"/>
<ellipse cx="114.5" cy="112.5" rx="36.5" ry="28.5" fill="#81B998"/>
<ellipse cx="17.5" cy="28.5" rx="36.5" ry="28.5" fill="#81B998"/>
<circle cx="17.5" cy="36.5" r="7.5" fill="#E3A5D0"/>
<circle cx="25.5" cy="28.5" r="7.5" fill="#E3A5D0"/>
<circle cx="25.5" cy="44.5" r="7.5" fill="#E3A5D0"/>
<circle cx="32.5" cy="36.5" r="7.5" fill="#E3A5D0"/>
<circle cx="25" cy="37" r="5" fill="#E3DCA5"/>
<circle cx="98.5" cy="68.5" r="7.5" fill="#E3A5D0"/>
<circle cx="106.5" cy="60.5" r="7.5" fill="#E3A5D0"/>
<circle cx="106.5" cy="76.5" r="7.5" fill="#E3A5D0"/>
<circle cx="113.5" cy="68.5" r="7.5" fill="#E3A5D0"/>
<circle cx="106" cy="69" r="5" fill="#E3DCA5"/>
<circle cx="40.5" cy="87.5" r="7.5" fill="#E3A5D0"/>
<circle cx="48.5" cy="79.5" r="7.5" fill="#E3A5D0"/>
<circle cx="48.5" cy="95.5" r="7.5" fill="#E3A5D0"/>
<circle cx="55.5" cy="87.5" r="7.5" fill="#E3A5D0"/>
<circle cx="48" cy="88" r="5" fill="#E3DCA5"/>
</svg>
