<svg width="431" height="611" viewBox="0 0 431 611" fill="none" xmlns="http://www.w3.org/2000/svg">
<path d="M182.234 610.616H277.734L279.823 499.116L281.387 415.616C281.387 415.616 298.734 83.1187 288.234 50.1164C277.733 17.1142 204.734 -43.8814 149.234 50.1164C93.7334 144.114 167.485 360.116 167.485 360.116L170.753 415.616L182.234 610.616Z" fill="#27AE60"/>
<path d="M84.7339 415.616C128.234 436.616 170.753 415.616 170.753 415.616L167.485 360.116C167.485 360.116 138.734 360.116 119.234 335.616C99.7334 311.116 105.734 186.116 93.2339 160.116C80.7339 134.116 32.2339 111.116 6.2339 168.616C-19.7661 226.116 41.2339 394.616 84.7339 415.616Z" fill="#27AE60"/>
<path d="M314.234 415.616C288.234 434.619 281.387 415.616 281.387 415.616L279.823 499.116C279.823 499.116 324.734 499.116 347.234 487.116C369.733 475.116 371.734 464.619 382.234 448.616C392.733 432.614 434.234 247.119 430.734 210.116C427.233 173.114 382.234 144.119 347.234 196.616C312.234 249.114 340.234 396.614 314.234 415.616Z" fill="#27AE60"/>
<rect x="250.002" y="14" width="7" height="597" rx="3.5" fill="#1C6C3E"/>
<rect x="254.002" y="56.5295" width="14" height="4" transform="rotate(-32.5355 254.002 56.5295)" fill="#1C6C3E"/>
<rect x="254.002" y="90.5295" width="14" height="4" transform="rotate(-32.5355 254.002 90.5295)" fill="#1C6C3E"/>
<rect x="254.002" y="190.53" width="14" height="4" transform="rotate(-32.5355 254.002 190.53)" fill="#1C6C3E"/>
<rect x="255.002" y="320.53" width="14" height="4" transform="rotate(-32.5355 255.002 320.53)" fill="#1C6C3E"/>
<rect x="250.002" y="390.53" width="14" height="4" transform="rotate(-32.5355 250.002 390.53)" fill="#1C6C3E"/>
<rect x="254.002" y="555.53" width="14" height="4" transform="rotate(-32.5355 254.002 555.53)" fill="#1C6C3E"/>
<rect x="242.121" y="503" width="14" height="4" transform="rotate(32 242.121 503)" fill="#1C6C3E"/>
<rect x="240.121" y="356" width="14" height="4" transform="rotate(32 240.121 356)" fill="#1C6C3E"/>
<rect x="240.121" y="227" width="14" height="4" transform="rotate(32 240.121 227)" fill="#1C6C3E"/>
<rect x="240.121" y="128" width="14" height="4" transform="rotate(32 240.121 128)" fill="#1C6C3E"/>
<rect x="240.121" y="72" width="14" height="4" transform="rotate(32 240.121 72)" fill="#1C6C3E"/>
<rect x="242.121" y="27" width="14" height="4" transform="rotate(32 242.121 27)" fill="#1C6C3E"/>
<rect width="7" height="597" rx="3.5" transform="matrix(1 0 0 -1 205.002 611)" fill="#1C6C3E"/>
<rect width="14" height="4" transform="matrix(0.843058 0.537822 0.537822 -0.843058 209.002 568.47)" fill="#1C6C3E"/>
<rect width="14" height="4" transform="matrix(0.843058 0.537822 0.537822 -0.843058 209.002 534.47)" fill="#1C6C3E"/>
<rect width="14" height="4" transform="matrix(0.843058 0.537822 0.537822 -0.843058 209.002 434.47)" fill="#1C6C3E"/>
<rect width="14" height="4" transform="matrix(0.843058 0.537822 0.537822 -0.843058 210.002 304.47)" fill="#1C6C3E"/>
<rect width="14" height="4" transform="matrix(0.843058 0.537822 0.537822 -0.843058 205.002 234.47)" fill="#1C6C3E"/>
<rect width="14" height="4" transform="matrix(0.843058 0.537822 0.537822 -0.843058 209.002 69.4705)" fill="#1C6C3E"/>
<rect width="14" height="4" transform="matrix(0.848048 -0.529919 -0.529919 -0.848048 197.121 122)" fill="#1C6C3E"/>
<rect width="14" height="4" transform="matrix(0.848048 -0.529919 -0.529919 -0.848048 195.121 269)" fill="#1C6C3E"/>
<rect width="14" height="4" transform="matrix(0.848048 -0.529919 -0.529919 -0.848048 195.121 398)" fill="#1C6C3E"/>
<rect width="14" height="4" transform="matrix(0.848048 -0.529919 -0.529919 -0.848048 195.121 497)" fill="#1C6C3E"/>
<rect width="14" height="4" transform="matrix(0.848048 -0.529919 -0.529919 -0.848048 195.121 553)" fill="#1C6C3E"/>
<rect width="14" height="4" transform="matrix(0.848048 -0.529919 -0.529919 -0.848048 197.121 598)" fill="#1C6C3E"/>
<rect x="156.982" y="39.0107" width="7" height="324" rx="3.5" transform="rotate(-3.05696 156.982 39.0107)" fill="#1C6C3E"/>
<rect x="163.246" y="81.2666" width="14" height="4" transform="rotate(-35.5925 163.246 81.2666)" fill="#1C6C3E"/>
<rect x="165.059" y="115.218" width="14" height="4" transform="rotate(-35.5925 165.059 115.218)" fill="#1C6C3E"/>
<rect x="170.393" y="215.076" width="14" height="4" transform="rotate(-35.5925 170.393 215.076)" fill="#1C6C3E"/>
<rect x="178.322" y="344.838" width="14" height="4" transform="rotate(-35.5925 178.322 344.838)" fill="#1C6C3E"/>
<rect x="158.477" y="252.235" width="14" height="4" transform="rotate(28.943 158.477 252.235)" fill="#1C6C3E"/>
<rect x="153.195" y="153.375" width="14" height="4" transform="rotate(28.943 153.195 153.375)" fill="#1C6C3E"/>
<rect x="150.209" y="97.4553" width="14" height="4" transform="rotate(28.943 150.209 97.4553)" fill="#1C6C3E"/>
<rect x="149.807" y="52.4126" width="14" height="4" transform="rotate(28.943 149.807 52.4126)" fill="#1C6C3E"/>
<rect x="43.9355" y="149" width="14" height="4" transform="rotate(28.943 43.9355 149)" fill="#1C6C3E"/>
<rect x="45.9355" y="188" width="14" height="4" transform="rotate(28.943 45.9355 188)" fill="#1C6C3E"/>
<rect x="55.9355" y="269" width="14" height="4" transform="rotate(28.943 55.9355 269)" fill="#1C6C3E"/>
<rect x="56" y="171.419" width="14" height="4" transform="rotate(-32 56 171.419)" fill="#1C6C3E"/>
<rect x="61" y="234.419" width="14" height="4" transform="rotate(-32 61 234.419)" fill="#1C6C3E"/>
<rect x="73" y="297.419" width="14" height="4" transform="rotate(-32 73 297.419)" fill="#1C6C3E"/>
<rect x="92" y="346.419" width="14" height="4" transform="rotate(-32 92 346.419)" fill="#1C6C3E"/>
<rect x="151.018" y="382.254" width="14" height="4" transform="rotate(-94.1707 151.018 382.254)" fill="#1C6C3E"/>
<rect x="67.9355" y="313" width="14" height="4" transform="rotate(28.943 67.9355 313)" fill="#1C6C3E"/>
<rect x="117" y="383.68" width="14" height="4" transform="rotate(-28.5008 117 383.68)" fill="#1C6C3E"/>
<path d="M56 141.5C56 141.5 61 318 94 351.5C127 385 165.5 385 165.5 385" stroke="#1C6C3E" stroke-width="7" stroke-linecap="round"/>
<rect width="12.4677" height="4.15266" transform="matrix(-0.800339 0.599548 0.384887 0.922964 382.365 191.234)" fill="#1C6C3E"/>
<rect width="12.4677" height="4.15266" transform="matrix(-0.800339 0.599548 0.384887 0.922964 380.914 234.02)" fill="#1C6C3E"/>
<rect width="12.4677" height="4.15266" transform="matrix(-0.800339 0.599548 0.384887 0.922964 373.127 322.904)" fill="#1C6C3E"/>
<rect width="12.6624" height="4.10428" transform="matrix(-0.768911 -0.639356 -0.41807 0.908415 372.613 215.868)" fill="#1C6C3E"/>
<rect width="12.6624" height="4.10428" transform="matrix(-0.768911 -0.639356 -0.41807 0.908415 368.826 284.99)" fill="#1C6C3E"/>
<rect width="12.6624" height="4.10428" transform="matrix(-0.768911 -0.639356 -0.41807 0.908415 359.318 354.137)" fill="#1C6C3E"/>
<rect width="12.6624" height="4.10428" transform="matrix(-0.768911 -0.639356 -0.41807 0.908415 344.029 407.952)" fill="#1C6C3E"/>
<rect width="15.3387" height="3.27533" transform="matrix(0.0499192 -0.998753 -0.995655 -0.0931198 295.975 447.469)" fill="#1C6C3E"/>
<rect width="12.4677" height="4.15266" transform="matrix(-0.800339 0.599548 0.384887 0.922964 363.531 371.21)" fill="#1C6C3E"/>
<rect width="12.4403" height="4.15937" transform="matrix(-0.810646 -0.585536 -0.370943 0.928656 323.777 448.913)" fill="#1C6C3E"/>
<path d="M372.471 183.05C372.471 183.05 369.223 376.67 342.418 413.533C315.613 450.396 284.155 450.532 284.155 450.532" stroke="#1C6C3E" stroke-width="7" stroke-linecap="round"/>
<rect width="15.5861" height="4.74243" transform="matrix(-0.846557 0.532298 0.44467 0.895694 414.318 196.13)" fill="#1C6C3E"/>
<rect width="15.5861" height="4.74243" transform="matrix(-0.846562 0.53229 0.444677 0.895691 412.359 243.565)" fill="#1C6C3E"/>
<rect width="15.5861" height="4.74243" transform="matrix(-0.846562 0.53229 0.444677 0.895691 401.99 342.114)" fill="#1C6C3E"/>
<rect width="15.6775" height="4.71777" transform="matrix(-0.820302 -0.571931 -0.481414 0.876493 401.406 223.449)" fill="#1C6C3E"/>
<rect width="15.6775" height="4.71777" transform="matrix(-0.820302 -0.571931 -0.481414 0.876493 396.338 300.084)" fill="#1C6C3E"/>
<rect width="15.6775" height="4.71777" transform="matrix(-0.820302 -0.571931 -0.481414 0.876493 383.711 376.752)" fill="#1C6C3E"/>
<rect width="15.6775" height="4.71777" transform="matrix(-0.820302 -0.571931 -0.481414 0.876493 363.453 436.428)" fill="#1C6C3E"/>
<rect width="17.0159" height="4.32265" transform="matrix(0.0603018 -0.99818 -0.99699 -0.0775285 299.906 480.282)" fill="#1C6C3E"/>
<rect width="15.5861" height="4.74243" transform="matrix(-0.846562 0.53229 0.444677 0.895691 389.26 395.677)" fill="#1C6C3E"/>
<rect width="15.5733" height="4.74586" transform="matrix(-0.855404 -0.517962 -0.430418 0.90263 336.65 481.858)" fill="#1C6C3E"/>
<path d="M401.248 187.065C401.248 187.065 396.777 401.724 361.317 442.617C325.857 483.509 284.281 483.689 284.281 483.689" stroke="#1C6C3E" stroke-width="7" stroke-linecap="round"/>
<rect x="14.9355" y="171.5" width="14" height="4" transform="rotate(28.943 14.9355 171.5)" fill="#1C6C3E"/>
<rect x="16.9355" y="210.5" width="14" height="4" transform="rotate(28.943 16.9355 210.5)" fill="#1C6C3E"/>
<rect x="28.9355" y="293" width="14" height="4" transform="rotate(28.943 28.9355 293)" fill="#1C6C3E"/>
<rect x="27" y="193.919" width="14" height="4" transform="rotate(-32 27 193.919)" fill="#1C6C3E"/>
<rect x="32" y="256.919" width="14" height="4" transform="rotate(-32 32 256.919)" fill="#1C6C3E"/>
<rect x="44" y="319.919" width="14" height="4" transform="rotate(-32 44 319.919)" fill="#1C6C3E"/>
<rect x="63" y="368.919" width="14" height="4" transform="rotate(-32 63 368.919)" fill="#1C6C3E"/>
<rect x="122.018" y="404.754" width="14" height="4" transform="rotate(-94.1707 122.018 404.754)" fill="#1C6C3E"/>
<rect x="38.9355" y="335.5" width="14" height="4" transform="rotate(28.943 38.9355 335.5)" fill="#1C6C3E"/>
<rect x="91" y="404.68" width="14" height="4" transform="rotate(-28.5008 91 404.68)" fill="#1C6C3E"/>
<path d="M27 164C27 164 32.8447 342.312 71.4201 376.156C109.995 410 155 410 155 410" stroke="#1C6C3E" stroke-width="7" stroke-linecap="round"/>
</svg>
