<svg width="1440" height="927" viewBox="0 0 1440 927" fill="none" xmlns="http://www.w3.org/2000/svg">
<path d="M1456.5 995.496C1387.87 995.778 1319.25 996.154 1250.57 996.248C1131 996.436 1011.42 996.435 891.849 996.435C760.852 996.435 629.809 996.342 498.812 996.248C334.095 996.107 169.423 995.872 4.70622 995.684C1.46214 995.684 -1.73626 995.496 -4.98034 995.402C-9.00118 995.355 -10.6461 993.148 -10.509 989.109C-10.3262 981.548 -9.09256 974.175 -7.99597 966.708C-1.64487 923.08 15.7178 884.195 41.1679 849.02C47.9759 839.581 56.6116 831.785 65.1558 824.036C67.0292 822.346 69.4508 821.125 70.7302 817.884C64.5619 817.743 59.81 820.608 54.921 823.191C52.6364 824.412 50.4889 827.089 47.4276 824.741C46.1483 815.16 48.3871 805.815 49.301 796.422C53.5046 752.935 60.3126 709.824 66.9378 666.665C76.0761 606.835 86.3109 547.239 98.876 488.02C111.03 430.773 124.692 373.948 140.638 317.734C154.482 268.94 169.835 220.615 191.355 174.733C203.875 148.058 218.496 122.746 241.753 103.914C259.207 89.778 278.489 78.9296 298.776 70.0068C353.651 45.915 411.542 34.0335 470.346 25.909C499.452 21.8702 528.694 19.5221 557.891 17.174C569.268 16.2817 580.691 15.6712 592.114 15.2485C638.034 13.4639 683.953 12.102 729.919 12.7595C765.056 13.2761 800.146 14.591 835.283 16.4695C870.831 18.395 906.287 21.4006 941.561 26.1908C1005.16 34.7849 1067.44 48.5919 1126.15 76.4406C1165.08 94.9438 1195.01 122.84 1215.53 161.818C1231.79 192.767 1245.27 224.842 1256.92 257.857C1278.08 317.734 1296.4 378.55 1313.26 439.789C1329.11 497.412 1344.51 555.176 1358.72 613.269C1373.07 672.019 1387.78 730.628 1399.39 790.035C1401.17 799.146 1402.72 808.351 1404.23 817.508C1404.64 819.904 1405.28 822.299 1404.23 824.694C1401.17 827.793 1398.61 825.069 1396.19 823.661C1390.71 820.42 1385 817.931 1377.05 817.602C1380.2 819.763 1382.03 821.547 1384.08 823.097C1406.1 839.722 1421.41 862.17 1435.3 885.792C1452.85 915.613 1462.35 948.346 1467.83 982.535C1468.11 984.272 1468.47 986.01 1468.52 987.794C1468.7 994.134 1467.97 994.886 1461.67 994.98C1459.97 994.98 1458.19 994.557 1456.59 995.449L1456.5 995.496Z" fill="#CC4B44"/>
<path d="M1402.95 825.304C1401.12 806.848 1397.29 788.721 1393.49 770.64C1378.37 698.553 1360.55 627.17 1342.18 555.881C1323.04 481.586 1303.21 407.479 1280.09 334.359C1265.42 287.913 1250.71 241.42 1230.65 196.993C1217.08 167.031 1202.23 137.821 1178.56 114.48C1160.06 96.2119 1137.94 84.0017 1114.82 73.4821C1075.67 55.6364 1034.5 44.5063 992.599 36.4287C963.036 30.6993 933.2 26.8484 903.226 23.8428C856.895 19.2404 810.427 16.9863 763.914 15.5304C727.452 14.4033 690.99 14.7321 654.528 15.0138C629.535 15.2017 604.496 16.094 579.549 17.5968C555.058 19.0996 530.659 21.4477 506.214 23.7488C468.473 27.271 431.098 33.0944 394.134 41.4537C355.799 50.0948 318.652 62.2111 282.967 79.4933C240.245 100.251 211.551 133.735 192.178 177.128C165.266 237.428 146.761 300.64 129.901 364.462C115.234 420.065 102.714 476.232 91.7027 532.728C84.118 571.66 77.4014 610.78 71.5529 650.04C66.5725 683.431 61.1353 716.727 56.5204 750.164C53.5962 771.157 51.8599 792.29 49.5753 813.376C49.1641 817.321 48.6615 821.266 48.2046 825.21C47.8848 828.545 45.6916 830.799 43.6355 833.006C15.6267 862.827 -2.23862 898.613 -13.7528 937.873C-18.322 953.512 -20.4695 969.855 -21.3833 986.245C-21.5204 988.64 -21.0634 991.176 -23.0739 993.101C-43.772 992.538 -40.7107 989.016 -39.5227 972.156C-37.1925 938.061 -25.3584 906.784 -9.59492 877.01C-0.730804 860.338 10.0523 844.982 22.4804 830.893C23.4399 829.813 24.9934 829.061 24.8106 826.666C12.6568 825.117 0.274399 824.412 -11.7424 821.266C-34.0398 815.442 -54.5095 806.378 -70.273 788.157C-89.0521 766.46 -88.5038 731.614 -68.9936 710.575C-50.8542 690.992 -27.8714 682.961 -2.55846 680.096C14.2103 678.171 30.9333 677.513 47.5192 681.223C50.1236 681.787 50.3521 680.143 50.6262 678.312C54.5557 652.952 58.1196 627.451 62.5974 602.186C69.1312 565.508 75.9392 528.83 83.4326 492.34C93.5304 443.03 104.908 394.001 118.204 345.489C133.328 290.308 149.411 235.409 172.576 183.093C185.233 154.586 199.26 126.785 221.695 104.759C247.556 79.3524 278.58 62.8686 311.981 50.4705C347.574 37.274 384.127 28.1633 421.274 21.072C449.786 15.6713 478.434 11.9143 507.265 9.14352C591.657 1.06597 676.278 -1.51696 761.126 0.83116C788.495 1.58256 815.91 2.42788 843.234 4.30638C870.466 6.13792 897.652 8.76782 924.793 11.6795C973.408 16.8923 1021.29 25.6273 1068.03 40.0918C1103.03 50.9401 1136.71 65.1228 1167.23 86.4907C1194.6 105.651 1214.11 131.434 1230.1 160.644C1253.22 202.864 1268.85 248.323 1284.06 293.877C1304.94 356.384 1322.81 419.83 1339.94 483.512C1356.07 543.436 1371.47 603.548 1386.09 663.847C1386.73 666.383 1387.28 668.966 1387.83 671.549C1389.98 681.27 1389.93 680.519 1399.53 679.768C1435.44 677.044 1470.39 679.439 1500.69 702.967C1532.99 728.045 1533.08 773.927 1501.1 799.334C1479.99 816.1 1455.45 822.534 1429.64 825.304C1428.36 825.445 1427.03 825.398 1425.75 825.492C1425.57 825.492 1425.43 825.633 1424.7 826.009C1435.8 837.562 1445.4 850.148 1454.17 863.391C1474.69 894.339 1488.94 928.105 1496.48 964.783C1497.62 970.371 1498.22 976.101 1499.04 981.783C1500.18 989.485 1497.26 993.007 1489.72 993.148C1487.39 993.148 1484.97 992.303 1482.87 994.087C1480.54 992.773 1480.95 990.284 1480.67 988.217C1473.45 933.083 1451.48 884.806 1416.75 842.399C1413.69 838.642 1410.13 835.448 1406.88 831.879C1405.19 830.001 1402.82 828.404 1403.04 825.304H1402.95Z" fill="#C23234"/>
<path d="M1402.95 825.305C1433.47 856.253 1455.91 892.508 1469.89 934.117C1476.42 953.559 1480.72 973.612 1482.78 994.088C1474.05 995.215 1465.28 996.06 1456.46 995.45C1459.29 992.444 1465.28 997.281 1466.74 991.458C1467.74 987.56 1466.14 983.568 1465.5 979.67C1456.55 924.02 1434.21 875.132 1395.05 835.026C1388.61 828.404 1381.07 822.91 1373.3 816.288C1382.39 814.832 1389.38 817.791 1396.14 821.735C1398.38 823.05 1400.26 825.023 1403 825.305H1402.95Z" fill="#CC4B44"/>
<path d="M-23.1656 993.148C-22.2061 937.686 -2.23895 889.502 29.9734 845.968C35.4564 838.548 41.7618 831.879 48.1129 825.257C56.3373 820.655 63.9678 814.315 74.6595 816.241C74.0656 819.34 71.5068 820.89 69.4964 822.487C40.985 845.404 23.531 876.212 9.27527 909.555C-0.822512 933.271 -5.52872 958.302 -8.54434 983.709C-9.00126 987.654 -11.3315 993.148 -5.02612 995.309C-11.0574 994.369 -17.3171 995.309 -23.2113 993.101L-23.1656 993.148Z" fill="#CC4B44"/>
<path d="M119.392 834.556C101.481 823.426 98.3283 805.862 100.339 786.654C102.258 767.822 105.319 749.084 107.558 730.299C110.025 709.495 113.178 688.831 116.331 668.168C121.174 636.374 126.794 604.722 132.368 573.069C138.262 539.678 144.431 506.288 151.193 473.086C161.245 424.057 172.028 375.216 185.553 327.079C195.468 291.764 206.251 256.73 222.883 223.997C251.897 166.937 297.725 131.669 357.672 114.621C390.204 105.37 423.331 98.9357 456.594 93.535C476.058 90.3416 495.797 88.651 515.399 86.4907C536.508 84.1895 557.663 82.0762 578.818 80.0568C587.591 79.2115 596.409 79.5872 605.274 78.7888C619.849 77.5208 634.562 77.9905 649.183 77.0512C684.32 74.797 719.502 75.6423 754.639 76.065C784.978 76.4407 815.317 77.9905 845.564 80.0568C872.751 81.9353 899.937 84.5652 926.986 87.9935C974.322 94.0047 1021.38 101.894 1066.62 118.284C1092.48 127.677 1117.38 138.76 1139.36 156.23C1159.05 171.868 1173.67 191.499 1185.78 213.336C1208.26 253.818 1221.38 298.151 1234.72 342.295C1250.16 393.578 1263.55 445.425 1276.34 497.459C1285.48 534.466 1294.89 571.425 1303.53 608.572C1315.55 660.278 1326.92 712.172 1338.57 763.971C1341.09 775.148 1345.06 785.903 1346.62 797.362C1348.03 807.834 1345.66 816.945 1339.99 825.445C1333.64 829.249 1326.97 830.94 1319.52 829.86C1315.23 829.202 1311.43 831.644 1308.01 833.711C1298.14 839.628 1287.08 840.379 1276.25 841.694C1250.07 844.841 1223.71 845.122 1197.39 844.465C1189.53 849.302 1180.89 842.915 1172.58 846.578C1168.15 848.504 1162.16 848.128 1156.86 845.31C1158.37 842.727 1160.19 843.667 1161.66 843.854C1126.25 844.747 1090.79 844.559 1055.33 844.606C1050.58 844.606 1045.83 844.418 1041.31 846.344C1039.71 847.048 1037.83 847.283 1036.19 846.625C1028.24 843.526 1019.97 844.653 1011.84 844.653C971.672 844.559 931.51 844.324 891.347 844.747C876.497 844.935 861.693 844.512 846.889 844.606C842.137 844.606 837.385 844.324 832.816 846.25C831.811 846.672 830.669 846.86 829.618 846.672C807.778 842.352 785.709 845.639 763.777 844.653C760.533 844.512 757.289 844.747 754.09 844.371C753.268 844.277 751.897 843.714 751.623 844.183C748.424 849.537 743.353 847.471 739.56 846.578C728.594 843.901 717.903 843.714 707.028 846.719C700.677 848.457 694.143 846.813 687.746 846.719C675.044 846.484 662.342 848.551 649.777 846.954C639.131 845.592 628.53 844.841 617.839 844.653C613.315 844.559 608.883 845.076 604.405 846.297C599.973 847.518 595.084 848.786 591.018 844.7C590.698 844.371 590.424 844.183 589.921 844.23C578.59 845.733 567.03 842.868 555.79 846.015C554.556 846.343 553.322 846.954 551.997 846.813C528.832 844.277 505.758 848.363 482.592 847.377C466.555 846.672 450.654 845.029 434.434 842.915C436.49 843.948 438.729 842.493 440.739 844.465C439.323 847.283 436.673 847.189 434.342 847.095C413.873 846.156 393.449 847.705 372.979 846.719C362.744 846.203 352.326 847.001 341.954 847.142C337.203 847.236 332.451 847.283 327.927 845.31C326.556 844.7 324.912 844.418 323.449 844.7C311.661 847.377 300.101 844.606 288.496 843.009C287.627 843.103 288.496 844.371 288.313 843.526C290.232 843.103 292.105 843.103 294.298 843.995C293.156 847.236 290.369 847.33 288.039 847.001C278.9 845.686 269.534 848.739 260.487 845.076C257.334 843.807 253.633 844.559 250.206 844.606C226.447 844.794 202.733 844.465 179.202 840.661C170.886 839.299 162.57 837.749 154.757 834.415C153.249 833.758 151.422 832.536 150.279 834.885C148.68 838.172 146.761 841.741 143.014 841.647C138.765 841.553 134.15 840.379 131.089 837.186C127.479 833.429 123.733 833.288 119.346 834.603L119.392 834.556Z" fill="#BC2226"/>
<path d="M119.392 834.556C123.505 830.47 127.023 827.699 131.226 835.073C133.739 839.487 143.243 840.473 146.213 838.078C148.818 836.012 149.731 833.711 146.305 829.39C195.24 848.457 244.724 838.923 292.7 846.25C292.745 845.592 292.837 844.935 292.882 844.324C289.867 844.089 286.897 843.808 283.881 843.573C292.745 843.948 301.838 840.004 310.336 845.076C313.398 846.907 314.312 842.258 316.87 842.633C321.851 843.338 327.151 840.943 331.857 844.747C332.954 845.639 335.193 845.357 336.883 845.216C348.58 844.23 360.551 844.042 371.974 844.324C386.001 844.7 400.166 844.888 414.238 845.029C422.463 845.123 430.779 845.686 439.14 844.324C436.627 844.089 434.114 843.855 431.601 843.62C439.963 844.23 448.644 839.534 456.64 845.123C456.96 845.357 457.508 845.263 457.919 845.216C469.525 843.901 481.131 845.78 492.782 845.357C504.844 844.935 516.953 845.263 529.061 845.263C530.797 845.263 532.305 844.888 533.95 844.042C538.519 841.694 543.454 841.647 548.068 844.042C549.713 844.888 551.541 845.827 552.912 845.169C563.238 839.957 574.615 841.459 584.713 843.244C598.466 845.686 611.488 841.976 624.875 842.446C637.943 842.915 650.828 846.015 663.987 845.357C673.308 844.888 682.675 843.432 691.859 843.901C696.519 844.136 702.094 846.625 706.115 844.841C714.796 841.037 723.477 843.244 732.113 842.727C737.322 842.446 742.348 847.518 747.557 845.076C758.842 839.816 770.448 843.385 781.871 842.774C794.573 842.023 807.321 842.587 820.069 842.633C822.582 842.633 825.232 842.117 827.334 844.418C828.43 845.639 830.167 845.451 831.629 844.982C844.559 840.52 857.673 842.305 870.74 843.995C873.802 844.371 876.086 842.446 879.148 842.446C928.814 842.68 978.481 842.587 1028.1 842.587C1030.48 842.587 1032.76 842.493 1034.73 844.418C1036.05 845.733 1038.43 845.827 1039.62 844.935C1044.92 841.131 1050.86 842.68 1056.48 842.633C1090.79 842.493 1125.15 842.587 1159.46 842.587C1161.61 842.587 1163.76 842.587 1166.73 842.587C1163.71 844.982 1160.7 842.821 1157.13 845.498C1164.63 844.371 1170.98 847.142 1176.92 842.915C1177.97 842.164 1180.07 842.164 1181.35 842.633C1191.22 846.531 1200.95 841.506 1210.87 842.352C1221.38 843.244 1232.07 843.291 1242.58 842.352C1258.8 840.943 1275.06 840.238 1291.19 837.468C1298.09 836.294 1303.85 833.1 1309.83 830.329C1314.36 828.216 1318.84 826.572 1323.36 828.028C1329.57 830.048 1334.05 823.895 1339.9 825.351C1330.26 836.857 1317.56 841.835 1303.35 843.948C1281.55 847.189 1259.57 846.437 1237.64 846.719C1235.36 846.719 1232.84 846.015 1230.79 847.799C1228.55 849.114 1226.13 848.457 1223.8 848.457C898.11 848.457 572.468 848.457 246.78 848.457C244.45 848.457 242.028 849.114 239.835 847.799C237.779 846.062 235.311 846.766 232.981 846.766C215.755 846.625 198.53 846.531 181.35 846.438C177.055 844.888 172.531 846.813 168.236 845.357C153.935 845.545 139.816 844.371 126.383 838.736C123.779 837.656 121.494 836.153 119.21 834.556H119.392Z" fill="#B32124"/>
<path d="M239.971 847.846C570.273 847.846 900.576 847.846 1230.92 847.846C1236.5 847.846 1242.07 847.846 1247.65 847.846C1247.65 848.175 1247.65 848.504 1247.65 848.832H214.292C214.292 848.504 214.292 848.175 214.292 847.799H240.016L239.971 847.846Z" fill="#F15E54"/>
<path d="M168.419 845.404C172.805 845.733 177.329 844.09 181.532 846.485C177.146 846.156 172.668 847.612 168.419 845.404Z" fill="#BC2226"/>
<path d="M35.2743 789.472C35.0915 793.417 34.3604 797.315 33.9035 801.213C32.7612 810.605 32.9897 810.934 23.6687 810.417C-2.51246 809.055 -27.3685 803.608 -48.8892 786.748C-74.9332 766.366 -74.4763 730.581 -47.6098 711.514C-32.8058 701.042 -16.0371 696.439 1.50838 695.124C15.6727 694.091 29.9284 693.856 44.0927 696.017C46.9712 696.439 48.0678 696.862 47.4738 700.431C43.8185 722.41 40.8943 744.482 38.7925 766.648C38.564 768.855 37.9701 770.969 37.5131 773.129C15.9925 772.237 -5.52809 771.767 -26.5004 765.756C-34.9076 763.314 -42.9036 760.214 -49.6202 754.391C-52.6815 751.714 -55.7886 748.99 -55.6058 744.623C-55.5144 767.4 -42.8122 780.925 -23.0736 788.908C-8.26957 794.92 7.31117 796.939 23.0747 798.16C28.1464 798.536 31.4362 797.127 32.1673 791.444C32.35 790.036 32.5328 787.734 35.1372 788.298C35.2286 788.298 35.32 788.627 35.32 788.815C35.32 789.049 35.2743 789.237 35.2286 789.472H35.2743Z" fill="#CC4B44"/>
<path d="M1410.04 770.734C1404.92 747.488 1399.75 724.288 1394.64 701.042C1393.95 697.989 1394.55 695.594 1398.02 695.312C1428.22 692.729 1458.19 693.34 1484.83 710.575C1515.81 730.675 1516.18 767.588 1486.39 789.472C1468.34 802.716 1447.91 808.868 1426.07 810.417C1416.93 811.075 1416.89 810.84 1416.34 801.307C1415.29 796.188 1419.54 797.409 1421.64 797.221C1428.91 796.61 1436.26 796.892 1443.53 795.343C1457.19 792.478 1470.21 788.157 1481.36 779.093C1491.59 770.781 1497.76 760.496 1496.25 747.206C1494.79 751.104 1491.27 753.781 1487.3 756.317C1472.13 765.803 1455.32 769.137 1438.04 771.063C1431.19 771.814 1424.38 772.988 1417.44 772.519C1414.88 772.331 1412.18 772.8 1410.08 770.734H1410.04Z" fill="#CC4B44"/>
<path d="M35.2744 789.472C34.6347 788.955 34.0864 789.096 33.9036 789.895C31.7561 800.461 31.7104 800.649 21.2928 799.945C5.62068 798.817 -9.96006 796.563 -24.5813 790.411C-39.9336 783.93 -52.0875 774.021 -56.1997 756.269C-57.5704 750.399 -56.5195 744.623 -56.1997 738.471C-55.0117 746.501 -51.1736 752.137 -44.5484 756.269C-38.7456 759.886 -32.6229 762.234 -26.1805 763.971C-7.81256 768.996 10.9209 771.11 29.9285 770.687C32.7156 770.64 35.5942 770.264 37.4675 773.176C37.4675 778.718 36.5994 784.118 35.183 789.472H35.2744Z" fill="#C23234"/>
<path d="M1410.04 770.734C1432.47 770.734 1454.68 768.949 1475.74 760.214C1480.49 758.242 1485.01 755.565 1489.49 752.982C1493.92 750.446 1495.39 745.891 1496.57 741.101C1498.95 751.526 1498.77 761.764 1492.23 770.405C1482.64 783.038 1469.48 790.505 1454.54 794.591C1444.58 797.315 1434.48 799.334 1424.02 798.724C1421.23 798.583 1418.17 798.113 1416.29 801.26C1413.19 791.303 1411.68 780.972 1409.99 770.687L1410.04 770.734Z" fill="#C23234"/>
<path d="M1323.04 818.636C1316.55 825.492 1308.65 829.719 1299.74 832.208C1297.27 828.733 1296.58 825.022 1298.27 820.937C1299.87 817.133 1298.09 815.583 1294.53 815.301C1294.12 815.301 1293.66 815.254 1293.25 815.301C1277.94 816.147 1262.68 813.799 1247.37 813.939C1207.26 814.315 1167.14 812.812 1127.02 812.155C1101.16 811.732 1075.25 812.577 1049.39 811.122C1009.28 808.867 969.159 810.887 929.042 809.901C811.204 806.989 693.366 808.867 575.528 808.961C538.244 808.961 500.868 808.68 463.584 810.276C430.55 811.685 397.56 809.901 364.571 811.45C328.11 813.188 291.602 811.216 255.232 812.906C231.29 814.033 207.347 813.423 183.451 813.845C178.333 813.939 173.262 816.522 168.099 814.409C167.596 814.221 167.413 813.892 167.276 813.939C167.322 814.127 167.413 814.362 167.505 814.55C166.911 818.448 163.392 817.18 161.245 818.307C160.879 818.542 160.331 818.964 160.422 819.199C163.347 825.821 159.6 828.216 154.254 829.625C142.557 825.398 133.876 817.555 128.21 806.237C127.113 804.077 125.834 802.058 124.646 799.992C119.529 790.787 120.534 780.69 120.899 770.828C122.179 736.076 127.205 701.746 131.911 667.416C135.978 637.454 140.958 607.539 146.258 577.765C150.873 551.889 155.214 526.012 160.194 500.183C165.631 472.006 171.068 443.828 177.237 415.792C187.426 369.58 199.169 323.792 213.561 278.802C217.399 266.873 221.146 254.851 226.995 243.721C233.072 232.403 237.961 220.381 244.769 209.438C259.892 185.159 278.489 164.448 302.568 149.326C303.802 148.528 304.944 147.495 306.086 146.556C314.311 139.981 323.906 135.942 333.364 131.856C367.587 117.157 403.729 110.16 440.099 103.914C464.27 99.734 488.532 96.2119 512.931 93.6289C540.117 90.7642 567.304 88.4161 594.536 86.5376C641.872 83.2502 689.208 82.0762 736.636 82.5927C769.168 82.9684 801.609 84.6591 834.095 86.3967C872.796 88.51 911.314 92.4549 949.649 98.1843C994.609 104.853 1039.16 113.87 1081.33 132.185C1088.18 135.191 1095.54 137.445 1101.44 142.517C1112.49 149.655 1123.87 156.183 1134.06 164.683C1153.11 180.51 1166.77 200.609 1177.97 222.682C1179.52 225.781 1181.35 228.74 1183.04 231.793C1191.04 245.787 1196.43 261.003 1201.77 276.172C1218.63 324.215 1232.16 373.337 1245.09 422.601C1257.24 468.906 1268.85 515.399 1280.13 561.939C1293.34 616.415 1305.81 671.033 1317.24 725.932C1322.03 749.037 1327.42 772.096 1329.85 795.671C1330.76 804.359 1329.94 812.437 1323.13 818.729L1323.04 818.636Z" fill="#322F2E"/>
<path d="M154.254 829.578C154.757 828.874 155.122 827.7 155.762 827.512C160.468 826.103 162.068 824.084 157.864 819.951C156.493 818.636 157.727 817.65 159.235 817.321C188.614 826.338 218.862 825.211 249.018 826.15C270.767 826.807 292.562 826.901 314.311 827.324C316.687 827.418 319.063 827.418 321.439 827.418C596.501 827.418 871.517 827.418 1146.58 827.418C1148.54 827.418 1150.46 827.418 1152.38 827.371C1180.62 827.981 1208.86 825.586 1237.14 825.774C1252.17 825.868 1267.29 824.224 1282.19 821.782C1285.94 821.172 1289.59 820.327 1294.21 818.589C1277.3 815.02 1261.26 817.884 1245.45 816.1C1238.83 814.362 1232.11 815.302 1225.44 815.395C1210.64 815.161 1195.79 816.1 1180.98 814.879C1172.99 812.906 1164.9 814.081 1156.86 814.081C1136.48 813.846 1116.06 814.832 1095.68 813.611C1089.33 811.779 1082.84 812.672 1076.4 812.766C1053.37 812.484 1030.34 813.517 1007.36 812.249C996.757 810.183 986.11 811.451 975.464 811.451C932.423 811.545 889.382 811.498 846.386 811.451C843.782 811.451 841.223 811.404 838.665 810.887C835.558 809.854 832.314 809.854 829.069 809.854C762.863 809.854 696.61 809.854 630.404 809.854C627.16 809.854 623.915 809.76 620.808 810.887C616.559 811.685 612.218 811.498 607.923 811.498C575.254 811.498 542.539 811.592 509.87 811.498C499.635 811.404 489.4 810.277 479.211 812.249C461.574 813.517 443.937 812.578 426.3 812.813C418.35 812.906 410.4 812.906 402.404 812.813C395.55 812.625 388.651 811.779 381.843 813.611C364.252 814.832 346.66 813.893 329.069 814.174C321.119 814.268 313.169 814.268 305.218 814.174C298.319 813.987 291.42 813.141 284.612 814.973C269.305 816.147 253.998 815.583 238.692 815.442C218.222 815.302 197.798 817.838 177.283 816.851C173.902 816.71 170.292 817.509 167.413 814.785H162.433C169.926 814.221 177.237 812.014 184.73 812.061C203.098 812.061 221.466 812.953 239.788 811.873C275.793 809.76 311.844 812.296 347.803 810.417C375.857 809.009 403.866 810.417 431.875 809.29C471.535 807.741 511.241 808.774 550.901 807.881C672.531 805.205 794.207 806.754 915.837 807.13C955.726 807.271 995.66 806.426 1035.5 808.304C1062.23 809.572 1089.01 807.835 1115.65 809.572C1141.32 811.263 1167 809.149 1192.54 810.887C1214.98 812.437 1237.41 810.746 1259.76 812.249C1271.41 813.047 1282.97 813.047 1294.57 813.329C1301.79 813.517 1303.12 815.536 1299.64 821.923C1298.55 823.943 1298.14 825.586 1299.74 827.277C1301.33 828.968 1300.28 830.564 1299.74 832.161C1290.32 835.871 1280.41 836.998 1270.58 838.501C1259.57 840.145 1248.52 839.534 1237.46 840.192C1230.88 841.366 1224.21 839.722 1217.63 841.084C1150.92 841.084 1084.21 841.178 1017.5 841.178C762.543 841.178 507.585 841.084 252.673 841.084C247.282 841.084 241.89 841.084 236.499 841.084C231.655 839.769 226.629 841.319 221.786 840.192C204.195 839.769 186.649 838.642 169.378 834.603C164.169 833.382 159.189 831.504 154.209 829.578H154.254Z" fill="#2F2A27"/>
<path d="M1101.44 142.423C1073.66 128.24 1044.46 118.425 1014.21 111.475C983.643 104.43 952.802 99.2646 921.64 95.5076C897.515 92.5959 873.299 90.2478 849.128 88.0405C833.913 86.6317 818.606 85.9742 803.3 85.3167C754.775 83.2034 706.206 82.7808 657.681 84.1896C625.195 85.1289 592.708 87.0543 560.267 90.0599C533.492 92.5489 506.672 94.5683 480.079 98.5601C431.327 105.933 382.391 112.743 336.106 131.575C325.734 135.801 315.956 141.296 306.041 146.509C304.442 143.174 307.823 143.55 308.965 142.893C337.431 126.55 368.227 117.063 399.982 110.489C420.772 106.215 441.561 101.941 462.534 98.9358C477.977 96.7286 493.467 94.2396 509.093 92.9716C534.909 90.8583 560.679 87.8057 586.494 85.3167C594.81 84.5184 603.217 84.8001 611.625 84.0957C626.84 82.7807 642.192 83.2504 657.407 82.405C686.924 80.7144 716.44 80.9022 745.957 81.2779C770.036 81.6067 794.116 82.6868 818.195 83.9079C836.197 84.8001 854.2 85.9272 872.111 87.9466C896.784 90.7174 921.549 93.0186 946.131 96.7286C966.692 99.8281 987.207 103.303 1007.49 107.859C1038.79 114.903 1069.45 124.249 1098.33 138.901C1099.52 139.511 1102.81 139.136 1101.44 142.47V142.423Z" fill="#E42226"/>
<path d="M1323.04 818.636C1331.03 808.633 1329.53 797.221 1327.7 785.762C1322.12 750.587 1314.13 715.882 1306.68 681.083C1291.24 609.136 1273.83 537.659 1255.6 466.464C1239.33 402.924 1222.79 339.478 1201.36 277.487C1195.97 261.896 1189.25 246.914 1182.99 231.746C1187.47 234.422 1188.29 239.541 1190.12 243.768C1205.25 278.99 1216.35 315.715 1226.77 352.58C1239.33 397.007 1251.49 441.574 1262.77 486.329C1275.7 537.706 1287.63 589.318 1299.6 640.93C1307.73 676.011 1315.5 711.233 1322.63 746.548C1326.33 764.817 1330.76 783.038 1330.9 801.917C1330.9 807.928 1328.84 813.141 1325.6 817.931C1325.09 818.683 1324.32 819.951 1323.08 818.589L1323.04 818.636Z" fill="#E52226"/>
<path d="M226.994 243.674C211.002 284.86 199.442 327.455 188.796 370.285C177.419 416.121 167.824 462.426 159.462 508.918C153.979 539.444 148.085 569.876 143.151 600.495C138.216 631.115 133.236 661.781 129.535 692.589C126.153 720.907 122.178 749.085 121.858 777.685C121.767 785.246 122.315 792.666 124.646 799.898C118.889 795.296 119.757 788.11 119.757 782.334C119.757 765.615 120.853 748.85 123.001 732.225C125.468 713.017 127.296 693.716 129.854 674.555C132.139 657.555 134.835 640.601 137.668 623.695C141.78 598.758 146.349 573.914 150.37 548.93C154.436 523.946 159.737 499.244 164.26 474.354C171.022 437.535 179.155 401.046 188.157 364.791C197.569 326.939 207.895 289.322 221.603 252.832C222.836 249.592 224.435 246.492 225.898 243.299C225.943 243.205 226.309 243.158 226.492 243.205C226.674 243.252 226.811 243.486 226.994 243.627V243.674Z" fill="#CC4B44"/>
<path d="M1217.63 841.084C1224.16 839.158 1230.83 840.426 1237.46 840.192C1230.92 842.446 1224.25 840.849 1217.63 841.084Z" fill="#B32124"/>
<path d="M221.786 840.192C226.72 840.192 231.655 839.534 236.498 841.084C231.609 840.943 226.583 842.352 221.786 840.192Z" fill="#B32124"/>
<path d="M-0.228321 702.732C3.56406 702.967 10.2807 701.182 11.56 708.086C12.8394 714.989 6.57968 717.948 1.46225 719.967C-6.21389 722.973 -14.3013 724.241 -22.48 721.611C-25.2672 720.719 -27.8716 719.686 -28.3285 716.257C-28.8311 712.641 -26.5922 710.246 -24.1249 708.556C-17.2712 703.953 -9.54935 702.404 -0.228321 702.685V702.732Z" fill="#CC4B44"/>
<path d="M1442.02 702.404C1449.92 702.357 1457.19 704.611 1463.9 708.791C1466.6 710.481 1468.66 712.736 1468.15 716.305C1467.65 719.639 1465.09 720.766 1462.26 721.564C1452.89 724.288 1443.98 722.504 1435.58 718.183C1431.69 716.164 1427.4 713.487 1428.9 707.617C1430.41 701.84 1435.26 702.78 1439.41 702.404C1440.28 702.31 1441.15 702.404 1441.97 702.404H1442.02Z" fill="#CC4B44"/>
<path d="M177.648 778.765C169.789 769.184 167.961 757.397 167.505 745.609C166.362 716.164 169.378 686.859 172.211 657.601C174.313 635.905 176.46 614.161 179.202 592.558C182.994 562.69 186.969 532.822 191.584 503.095C196.016 474.495 200.722 445.989 206.342 417.623C217.582 360.846 230.787 304.585 250.389 250.108C268.163 200.751 301.197 167.642 349.265 149.749C380.015 138.29 411.679 131.011 443.754 125C470.347 120.022 497.122 116.735 523.897 113.494C541.168 111.428 558.577 110.442 575.939 109.127C598.054 107.436 620.169 105.605 642.283 104.384C661.017 103.397 679.75 103.209 698.529 102.693C702.23 104.853 706.114 103.069 709.906 103.162C739.194 104.055 768.483 103.491 797.771 105.417C814.494 106.544 831.263 107.812 848.031 108.516C858.54 108.939 869.049 110.254 879.513 111.428C900.211 113.729 920.955 115.701 941.561 119.036C968.702 123.45 995.751 128.287 1022.3 135.52C1023.67 135.895 1026.23 135.661 1026.32 137.962C1026.41 140.451 1024.26 141.719 1022.53 142.987C999.589 159.611 977.475 177.41 955.315 195.068C887.965 248.793 819.611 301.203 751.622 354.083C720.644 378.175 689.391 401.891 658.367 425.936C619.757 455.851 581.057 485.672 542.402 515.54C508.088 542.074 473.728 568.561 439.414 595.188C381.203 640.366 322.992 685.591 264.873 730.91C241.844 748.85 218.45 766.367 196.107 785.246C191.767 788.909 188.203 788.674 184.273 784.917C182.08 782.803 180.344 780.127 177.511 778.812L177.648 778.765Z" fill="#DEF5FF"/>
<path d="M1162.48 235.456C1175.27 259.501 1183.77 285.377 1192 311.253C1213.7 379.302 1231.66 448.431 1247.92 518.076C1259.85 569.077 1271.64 620.125 1282.33 671.455C1287.17 694.843 1292.33 718.183 1293.48 742.275C1294.48 762.985 1288.31 779.281 1269.72 789.284C1257.38 796.235 1243.85 798.113 1230.19 799.334C1217.81 800.461 1205.34 799.945 1192.95 800.039C1180.57 800.039 1168.19 800.039 1155.76 800.039C1119.35 800.555 1082.98 799.1 1046.56 799.334C1037.15 797.972 1027.69 799.053 1018.23 798.724C986.156 799.193 954.081 797.784 921.96 797.972C907.841 796.657 893.722 797.737 879.604 797.362C768.939 797.362 658.275 797.362 547.611 797.362C536.919 797.315 526.273 797.456 515.581 797.268C509.595 795.202 513.296 792.196 515.17 789.989C520.79 783.226 527.644 777.685 534.223 772.002C544.092 763.361 553.185 753.875 562.552 744.717C587.179 720.813 611.944 697.097 637.257 673.944C667.87 645.955 698.94 618.482 730.102 591.15C791.465 537.237 854.062 484.921 916.797 432.745C968.154 390.056 1019.78 347.743 1071.51 305.571C1098.88 283.217 1126.25 260.863 1153.8 238.743C1156.36 236.677 1158.78 234.329 1162.43 235.503L1162.48 235.456Z" fill="#DEF5FF"/>
<path d="M1162.48 235.456C1152.88 239.635 1145.71 247.29 1137.71 253.771C1099.29 284.86 1061.14 316.278 1022.85 347.602C989.446 374.934 955.909 402.079 922.646 429.552C898.383 449.558 874.487 470.033 850.408 490.274C827.014 509.951 803.437 529.441 780.226 549.353C764.234 563.019 748.653 577.249 732.798 591.149C713.197 608.338 693.412 625.291 673.948 642.573C660.926 654.126 648.224 666.055 635.476 677.889C610.711 700.854 586.083 723.959 562.095 747.722C547.566 762.14 532.305 775.806 517.409 789.848C515.582 791.585 513.206 793.135 513.251 796.235C513.571 797.268 513.206 797.831 512.155 797.972C486.705 798.16 461.255 797.69 435.805 798.724C424.29 799.099 412.73 797.972 401.262 799.334C366.125 798.958 330.989 800.179 295.852 800.086C281.231 800.086 266.61 800.086 251.988 800.086C236.773 799.052 221.284 800.743 206.388 796C195.194 793.135 184.594 789.237 177.649 778.859C181.487 778.53 182.492 782.287 184.776 784.165C188.158 787.03 190.945 787.687 194.737 784.541C240.794 746.595 288.359 710.716 335.558 674.226C385.27 635.764 434.799 597.02 484.466 558.511C540.164 515.352 595.953 472.334 651.742 429.317C679.385 407.996 707.028 386.722 734.672 365.401C766.244 341.027 797.817 316.607 829.298 292.139C859.911 268.329 890.616 244.566 921.001 220.428C955.269 193.142 989.401 165.669 1024.58 139.558C1024.9 139.323 1025.13 138.854 1025.77 138.055C1020.88 135.05 1015.35 134.533 1010.19 133.312C983.461 126.925 956.457 122.135 929.271 118.331C904.826 114.903 880.336 112.461 855.799 110.442C835.238 108.751 814.677 107.53 794.116 106.215C774.926 104.947 755.735 106.215 736.636 104.994C725.442 104.289 714.385 103.115 703.236 105.088C701.454 105.417 699.169 105.698 698.667 102.787C718.954 102.787 739.241 102.787 759.573 102.787C763.96 103.961 768.575 102.364 772.961 103.726C789.593 103.726 806.178 105.37 822.764 106.262C832.085 106.731 841.452 107.389 850.773 108.093C870.512 109.596 890.25 111.85 909.943 114.245C925.433 116.124 940.831 118.613 956.229 120.867C979.394 124.248 1002.15 129.602 1024.86 135.144C1056.89 143.033 1087.68 154.023 1114.87 173.606C1133.83 187.272 1147.77 205.681 1158.5 226.674C1159.97 229.538 1162.11 232.121 1162.57 235.503L1162.48 235.456Z" fill="#F0FBFF"/>
<path d="M401.992 810.746C427.899 810.605 453.761 810.511 479.668 810.37C489.583 809.149 499.635 810.981 509.55 809.384C546.651 809.243 583.798 809.149 620.9 809.008C622.362 808.492 623.869 808.633 625.377 808.633C694.874 808.633 764.37 808.633 833.867 808.633C835.375 808.633 836.882 808.445 838.345 808.961C884.082 809.102 929.864 809.196 975.601 809.337C985.973 810.934 996.391 809.102 1006.76 810.276C1030.07 810.417 1053.37 810.558 1076.67 810.652C1082.7 812.202 1088.87 810.417 1094.9 811.638C1115.6 811.779 1136.3 811.873 1157.04 812.014C1164.81 813.564 1172.67 811.779 1180.44 813C1195.51 813.141 1210.64 813.235 1225.72 813.376C1232.16 814.926 1238.74 813.141 1245.23 814.362C1261.54 814.832 1277.9 814.033 1294.16 815.912C1295.9 816.1 1298.68 814.738 1299.05 817.415C1299.37 819.622 1296.63 820.279 1294.89 820.89C1283.38 824.647 1271.32 825.398 1259.39 826.572C1239.47 828.592 1219.41 827.324 1199.44 828.263C1183.95 829.014 1168.51 829.296 1153.02 828.967C1150.69 828.122 1148.31 828.545 1145.94 828.545C870.968 828.545 595.952 828.545 320.982 828.545C318.651 828.545 316.23 828.122 313.9 828.967C279.905 830.188 245.957 828.075 212.008 827.465C195.879 827.183 179.384 826.525 163.849 820.279C162.022 819.528 160.103 819.293 159.143 817.227C161.245 814.268 165.083 817.039 167.367 814.597C206.662 814.033 245.957 813.47 285.251 812.906C291.694 811.732 298.319 813.47 304.761 811.967C330.668 811.826 356.53 811.732 382.437 811.591C388.879 810.417 395.504 812.155 401.947 810.605L401.992 810.746Z" fill="#5E5B58"/>
<path d="M295.578 798.912C330.852 798.771 366.08 798.63 401.353 798.489C410.4 797.503 419.447 798.348 428.494 798.019C430.824 797.925 433.246 798.442 435.53 797.597C461.3 797.456 487.025 797.268 512.794 797.127C524.172 795.906 535.594 797.55 546.972 796.282C562.918 796.188 578.864 796.094 594.81 796.094C687.701 796.094 780.591 796.094 873.527 796.094C875.675 796.094 877.822 796.235 879.97 796.282C891.347 797.315 902.77 796.423 914.193 796.751C916.751 796.798 919.356 796.329 921.915 797.174C954.173 797.315 986.385 797.503 1018.64 797.644C1027.83 798.912 1037.06 797.221 1046.24 798.536C1082.84 798.677 1119.39 798.818 1155.99 798.959C1168.51 799.71 1181.03 799.663 1193.55 798.959C1201.04 798.865 1208.54 798.583 1216.03 798.771C1234.58 799.287 1252.45 795.953 1269.76 789.237C1267.57 792.102 1267.57 792.196 1264.46 793.229C1252.99 797.033 1241.34 799.428 1229.19 800.133C1185.87 802.669 1142.47 801.917 1099.2 800.884C1056.29 799.851 1013.39 800.743 970.484 799.945C800.421 796.892 630.404 798.912 460.341 799.052C420.909 799.052 381.386 798.395 342 800.274C310.291 801.776 278.626 801.166 246.962 801.025C233.346 800.978 219.502 800.414 206.023 797.315C205.657 797.221 205.383 797.033 205.018 796.892C205.475 796.563 205.932 796.235 206.434 795.953C221.375 799.099 236.499 798.63 251.623 798.912C266.29 799.71 281.002 799.663 295.669 798.912H295.578Z" fill="#0C0B0A"/>
<path d="M772.823 103.679C768.345 103.679 763.776 104.9 759.436 102.74C763.913 102.74 768.437 102.082 772.823 103.679Z" fill="#C8E9F7"/>
<path d="M313.945 829.061C316.001 827.183 318.469 828.028 320.753 828.028C595.906 827.981 871.059 827.981 1146.21 828.028C1148.5 828.028 1150.96 827.136 1153.02 829.061C1053.96 829.108 954.903 829.249 855.844 829.249C678.014 829.249 500.183 829.249 322.352 829.249C319.565 829.249 316.732 829.155 313.945 829.108V829.061Z" fill="#7B7675"/>
<path d="M838.344 809.008C779.859 809.055 721.42 809.102 662.935 809.149C648.908 809.149 634.881 809.055 620.853 809.008C622.909 807.224 625.422 807.975 627.707 807.975C695.65 807.975 763.547 807.975 831.49 807.975C833.775 807.975 836.242 807.177 838.344 808.961V809.008Z" fill="#322F2E"/>
<path d="M1006.81 810.37C996.436 810.042 985.973 811.732 975.647 809.431C986.019 809.854 996.482 808.069 1006.81 810.37Z" fill="#322F2E"/>
<path d="M509.55 809.431C499.635 811.638 489.628 810.135 479.667 810.417C489.582 808.116 499.589 809.854 509.55 809.431Z" fill="#322F2E"/>
<path d="M1180.44 813.047C1172.62 812.812 1164.76 814.268 1157.04 812.061C1164.81 812.484 1172.71 810.699 1180.44 813.047Z" fill="#322F2E"/>
<path d="M401.992 810.746C395.596 812.953 388.97 811.451 382.482 811.732C388.879 809.478 395.504 811.169 401.992 810.746Z" fill="#322F2E"/>
<path d="M304.807 812.061C298.41 814.315 291.784 812.719 285.296 813C291.693 810.746 298.318 812.437 304.807 812.061Z" fill="#322F2E"/>
<path d="M1245.23 814.362C1238.74 814.081 1232.11 815.677 1225.72 813.376C1232.2 813.799 1238.83 812.061 1245.23 814.362Z" fill="#322F2E"/>
<path d="M1094.9 811.685C1088.83 811.45 1082.66 812.859 1076.67 810.699C1082.75 811.028 1088.92 809.478 1094.9 811.685Z" fill="#322F2E"/>
<path d="M921.823 797.127C907.841 797.221 893.86 798.583 879.924 796.235C893.905 796.329 907.887 795.577 921.823 797.127Z" fill="#322F2E"/>
<path d="M1193.46 798.911C1180.94 800.696 1168.42 800.696 1155.9 798.911H1193.46Z" fill="#322F2E"/>
<path d="M546.925 796.235C535.593 798.583 524.171 797.221 512.748 797.08C512.885 796.751 513.022 796.47 513.205 796.188C524.445 796.188 535.685 796.188 546.925 796.188V796.235Z" fill="#322F2E"/>
<path d="M1046.19 798.489C1036.96 798.677 1027.74 799.71 1018.6 797.597C1027.83 797.315 1037.01 797.174 1046.19 798.489Z" fill="#322F2E"/>
<path d="M295.578 798.911C286.485 801.353 277.21 799.757 268.072 799.945C262.589 800.038 256.923 801.26 251.531 798.911C266.198 798.911 280.911 798.911 295.578 798.911Z" fill="#322F2E"/>
<path d="M435.53 797.55C424.199 799.851 412.776 798.63 401.353 798.442C412.73 797.174 424.108 797.362 435.53 797.55Z" fill="#322F2E"/>
</svg>
