<svg width="42" height="42" viewBox="0 0 42 42" fill="none" xmlns="http://www.w3.org/2000/svg">
<mask id="path-1-inside-1_20_30655" fill="white">
<rect x="3.45744" y="11.4601" width="27" height="27" rx="1"/>
</mask>
<rect x="3.45744" y="11.4601" width="27" height="27" rx="1" stroke="black" stroke-width="6" mask="url(#path-1-inside-1_20_30655)"/>
<path d="M36.9737 8.0675L34.175 8.0675C33.7826 8.0675 33.4102 8.24768 33.17 8.55598L16.6619 29.4684L8.74617 19.4386C8.62642 19.2866 8.47379 19.1636 8.29974 19.079C8.12568 18.9944 7.93472 18.9504 7.74119 18.9501L4.94246 18.9501C4.6742 18.9501 4.52605 19.2584 4.69021 19.4666L15.6569 33.3602C16.1694 34.0088 17.1544 34.0088 17.6709 33.3602L37.226 8.58C37.3901 8.37581 37.242 8.0675 36.9737 8.0675Z" fill="#E69907"/>
</svg>
