<svg width="129" height="86" viewBox="0 0 129 86" fill="none" xmlns="http://www.w3.org/2000/svg">
<rect x="0.0410156" y="43.1109" width="120" height="45.8333" transform="rotate(-21 0.0410156 43.1109)" fill="#D7CCBB"/>
<ellipse cx="26.5443" cy="58.4023" rx="6.36832" ry="6.74465" transform="rotate(70 26.5443 58.4023)" fill="#1F1F1D"/>
<path d="M39.3226 67.1603C39.6569 67.8422 39.0248 68.604 38.2474 68.456L26.3538 66.1921C25.6524 66.0586 25.3529 65.2678 25.7998 64.7293L32.579 56.5599C33.0258 56.0214 33.9066 56.1117 34.2082 56.727L39.3226 67.1603Z" fill="#1F1F1D"/>
<path d="M42.0524 53.4842C42.8352 53.6444 43.0601 54.6564 42.4232 55.153L32.7971 62.6591C32.2526 63.0837 31.4612 62.8031 31.3122 62.1326L29.1062 52.2055C28.9572 51.5351 29.5509 50.9262 30.2202 51.0632L42.0524 53.4842Z" fill="#1F1F1D"/>
<path d="M29.6788 43.5555C30.1879 42.9487 31.1601 43.1392 31.3316 43.8793L33.9551 55.2006C34.1097 55.8677 33.4842 56.4942 32.7977 56.3597L22.3874 54.3199C21.7009 54.1854 21.4332 53.384 21.8921 52.837L29.6788 43.5555Z" fill="#1F1F1D"/>
<path d="M15.68 50.2587C15.3981 49.5547 16.0782 48.8411 16.8399 49.0415L28.5062 52.1109C29.1968 52.2926 29.4412 53.1057 28.9576 53.6132L21.6088 61.3252C21.1252 61.8326 20.2531 61.6783 19.9975 61.0401L15.68 50.2587Z" fill="#1F1F1D"/>
<path d="M23.5108 71.1776C22.9804 71.7681 22.0132 71.5442 21.8688 70.7975L19.662 59.3817C19.5322 58.7103 20.1795 58.1069 20.8604 58.2645L31.1764 60.6522C31.8574 60.8098 32.097 61.6185 31.62 62.1495L23.5108 71.1776Z" fill="#1F1F1D"/>
<rect width="2.78709" height="5.47836" transform="matrix(0.266457 0.963847 -0.961526 0.274715 20.8462 58.7706)" fill="#1F1F1D"/>
<ellipse cx="54.9549" cy="48.4026" rx="6.36832" ry="6.74465" transform="rotate(70 54.9549 48.4026)" fill="#1F1F1D"/>
<path d="M67.7332 57.1606C68.0675 57.8425 67.4354 58.6042 66.658 58.4562L54.7645 56.1924C54.0631 56.0588 53.7635 55.268 54.2104 54.7295L60.9896 46.5601C61.4365 46.0216 62.3173 46.112 62.6189 46.7273L67.7332 57.1606Z" fill="#1F1F1D"/>
<path d="M70.463 43.4844C71.2458 43.6446 71.4707 44.6567 70.8339 45.1533L61.2077 52.6594C60.6633 53.0839 59.8719 52.8033 59.7229 52.1329L57.5168 42.2058C57.3678 41.5353 57.9616 40.9265 58.6308 41.0634L70.463 43.4844Z" fill="#1F1F1D"/>
<path d="M58.0895 33.5557C58.5985 32.949 59.5707 33.1395 59.7422 33.8796L62.3658 45.2008C62.5204 45.868 61.8948 46.4944 61.2084 46.3599L50.798 44.3202C50.1115 44.1857 49.8438 43.3842 50.3027 42.8373L58.0895 33.5557Z" fill="#1F1F1D"/>
<path d="M44.0907 40.2589C43.8088 39.555 44.4888 38.8413 45.2506 39.0417L56.9169 42.1111C57.6075 42.2928 57.8518 43.106 57.3683 43.6134L50.0194 51.3254C49.5359 51.8329 48.6637 51.6785 48.4082 51.0403L44.0907 40.2589Z" fill="#1F1F1D"/>
<path d="M51.9215 61.1778C51.3911 61.7683 50.4238 61.5445 50.2795 60.7978L48.0727 49.382C47.9429 48.7106 48.5901 48.1072 49.2711 48.2648L59.5871 50.6525C60.268 50.8101 60.5076 51.6187 60.0307 52.1497L51.9215 61.1778Z" fill="#1F1F1D"/>
<rect width="2.78709" height="5.47836" transform="matrix(0.266457 0.963847 -0.961526 0.274715 49.2568 48.7708)" fill="#1F1F1D"/>
</svg>
