<svg width="1440" height="617" viewBox="0 0 1440 617" fill="none" xmlns="http://www.w3.org/2000/svg">
<rect width="1440" height="64" transform="translate(1 -23)" fill="#7C96A9"/>
<rect x="1" y="24" width="1440" height="17" fill="#5A798C"/>
<rect width="1440" height="64" transform="translate(1 41)" fill="#7C96A9"/>
<rect x="1" y="88" width="1440" height="17" fill="#5A798C"/>
<rect width="1440" height="64" transform="translate(1 105)" fill="#7C96A9"/>
<rect x="1" y="152" width="1440" height="17" fill="#5A798C"/>
<rect width="1440" height="64" transform="translate(1 169)" fill="#7C96A9"/>
<rect x="1" y="216" width="1440" height="17" fill="#5A798C"/>
<rect width="1440" height="64" transform="translate(1 233)" fill="#7C96A9"/>
<rect x="1" y="280" width="1440" height="17" fill="#5A798C"/>
<rect width="1440" height="64" transform="translate(1 297)" fill="#7C96A9"/>
<rect x="1" y="344" width="1440" height="17" fill="#5A798C"/>
<rect width="1440" height="64" transform="translate(1 361)" fill="#7C96A9"/>
<rect x="1" y="408" width="1440" height="17" fill="#5A798C"/>
<rect width="1440" height="64" transform="translate(1 425)" fill="#7C96A9"/>
<rect x="1" y="472" width="1440" height="17" fill="#5A798C"/>
<rect width="1440" height="64" transform="translate(1 489)" fill="#7C96A9"/>
<rect x="1" y="536" width="1440" height="17" fill="#5A798C"/>
<rect width="1440" height="64" transform="translate(1 553)" fill="#7C96A9"/>
<rect x="1" y="600" width="1440" height="17" fill="#5A798C"/>
<path d="M101 -367.5C101 -367.5 776.365 -334.045 1074.25 -257C1372.13 -179.955 1405.25 616.5 1405.25 616.5V-367.5H101Z" fill="#2D536B" fill-opacity="0.5" stroke="#5A798C" stroke-opacity="0.5"/>
<rect y="-407" width="38" height="1024" fill="#1B2118"/>
<rect x="1403" y="-407" width="38" height="1024" fill="#1B2118"/>
<rect x="643" y="569" width="155" height="32" fill="#274456"/>
</svg>
