<svg width="129" height="86" viewBox="0 0 129 86" fill="none" xmlns="http://www.w3.org/2000/svg">
<rect x="0.0410156" y="43.1109" width="120" height="45.8333" transform="rotate(-21 0.0410156 43.1109)" fill="#D7CCBB"/>
<ellipse cx="26.4964" cy="58.3973" rx="6.36832" ry="6.74465" transform="rotate(70 26.4964 58.3973)" fill="#1F1F1D"/>
<path d="M39.2747 67.1553C39.609 67.8372 38.9769 68.599 38.1996 68.451L26.306 66.1871C25.6046 66.0536 25.305 65.2628 25.7519 64.7243L32.5311 56.5549C32.978 56.0164 33.8588 56.1067 34.1604 56.722L39.2747 67.1553Z" fill="#1F1F1D"/>
<path d="M42.0045 53.4792C42.7873 53.6394 43.0122 54.6514 42.3754 55.148L32.7492 62.6541C32.2048 63.0787 31.4134 62.7981 31.2644 62.1276L29.0583 52.2005C28.9093 51.5301 29.5031 50.9212 30.1723 51.0582L42.0045 53.4792Z" fill="#1F1F1D"/>
<path d="M29.631 43.5505C30.14 42.9437 31.1122 43.1342 31.2837 43.8743L33.9073 55.1956C34.0619 55.8627 33.4364 56.4892 32.7499 56.3547L22.3395 54.3149C21.653 54.1804 21.3853 53.379 21.8442 52.832L29.631 43.5505Z" fill="#1F1F1D"/>
<path d="M15.6317 50.2537C15.3498 49.5497 16.0298 48.8361 16.7916 49.0365L28.4579 52.1059C29.1485 52.2876 29.3928 53.1007 28.9093 53.6082L21.5604 61.3202C21.0769 61.8276 20.2047 61.6733 19.9492 61.0351L15.6317 50.2537Z" fill="#1F1F1D"/>
<path d="M23.463 71.1726C22.9326 71.7631 21.9653 71.5392 21.821 70.7925L19.6142 59.3767C19.4844 58.7053 20.1316 58.1019 20.8126 58.2595L31.1286 60.6472C31.8095 60.8048 32.0491 61.6135 31.5722 62.1445L23.463 71.1726Z" fill="#1F1F1D"/>
<rect width="2.78709" height="5.47836" transform="matrix(0.266457 0.963847 -0.961526 0.274715 20.7988 58.7656)" fill="#1F1F1D"/>
<ellipse cx="59.6752" cy="44.3149" rx="6.36832" ry="6.74465" transform="rotate(70 59.6752 44.3149)" fill="#1F1F1D"/>
<path d="M72.4534 53.0729C72.7877 53.7548 72.1556 54.5166 71.3783 54.3686L59.4847 52.1047C58.7833 51.9712 58.4838 51.1804 58.9306 50.6419L65.7098 42.4725C66.1567 41.934 67.0375 42.0243 67.3391 42.6396L72.4534 53.0729Z" fill="#1F1F1D"/>
<path d="M75.1832 39.3968C75.966 39.557 76.1909 40.569 75.5541 41.0656L65.928 48.5717C65.3835 48.9963 64.5921 48.7157 64.4431 48.0452L62.237 38.1181C62.088 37.4477 62.6818 36.8388 63.3511 36.9758L75.1832 39.3968Z" fill="#1F1F1D"/>
<path d="M62.8097 29.4681C63.3187 28.8613 64.2909 29.0518 64.4624 29.7919L67.086 41.1132C67.2406 41.7803 66.6151 42.4068 65.9286 42.2723L55.5182 40.2325C54.8318 40.098 54.5641 39.2966 55.0229 38.7496L62.8097 29.4681Z" fill="#1F1F1D"/>
<path d="M48.8104 36.1713C48.5285 35.4673 49.2086 34.7537 49.9703 34.9541L61.6366 38.0235C62.3272 38.2052 62.5715 39.0183 62.088 39.5258L54.7391 47.2378C54.2556 47.7452 53.3835 47.5909 53.1279 46.9527L48.8104 36.1713Z" fill="#1F1F1D"/>
<path d="M56.6417 57.0902C56.1113 57.6807 55.1441 57.4568 54.9997 56.7101L52.7929 45.2943C52.6631 44.6229 53.3103 44.0195 53.9913 44.1771L64.3073 46.5648C64.9882 46.7224 65.2278 47.5311 64.7509 48.0621L56.6417 57.0902Z" fill="#1F1F1D"/>
<rect width="2.78709" height="5.47836" transform="matrix(0.266457 0.963847 -0.961526 0.274715 53.9775 44.6832)" fill="#1F1F1D"/>
<ellipse cx="95.6752" cy="31.3148" rx="6.36832" ry="6.74465" transform="rotate(70 95.6752 31.3148)" fill="#1F1F1D"/>
<path d="M108.453 40.0728C108.788 40.7547 108.156 41.5164 107.378 41.3685L95.4847 39.1046C94.7833 38.9711 94.4838 38.1803 94.9306 37.6418L101.71 29.4724C102.157 28.9339 103.037 29.0242 103.339 29.6395L108.453 40.0728Z" fill="#1F1F1D"/>
<path d="M111.183 26.3967C111.966 26.5568 112.191 27.5689 111.554 28.0655L101.928 35.5716C101.383 35.9962 100.592 35.7156 100.443 35.0451L98.237 25.118C98.088 24.4476 98.6818 23.8387 99.3511 23.9756L111.183 26.3967Z" fill="#1F1F1D"/>
<path d="M98.8097 16.468C99.3187 15.8612 100.291 16.0517 100.462 16.7918L103.086 28.1131C103.241 28.7802 102.615 29.4067 101.929 29.2721L91.5182 27.2324C90.8318 27.0979 90.5641 26.2965 91.0229 25.7495L98.8097 16.468Z" fill="#1F1F1D"/>
<path d="M84.8104 23.1711C84.5285 22.4672 85.2086 21.7536 85.9703 21.954L97.6366 25.0234C98.3272 25.205 98.5715 26.0182 98.088 26.5257L90.7391 34.2377C90.2556 34.7451 89.3835 34.5908 89.1279 33.9525L84.8104 23.1711Z" fill="#1F1F1D"/>
<path d="M92.6417 44.0901C92.1113 44.6806 91.1441 44.4567 90.9997 43.71L88.7929 32.2942C88.6631 31.6228 89.3103 31.0194 89.9913 31.177L100.307 33.5647C100.988 33.7223 101.228 34.531 100.751 35.062L92.6417 44.0901Z" fill="#1F1F1D"/>
<rect width="2.78709" height="5.47836" transform="matrix(0.266457 0.963847 -0.961526 0.274715 89.9775 31.683)" fill="#1F1F1D"/>
</svg>
