<svg width="129" height="86" viewBox="0 0 129 86" fill="none" xmlns="http://www.w3.org/2000/svg">
<rect x="0.0410156" y="43.1109" width="120" height="45.8333" transform="rotate(-21 0.0410156 43.1109)" fill="#D7CCBB"/>
<ellipse cx="59.6703" cy="44.3143" rx="6.36832" ry="6.74465" transform="rotate(70 59.6703 44.3143)" fill="#1F1F1D"/>
<path d="M72.4486 53.0722C72.7828 53.7541 72.1507 54.5158 71.3734 54.3679L59.4798 52.104C58.7784 51.9705 58.4789 51.1797 58.9257 50.6412L65.7049 42.4718C66.1518 41.9332 67.0326 42.0236 67.3342 42.6389L72.4486 53.0722Z" fill="#1F1F1D"/>
<path d="M75.1784 39.3962C75.9611 39.5564 76.186 40.5684 75.5492 41.065L65.9231 48.5711C65.3786 48.9957 64.5872 48.7151 64.4382 48.0446L62.2322 38.1175C62.0832 37.4471 62.6769 36.8382 63.3462 36.9752L75.1784 39.3962Z" fill="#1F1F1D"/>
<path d="M62.8048 29.4675C63.3138 28.8607 64.286 29.0512 64.4575 29.7913L67.0811 41.1126C67.2357 41.7797 66.6102 42.4062 65.9237 42.2717L55.5134 40.2319C54.8269 40.0974 54.5592 39.296 55.018 38.749L62.8048 29.4675Z" fill="#1F1F1D"/>
<path d="M48.8055 36.1708C48.5236 35.4668 49.2037 34.7532 49.9654 34.9536L61.6317 38.023C62.3223 38.2047 62.5667 39.0178 62.0831 39.5253L54.7343 47.2373C54.2507 47.7447 53.3786 47.5904 53.123 46.9522L48.8055 36.1708Z" fill="#1F1F1D"/>
<path d="M56.6368 57.0896C56.1064 57.6801 55.1392 57.4562 54.9948 56.7095L52.788 45.2937C52.6582 44.6223 53.3055 44.0189 53.9864 44.1765L64.3024 46.5642C64.9834 46.7218 65.2229 47.5305 64.746 48.0615L56.6368 57.0896Z" fill="#1F1F1D"/>
<rect width="2.78709" height="5.47836" transform="matrix(0.266457 0.963847 -0.961526 0.274715 53.9727 44.6827)" fill="#1F1F1D"/>
<path d="M20.9873 75.3477L29.0992 42.4236L33.0915 43.4073L24.9796 76.3313L20.9873 75.3477Z" fill="#1F1F1D"/>
<path d="M32.9737 35.307L33.1084 43.5065L29.0453 42.5054L32.9737 35.307Z" fill="#1F1F1D"/>
<ellipse cx="23.9526" cy="70.7696" rx="4.72471" ry="2.02116" transform="rotate(13.8409 23.9526 70.7696)" fill="#1F1F1D"/>
<rect x="26.2764" y="53.3682" width="4.60851" height="10.2613" transform="rotate(13.3598 26.2764 53.3682)" fill="#D7CCBB"/>
<rect x="12.9658" y="54.2344" width="26.1411" height="1.24379" transform="rotate(13.7629 12.9658 54.2344)" fill="#1F1F1D"/>
<path d="M22.8528 57.2918C21.4307 58.2545 20.6098 57.7737 19.8649 56.6735C19.1201 55.5732 18.8559 54.4513 20.278 53.4886C21.7001 52.5258 23.4111 52.4239 25.0147 53.187C25.1534 54.4137 24.2749 56.3291 22.8528 57.2918Z" fill="#1F1F1D"/>
<path d="M28.9964 59.3804C27.5743 60.3432 26.7534 59.8623 26.0085 58.7621C25.2636 57.6618 24.9995 56.5399 26.4216 55.5772C27.8436 54.6144 29.5546 54.5125 31.1583 55.2757C31.297 56.5023 30.4184 58.4177 28.9964 59.3804Z" fill="#1F1F1D"/>
<path d="M35.2268 59.97C33.8048 60.9328 32.9838 60.4519 32.239 59.3517C31.4941 58.2514 31.23 57.1295 32.652 56.1668C34.0741 55.204 35.7851 55.1021 37.3887 55.8653C37.5275 57.0919 36.6489 59.0073 35.2268 59.97Z" fill="#1F1F1D"/>
<path d="M40.9231 61.7662C39.501 62.7289 38.6801 62.2481 37.9353 61.1478C37.1904 60.0476 36.9262 58.9257 38.3483 57.9629C39.7704 57.0002 41.4814 56.8983 43.085 57.6614C43.2238 58.8881 42.3452 60.8034 40.9231 61.7662Z" fill="#1F1F1D"/>
<path d="M37.1923 64.0205C36.1858 62.6291 36.6409 61.7936 37.7175 61.0149C38.794 60.2362 39.9072 59.9373 40.9136 61.3288C41.9201 62.7202 42.0752 64.4272 41.3622 66.0538C40.1405 66.2306 38.1987 65.412 37.1923 64.0205Z" fill="#1F1F1D"/>
<path d="M30.9252 62.217C30.2355 60.6443 30.8569 59.9239 32.0738 59.3903C33.2906 58.8567 34.4418 58.7999 35.1314 60.3727C35.821 61.9454 35.6118 63.6466 34.5711 65.0858C33.3396 65.0003 31.6148 63.7898 30.9252 62.217Z" fill="#1F1F1D"/>
<path d="M25.0511 60.8235C24.3615 59.2507 24.9829 58.5303 26.1998 57.9967C27.4166 57.4632 28.5678 57.4063 29.2574 58.9791C29.947 60.5519 29.7377 62.2531 28.6971 63.6922C27.4656 63.6068 25.7408 62.3962 25.0511 60.8235Z" fill="#1F1F1D"/>
<path d="M18.9515 58.8493C18.2619 57.2766 18.8833 56.5562 20.1001 56.0226C21.317 55.4891 22.4682 55.4322 23.1578 57.005C23.8474 58.5777 23.6381 60.279 22.5975 61.7181C21.366 61.6326 19.6412 60.4221 18.9515 58.8493Z" fill="#1F1F1D"/>
<path d="M43.7994 64.4122C42.1335 63.9951 41.9441 63.0628 42.2668 61.7739C42.5894 60.485 43.249 59.5398 44.9149 59.9568C46.5808 60.3739 47.7982 61.5805 48.2995 63.2842C47.4783 64.2059 45.4653 64.8292 43.7994 64.4122Z" fill="#1F1F1D"/>
</svg>
