<svg width="256" height="236" viewBox="0 0 256 236" fill="none" xmlns="http://www.w3.org/2000/svg">
<g filter="url(#filter0_f_51_11100)">
<g clip-path="url(#clip0_51_11100)">
<path d="M193.348 62.5C193.348 62.5 193.279 62.2592 193.176 62.2248C192.42 61.5022 191.595 60.8484 190.668 60.3667C190.668 60.2635 190.599 60.2291 190.496 60.2291C188.572 58.7151 186.475 57.5109 184.276 56.513C176.957 53.1411 169.191 51.5583 161.253 50.4228C152.869 49.2186 144.485 48.7368 136.066 48.5648C120.637 48.2895 105.208 48.1863 89.8827 50.4572C84.0411 51.3174 78.3026 52.5217 72.7702 54.5862C72.7015 54.5862 72.6328 54.5862 72.5641 54.655C68.8186 56.0313 65.2449 57.7861 62.0492 60.2291C61.9805 60.2291 61.9117 60.2979 61.9117 60.3667C61.7743 60.5044 61.6025 60.6764 61.465 60.814C61.087 61.0549 60.709 61.3301 60.3654 61.571C60.228 61.571 60.1936 61.6742 60.1936 61.7775L60.1249 61.8463C60.1249 61.8463 59.9187 61.9151 59.8843 62.0183C59.7469 62.1903 59.5751 62.328 59.4376 62.5C58.3724 63.3946 57.3415 64.358 56.4825 65.4591C56.3107 65.6311 56.1732 65.7688 56.0014 65.9408C55.9327 65.9408 55.8983 66.0096 55.8639 66.0784C55.7265 66.3193 55.5547 66.5946 55.4172 66.8354C54.9362 67.1795 54.5582 67.5924 54.3864 68.1773C53.0462 69.6913 52.1184 71.4461 51.2594 73.2697C48.476 78.6718 46.8954 84.4867 45.3834 90.336C43.4591 97.8026 42.119 105.407 40.7789 112.976C39.9885 117.381 39.37 121.819 38.7171 126.224C38.0642 130.834 37.4801 135.445 36.8959 140.021C36.3805 144.184 35.7963 148.382 35.384 152.546C34.8685 157.5 34.4562 162.489 33.9751 167.444C33.5627 171.952 33.116 176.494 32.6693 181.001C32.3601 184.27 32.0164 187.504 31.7759 190.773C31.7072 191.667 31.3979 191.839 30.5732 191.874C28.752 191.977 26.9652 192.356 25.2127 192.837C18.2371 194.799 12.7391 198.549 9.78397 205.465C8.23766 209.112 7.41296 212.932 7.00061 216.82C6.58827 220.604 8.13457 222.807 11.6739 224.252C12.6017 224.63 13.4951 224.974 14.4573 225.25C21.1236 227.108 27.9617 227.486 34.7998 227.865C42.9093 228.312 51.0188 228.45 59.1284 228.553C71.2583 228.725 83.3882 228.828 95.5182 228.862C132.526 228.966 169.535 229.172 206.509 228.312C215.89 228.105 225.271 227.968 234.583 226.591C238.088 226.075 241.524 225.422 244.617 223.598C246.747 222.359 248.225 220.57 247.915 217.955C247.64 215.547 247.228 213.138 246.713 210.764C244.032 198.962 236.576 194.076 226.061 192.184C223.484 191.736 223.449 191.839 223.312 189.534C222.9 183.41 221.869 177.319 221.181 171.229C220.46 164.898 219.498 158.636 218.604 152.305C217.676 145.664 216.852 139.058 215.821 132.417C214.721 125.329 213.484 118.241 212.247 111.187C210.667 102.241 208.845 93.3295 206.199 84.6243C204.756 79.8072 203.21 74.9901 200.289 70.7923C199.945 69.7257 199.155 68.9343 198.502 68.0397C198.502 67.9365 198.434 67.9021 198.365 67.8677C197.987 67.3515 197.746 66.6978 197.162 66.3537C197.162 66.2849 197.093 66.2505 197.025 66.2161C196.75 65.9408 196.509 65.6655 196.234 65.3903C196.131 65.2871 196.063 65.2182 195.959 65.115C195.375 64.3236 194.688 63.6355 193.898 63.085C193.76 62.9473 193.623 62.8097 193.485 62.6377C193.382 62.5688 193.279 62.5 193.176 62.4312L193.348 62.5ZM202.042 51.5239C203.176 51.6615 204.103 51.0422 204.962 50.354C205.89 49.6659 206.818 48.9433 207.711 48.1863C212.35 44.3326 217.23 40.7198 221.697 36.6597C223.552 34.9737 223.724 32.2899 222.247 30.7415C220.769 29.1931 218.673 29.2964 216.646 31.0512C214.824 32.5995 213.003 34.1479 211.148 35.6274C207.368 38.7241 203.588 41.752 199.842 44.8487C198.365 46.0874 197.849 47.7734 198.468 49.2874C199.121 50.8357 200.289 51.5927 202.076 51.4895L202.042 51.5239ZM56.1388 48.3239C56.1732 46.6036 55.486 45.5713 54.4551 44.7455C52.8401 43.4036 51.1907 42.0617 49.5756 40.7542C45.4178 37.3478 41.2599 33.9414 37.0677 30.535C35.6589 29.3996 34.1813 29.2964 32.6006 30.2942C31.123 31.1888 30.9168 32.5307 31.0543 34.0447C31.1917 35.3522 32.1539 36.1779 33.116 36.9693C36.8959 40.1349 40.7101 43.3004 44.5244 46.4315C46.4143 47.9799 48.3386 49.4938 50.2629 50.939C51.4999 51.868 52.9431 51.9712 54.3176 51.2142C55.5547 50.5605 56.0701 49.425 56.1045 48.3584L56.1388 48.3239ZM221.972 71.9966C222.212 71.9966 222.625 71.9966 223.003 71.8934C230.219 69.6569 237.435 67.4204 244.617 65.115C245.682 64.7709 246.507 64.014 246.85 62.8097C247.64 59.9882 244.788 57.4076 241.73 58.2334C240.081 58.6807 238.466 59.3001 236.851 59.8162C231.387 61.571 225.923 63.257 220.46 65.0806C218.707 65.6655 217.78 67.4204 218.123 69.0031C218.501 70.7235 220.047 71.9622 221.972 71.9966ZM71.3614 18.0106C71.2239 18.9052 71.8425 19.8686 72.3923 20.832C74.9694 25.305 77.5466 29.7781 80.1582 34.1823C80.8454 35.3178 81.3608 36.5564 82.323 37.5199C83.6288 38.8274 85.45 39.137 87.065 38.3456C88.4739 37.6231 89.3673 35.9027 89.1611 34.3199C89.0237 33.3565 88.4739 32.5651 87.9928 31.7737C86.0341 28.4362 84.1098 25.0642 82.1168 21.7266C80.811 19.5245 79.8489 17.1504 78.1651 15.1891C76.9968 13.8128 75.4849 13.6752 73.9042 14.2257C72.3235 14.7762 71.3957 15.9805 71.327 18.045L71.3614 18.0106ZM182.386 17.5977C182.386 16.0837 181.149 14.4665 179.603 14.0192C177.85 13.5031 176.064 14.1569 174.93 16.0493C171.528 21.761 168.195 27.5071 164.827 33.2533C164.38 34.0447 164.106 34.836 164.415 35.7995C164.965 37.4166 165.995 38.4489 167.714 38.6897C169.569 38.9306 170.944 38.1392 171.871 36.5564C175.067 31.12 178.297 25.6835 181.493 20.2127C181.974 19.4213 182.455 18.5955 182.386 17.5633V17.5977ZM30.9168 71.9278C33.9751 71.9622 35.3496 71.0676 35.7619 69.2784C36.1743 67.4548 35.1778 65.5967 33.2191 64.943C26.4841 62.6721 19.7147 60.4011 12.9109 58.2678C9.88706 57.3388 7.55041 59.4721 8.03149 62.4312C8.34075 64.2204 9.64652 65.0118 11.1928 65.5279C16.0036 67.1107 20.8487 68.6934 25.6938 70.2418C27.6868 70.8956 29.6111 71.8246 30.9512 71.9278H30.9168ZM130.946 20.7632C130.946 17.5288 130.946 14.2945 130.946 11.0602C130.946 10.4408 130.946 9.85588 130.671 9.27094C129.881 7.68818 128.059 6.72475 126.41 7.06883C124.451 7.44732 123.18 8.75482 123.18 10.7161C123.146 17.3568 123.146 23.9631 123.18 30.6039C123.18 33.2877 124.692 34.836 127.063 34.836C129.503 34.836 130.98 33.2189 130.98 30.4662C130.98 27.2319 130.98 23.9975 130.98 20.7632H130.946ZM226.233 93.2607C225.133 93.2607 224.377 93.2607 223.587 93.2607C221.559 93.2951 220.082 94.7058 220.013 96.6327C219.944 98.7316 221.078 100.211 223.209 100.314C230.013 100.693 236.851 101.002 243.654 101.278C245.682 101.347 247.262 99.7638 247.366 97.8026C247.469 95.9445 246.06 94.3274 243.998 94.2241C237.985 93.8457 231.937 93.5704 226.198 93.2607H226.233ZM17.7217 101.312C21.6734 101.175 25.5907 100.727 29.5423 100.624C31.879 100.59 33.4597 99.0068 33.4253 96.7703C33.4253 94.637 31.8446 93.1575 29.508 93.2263C26.5872 93.2951 23.632 93.3983 20.7112 93.5704C17.275 93.7424 13.8387 93.9145 10.4369 94.1897C8.06585 94.3962 6.86316 95.8069 7.03498 97.9746C7.17243 99.8326 8.82182 101.278 10.9179 101.278C13.1858 101.278 15.4538 101.278 17.756 101.278L17.7217 101.312Z" fill="white"/>
<path d="M200.426 70.8268C203.347 75.0246 204.893 79.8417 206.336 84.6588C208.982 93.364 210.803 102.276 212.384 111.222C213.621 118.275 214.858 125.363 215.958 132.451C216.989 139.058 217.813 145.698 218.741 152.339C219.6 158.636 220.597 164.932 221.318 171.264C222.005 177.388 223.036 183.444 223.449 189.569C223.586 191.874 223.62 191.771 226.198 192.218C236.678 194.076 244.135 198.962 246.849 210.798C247.399 213.172 247.777 215.581 248.052 217.99C248.361 220.639 246.849 222.394 244.753 223.632C241.661 225.456 238.19 226.11 234.72 226.626C225.407 228.002 216.026 228.14 206.645 228.346C169.637 229.172 132.663 229 95.6549 228.897C83.525 228.862 71.3951 228.759 59.2651 228.587C51.1556 228.484 43.0117 228.346 34.9366 227.899C28.0985 227.521 21.226 227.176 14.594 225.284C13.6319 225.009 12.7041 224.665 11.8107 224.286C8.23699 222.841 6.72504 220.639 7.13739 216.854C7.54974 212.966 8.37444 209.147 9.92075 205.499C12.8759 198.583 18.3739 194.833 25.3495 192.872C27.1019 192.39 28.8888 191.977 30.71 191.908C31.5347 191.874 31.844 191.702 31.9127 190.807C32.1532 187.538 32.4968 184.304 32.8061 181.035C33.2185 176.528 33.6652 171.986 34.1119 167.479C34.5929 162.524 35.0053 157.535 35.5207 152.58C35.9674 148.382 36.5172 144.219 37.0327 140.056C37.6168 135.445 38.201 130.834 38.8539 126.258C39.4724 121.819 40.1253 117.415 40.9156 113.011C42.2558 105.441 43.6303 97.837 45.5202 90.3705C47.0321 84.5211 48.6128 78.7062 51.3962 73.3042C51.8085 74.7837 50.6745 75.8159 50.2278 77.0202C48.2005 82.4911 46.6198 88.0652 45.3484 93.7425C43.9052 100.28 42.565 106.817 41.5342 113.424C40.572 119.48 39.5411 125.535 38.7852 131.626C37.9261 138.301 37.067 145.01 36.2423 151.685C35.5895 157.053 35.074 162.455 34.5586 167.857C33.8713 175.186 33.2184 182.515 32.5312 189.844C32.4625 190.704 32.4968 191.53 33.5621 192.012C32.8748 192.252 31.7409 192.012 32.0501 192.493C32.5656 193.285 31.7065 194.833 33.2185 194.902C40.6407 195.28 48.063 195.59 55.4509 195.934C59.5057 196.106 63.5261 195.9 67.6152 196.209C72.9757 196.622 78.3706 196.45 83.7655 196.519C97.7167 196.76 111.702 196.622 125.653 196.588C126.066 196.588 126.547 196.794 126.959 196.416C126.375 196.037 125.378 196.691 125.172 195.9C124.932 195.074 126.1 195.349 126.409 194.867C126.615 194.489 126.89 194.042 126.856 193.663C126.753 193.078 126.134 193.285 125.722 193.285C122.836 193.285 119.949 193.388 117.063 193.525C113.077 193.732 109.091 193.491 105.105 193.594C98.7132 193.766 92.3561 193.353 85.9991 192.906C83.7655 192.769 81.532 193.457 79.3671 193.181C75.1749 192.596 70.9484 192.837 66.7561 192.734C59.5057 192.528 52.2209 192.252 44.936 192.287C43.2866 192.287 41.6372 192.115 39.9878 192.218C37.5825 192.356 36.4142 190.842 37.067 188.674C37.6512 186.782 37.4107 184.855 37.7886 182.928C38.3728 180.141 38.4415 177.216 38.7852 174.36C39.0601 172.055 39.0257 169.715 39.2319 167.41C39.3693 165.689 39.3693 163.763 39.7817 162.283C40.4689 159.737 40.1253 157.191 40.7438 154.679C41.5685 151.41 41.4654 147.901 41.9465 144.563C42.0839 143.565 41.6716 142.602 42.1183 141.638C42.7712 140.262 42.5307 138.679 42.7712 137.2C43.0805 135.376 43.1148 133.449 43.3554 131.626C43.8364 128.322 44.2831 125.054 44.8673 121.751C45.3484 118.895 45.5889 116.039 46.2418 113.183C46.7916 110.74 46.9978 108.228 47.4445 105.785C47.9599 102.689 48.5441 99.5574 49.5406 96.5295C50.1935 94.4306 50.3309 92.1941 50.9151 90.0608C51.4992 88.0652 51.9803 86.0351 52.4958 84.0394C52.9768 82.2846 53.1143 80.2202 54.9011 79.0159C53.6984 83.0072 52.3583 86.9641 51.3618 91.0242C49.7811 97.5273 48.4754 104.065 47.2727 110.637C46.2074 116.348 45.4515 122.129 44.6268 127.875C44.0082 132.279 43.4241 136.649 42.8743 141.053C42.2214 146.455 41.6029 151.857 41.0187 157.26C40.3658 163.178 39.7817 169.061 39.1975 174.98C38.7164 179.831 38.3384 184.717 37.6856 189.569C37.4794 191.117 37.8917 191.495 39.2319 191.53C42.565 191.667 45.8982 191.702 49.2313 191.805C60.9145 192.149 72.5978 192.356 84.2466 192.528C90.1569 192.631 96.0329 192.631 101.943 192.7C104.417 193.25 106.891 192.906 109.366 192.906C114.348 192.906 119.365 192.872 124.348 192.837L124.76 192.631C124.76 192.631 124.966 192.734 125.069 192.803C125.344 192.837 125.619 192.941 125.859 192.941C137.233 192.941 148.573 192.941 159.947 192.941C160.325 192.941 160.737 193.009 161.047 192.7C161.94 192.7 162.868 192.7 163.761 192.7C163.864 192.837 163.967 192.837 164.07 192.7C165.136 192.7 166.167 192.631 167.232 192.631C183.76 192.631 200.288 192.596 216.817 191.874C217.298 191.771 218.191 192.424 218.054 191.22C217.401 185.44 216.782 179.659 216.061 173.879C215.27 167.513 214.377 161.148 213.518 154.782C212.521 147.384 211.594 139.952 210.425 132.589C209.223 124.985 207.986 117.415 206.542 109.845C204.343 98.4219 201.938 87.1017 197.539 76.2976C198.502 76.5041 198.57 77.3987 198.811 78.0869C202.178 86.7921 204.378 95.8414 206.164 104.959C207.608 112.323 208.879 119.72 210.116 127.153C210.769 131.075 211.284 135.032 211.869 138.954C212.521 143.324 213.174 147.694 213.758 152.064C214.377 156.503 214.961 160.941 215.511 165.38C215.992 169.268 216.473 173.156 216.954 177.044C217.504 181.483 217.985 185.921 218.535 190.36C218.604 190.91 218.226 191.805 219.119 191.839C220.425 191.943 221.765 192.184 223.071 191.667C223.139 191.667 223.174 191.358 223.139 191.22C222.933 188.812 222.796 186.369 222.487 183.96C221.902 179.074 221.181 174.223 220.562 169.337C219.841 163.866 219.256 158.361 218.5 152.89C217.607 146.387 216.576 139.884 215.58 133.38C214.652 127.428 213.827 121.475 212.762 115.557C211.353 107.85 209.944 100.108 207.951 92.5038C206.199 85.7942 204.446 79.0847 201.216 72.8913C200.873 72.2719 200.392 71.6526 200.598 70.8612L200.426 70.8268ZM230.115 197.517C226.919 195.865 223.586 195.177 220.012 195.796C218.741 196.278 217.401 196.209 216.095 196.175C215.751 195.659 215.305 195.968 214.892 196.003C209.154 196.278 203.415 196.622 197.711 196.829C194.825 196.932 191.938 196.829 189.086 196.863C184.516 196.829 179.946 196.691 175.376 197.07C175.204 197.07 174.998 197.07 174.826 197.07C174.551 196.897 174.242 196.897 173.967 197.07C173.451 197.07 172.936 197.07 172.455 197.07C172.317 197.07 172.146 197.07 172.008 197.07C148.779 197.07 125.55 197.07 102.321 197.07C97.8541 196.863 93.387 196.76 88.9199 196.863C83.6968 196.829 78.4737 196.794 73.2506 196.725C71.2576 196.45 69.2302 196.381 67.2029 196.485C61.8423 196.313 56.4818 196.416 51.1213 196.14C47.2039 195.934 43.2866 195.762 39.3693 195.556C35.0053 195.315 30.6069 194.833 26.3803 196.485C25.6931 196.76 24.7997 196.725 24.7309 197.758C22.5661 197.758 20.9511 198.928 19.4391 200.269C14.8002 204.295 13.4944 209.8 12.7728 215.547C12.2918 219.263 13.9411 220.811 17.7897 221.534C22.2912 222.772 26.9301 223.082 31.5347 223.495C36.6547 223.942 41.8434 223.839 46.9634 224.149C52.049 224.458 57.169 224.286 62.289 224.424C76.412 224.837 90.5349 224.63 104.624 224.733C130.739 224.906 156.889 225.25 183.004 224.527C190.426 224.321 197.883 224.527 205.34 224.286C213.484 224.045 221.627 223.77 229.737 223.116C232.108 222.91 234.616 222.841 236.781 221.568C240.046 221.43 242.073 219.985 242.107 217.508C242.176 212.312 241.077 207.323 238.018 203.056C236.197 200.51 233.929 198.377 230.527 198.102H230.459C230.459 197.861 230.63 197.517 230.149 197.448L230.115 197.517Z" fill="#535157"/>
<path d="M54.7639 78.9472C52.9771 80.1515 52.8052 82.1816 52.3585 83.9708C51.8431 85.9664 51.362 87.9965 50.7779 89.9922C50.1593 92.0911 50.0563 94.362 49.4034 96.4609C48.4412 99.4888 47.8571 102.62 47.3073 105.717C46.8949 108.16 46.6887 110.671 46.1046 113.114C45.4517 115.936 45.2112 118.826 44.7301 121.682C44.1803 124.951 43.6992 128.254 43.2181 131.557C42.9432 133.381 42.9089 135.307 42.634 137.131C42.3934 138.611 42.634 140.193 41.9811 141.57C41.5344 142.533 41.9467 143.497 41.8093 144.494C41.3282 147.866 41.4313 151.342 40.6066 154.61C39.9881 157.122 40.3317 159.703 39.6444 162.214C39.2321 163.728 39.2321 165.655 39.0946 167.341C38.8885 169.647 38.9228 171.986 38.6479 174.292C38.3043 177.147 38.2356 180.038 37.6514 182.859C37.2391 184.786 37.4796 186.713 36.9298 188.605C36.2769 190.773 37.4453 192.287 39.8506 192.149C41.5 192.046 43.1494 192.218 44.7988 192.218C52.0836 192.184 59.3685 192.459 66.6189 192.665C70.8111 192.803 75.0377 192.528 79.2299 193.113C81.3948 193.422 83.6283 192.7 85.8619 192.837C92.2189 193.285 98.576 193.698 104.967 193.526C108.953 193.422 112.939 193.663 116.925 193.457C119.812 193.319 122.698 193.182 125.585 193.216C125.997 193.216 126.616 192.975 126.719 193.594C126.787 193.973 126.513 194.42 126.272 194.799C125.963 195.28 124.794 195.005 125.035 195.831C125.241 196.622 126.238 195.969 126.822 196.347C126.409 196.726 125.928 196.519 125.516 196.519C111.565 196.519 97.5794 196.691 83.6283 196.45C78.2334 196.347 72.8385 196.554 67.478 196.141C63.4232 195.831 59.3685 196.037 55.3137 195.865C47.8914 195.556 40.4691 195.212 33.0812 194.833C31.5693 194.764 32.4283 193.216 31.9129 192.425C31.5693 191.908 32.7032 192.184 33.4249 191.943C32.3596 191.461 32.3253 190.635 32.394 189.775C33.0812 182.446 33.6998 175.117 34.4214 167.789C34.9368 162.386 35.4179 156.984 36.1051 151.617C36.9298 144.942 37.7889 138.232 38.6479 131.557C39.4039 125.467 40.4348 119.411 41.3969 113.355C42.4278 106.749 43.7679 100.177 45.2112 93.6738C46.4826 87.9965 48.0632 82.388 50.0906 76.9516C50.5373 75.7473 51.7056 74.715 51.2589 73.2355C52.9771 71.9624 53.733 70.07 54.3859 68.1431C55.3824 68.1431 55.5199 67.5582 55.4168 66.8012C55.9666 66.8012 56.2071 66.5948 55.8635 66.0442C55.8635 65.9754 55.9322 65.941 56.0009 65.9066C56.482 66.0787 56.4477 65.7346 56.482 65.4249C57.3411 64.3238 58.3376 63.3604 59.4372 62.4658C59.7121 62.4658 60.0901 62.4658 59.8839 61.9841C59.8839 61.8465 59.987 61.8121 60.1244 61.8121C60.1588 61.9497 60.2275 61.9841 60.2962 61.8121C60.2962 61.8121 60.2275 61.7433 60.1932 61.7088C60.1932 61.5712 60.2619 61.5024 60.365 61.5024C61.1897 61.9153 61.4302 61.4336 61.4646 60.7454C61.7395 60.7454 62.0831 60.7454 61.9113 60.2981C61.9113 60.2293 61.98 60.1949 62.0487 60.1605C62.4267 60.5046 62.736 60.2637 63.0796 60.0573C65.6911 58.3025 68.4745 56.8573 71.3609 55.653C71.8076 55.481 72.6323 55.481 72.5636 54.5864C72.598 54.5176 72.6667 54.4832 72.7698 54.5176C73.5601 55.0681 74.2817 54.5864 75.0034 54.3455C83.6283 51.4897 92.5282 50.423 101.531 49.7005C104.074 49.494 106.651 49.6317 109.16 49.3564C113.867 48.8059 118.575 49.2876 123.283 49.2532C122.32 49.4252 121.324 49.3908 120.362 49.4596C119.949 49.4596 119.159 49.1499 119.159 49.9069C119.159 50.4919 119.812 50.9392 120.396 50.7671C122.149 50.2166 123.283 50.7327 123.901 52.4875C119.296 52.3499 114.692 52.5907 110.087 52.7628C107.201 52.9004 104.349 53.1413 101.462 53.2101C99.4007 53.2445 97.2358 53.2101 95.2772 53.6574C91.6691 54.4832 87.9923 54.7929 84.3843 55.4466C82.082 55.8939 79.7797 56.3756 77.6149 57.2014C75.0033 58.1648 72.4605 59.3347 69.9521 60.539C69.0587 60.9519 67.6842 60.9863 67.5811 62.4658C67.5123 62.569 67.4093 62.6035 67.3062 62.6035C66.8251 62.4314 66.6189 62.6723 66.5846 63.154C66.2753 63.3948 65.966 63.6357 65.6224 63.8765C65.1413 63.8765 64.6946 63.911 64.6946 64.5647C64.351 64.8744 63.973 65.184 63.6294 65.5281C63.114 65.4593 62.7703 65.7346 62.5642 66.1819C62.0144 66.526 61.5333 66.87 61.602 67.5926C61.5333 67.7302 61.4646 67.8335 61.3958 67.9711C61.1553 68.1775 60.8804 68.3496 60.6399 68.556C60.5024 68.6592 60.365 68.7969 60.2619 68.9001C59.0936 69.5883 58.0283 70.3108 58.2689 71.928C57.238 72.1 57.2036 72.8226 57.3411 73.614C57.3411 73.7172 57.3067 73.8204 57.2036 73.8893C56.5164 74.2333 55.7604 74.543 56.3446 75.5752C56.2071 75.8161 56.0697 76.0914 55.9322 76.3322C55.7948 76.2978 55.6573 76.2634 55.5199 76.229C55.4855 76.229 55.4511 76.1946 55.3824 76.1602C55.4168 76.1602 55.4511 76.1946 55.5199 76.229C54.7295 76.8827 54.7295 77.7429 54.9701 78.6375C54.9357 78.7408 54.9014 78.844 54.867 78.9472H54.7639Z" fill="#4A4F59"/>
<path d="M200.426 70.8268C200.22 71.6182 200.701 72.2375 201.045 72.8569C204.309 79.0503 206.027 85.7598 207.78 92.4694C209.773 100.074 211.181 107.781 212.59 115.523C213.656 121.441 214.515 127.428 215.408 133.346C216.405 139.849 217.435 146.352 218.329 152.855C219.085 158.326 219.703 163.831 220.391 169.302C221.009 174.188 221.731 179.04 222.315 183.926C222.624 186.334 222.762 188.777 222.968 191.186C222.968 191.358 222.968 191.633 222.899 191.633C221.628 192.149 220.253 191.874 218.947 191.805C218.054 191.736 218.432 190.876 218.363 190.326C217.848 185.887 217.332 181.448 216.783 177.01C216.301 173.122 215.855 169.233 215.339 165.345C214.755 160.907 214.205 156.468 213.587 152.03C212.968 147.66 212.315 143.29 211.697 138.92C211.113 134.998 210.632 131.041 209.944 127.118C208.673 119.72 207.436 112.323 205.993 104.925C204.206 95.8069 202.007 86.7577 198.639 78.0525C198.364 77.3643 198.33 76.4697 197.368 76.2632C197.162 75.9536 196.921 75.6783 196.955 75.2654L197.162 75.0934C197.162 75.0934 196.99 75.0246 196.921 74.9901H196.99C197.024 74.5428 196.852 74.302 196.406 74.302C196.234 73.9923 195.925 73.7859 195.993 73.373C196.028 72.8224 196.096 72.3063 195.306 72.2719C195.1 71.9622 194.894 71.6526 194.653 71.3085C194.653 70.7924 194.722 70.2763 194 70.2418C193.897 70.1386 193.794 70.001 193.691 69.8978C193.588 69.7946 193.519 69.6913 193.416 69.5881C193.072 69.244 192.694 68.8999 192.351 68.5215C191.183 66.5946 189.258 65.4247 187.643 63.9108C187.506 63.8076 187.368 63.6699 187.231 63.5667C187.128 63.4979 187.025 63.4291 186.956 63.3603C186.887 62.9818 186.612 62.8786 186.269 62.8786C186.269 62.8786 185.959 62.6721 185.822 62.5689C185.581 62.5689 185.341 62.5001 185.238 62.2592C185.238 61.4678 184.688 61.5366 184.173 61.571C183.932 61.571 183.692 61.5711 183.554 61.2614C182.97 59.9539 181.767 59.7474 180.565 59.5754L180.461 59.6786C180.118 58.8184 179.293 58.784 178.572 58.5087C169.74 55.1024 160.463 53.9325 151.15 53.2787C145.068 52.8658 138.986 52.2809 132.87 52.5218C131.426 52.5906 129.983 52.5218 128.54 52.5218C128.128 52.5218 127.509 52.7626 127.337 52.2465C127.131 51.6616 127.784 51.5927 128.162 51.3863C128.643 51.111 129.296 50.8702 129.365 50.3197C129.502 49.0466 130.361 49.253 131.186 49.2186C135.515 49.0122 139.845 49.4595 144.175 49.5971C147.886 49.7003 151.597 49.8035 155.274 50.3197C161.012 51.111 166.785 51.6616 172.421 53.1755C177.884 54.6895 183.314 56.2378 188.09 59.4378C188.743 59.8507 189.361 60.7797 190.427 60.298C190.53 60.298 190.564 60.3668 190.598 60.4356C190.942 61.7087 191.767 62.3624 193.107 62.2936C193.244 62.2936 193.313 62.3968 193.279 62.5345C193.244 62.5345 193.21 62.5689 193.176 62.6033C193.176 62.6033 193.244 62.6721 193.279 62.6721C193.279 62.6377 193.279 62.6033 193.313 62.5345C193.416 62.6033 193.519 62.6721 193.622 62.7409C193.416 63.2226 193.76 63.1538 194.035 63.1882C194.241 64.3581 194.928 65.0118 196.096 65.2183C196.199 65.3215 196.268 65.3903 196.371 65.4936C196.371 66.0097 196.199 66.6978 197.162 66.3193C197.23 66.3193 197.265 66.3882 197.299 66.457C197.265 67.3172 197.402 68.0053 198.502 67.9709C198.605 67.9709 198.639 68.0397 198.639 68.143C198.33 69.6569 199.361 70.2763 200.426 70.8956V70.8268Z" fill="#80494C"/>
<path d="M202.04 51.524C200.288 51.6272 199.085 50.8358 198.432 49.3219C197.814 47.808 198.295 46.122 199.807 44.8833C203.552 41.7866 207.367 38.7243 211.112 35.6619C212.968 34.148 214.789 32.5996 216.61 31.0857C218.638 29.3653 220.734 29.2277 222.211 30.776C223.689 32.3244 223.517 35.0082 221.661 36.6942C217.194 40.7543 212.315 44.3672 207.676 48.2208C206.782 48.9778 205.855 49.7004 204.927 50.3885C204.033 51.0767 203.14 51.696 202.006 51.5584L202.04 51.524Z" fill="#FF918E"/>
<path d="M56.1391 48.324C56.0704 49.3906 55.5549 50.4917 54.3523 51.1798C52.9778 51.9368 51.5345 51.8336 50.2975 50.9046C48.3388 49.4594 46.4146 47.9455 44.559 46.3971C40.7448 43.266 36.9305 40.1005 33.1507 36.9349C32.2229 36.1436 31.2264 35.3522 31.0889 34.0103C30.9171 32.4963 31.1576 31.1544 32.6352 30.2598C34.2159 29.2964 35.6935 29.3652 37.1023 30.5007C41.2946 33.907 45.4524 37.3134 49.6103 40.7198C51.2596 42.0617 52.8747 43.3692 54.4897 44.7111C55.5206 45.5713 56.2078 46.5692 56.1735 48.2896L56.1391 48.324Z" fill="#81B5EB"/>
<path d="M221.972 71.9966C220.048 71.9966 218.502 70.758 218.124 69.0032C217.78 67.4204 218.708 65.6656 220.46 65.0806C225.889 63.2914 231.387 61.571 236.851 59.8162C238.466 59.3001 240.081 58.6808 241.73 58.2335C244.789 57.4077 247.606 59.9883 246.851 62.8097C246.507 64.014 245.717 64.771 244.617 65.1151C237.435 67.4204 230.185 69.6225 223.003 71.8934C222.625 71.9966 222.247 71.9966 221.972 71.9966Z" fill="#FF918E"/>
<path d="M71.3613 18.0107C71.4301 15.9463 72.3578 14.7764 73.9385 14.1914C75.4848 13.6409 77.0311 13.7785 78.1994 15.1549C79.8488 17.1161 80.8454 19.4903 82.1511 21.6924C84.1441 25.0299 86.0684 28.3675 88.0271 31.7395C88.5082 32.5653 89.058 33.3567 89.1954 34.2857C89.436 35.9029 88.5082 37.6233 87.0993 38.3114C85.4843 39.1028 83.6631 38.7931 82.3573 37.4856C81.3952 36.5222 80.8797 35.2835 80.1925 34.148C77.5466 29.7094 75.0037 25.2364 72.4266 20.7978C71.8768 19.8343 71.2582 18.8709 71.3957 17.9763L71.3613 18.0107Z" fill="#6299D1"/>
<path d="M182.352 17.5977C182.455 18.5956 181.94 19.4213 181.493 20.2471C178.297 25.6836 175.102 31.1545 171.872 36.5909C170.944 38.1737 169.569 38.9651 167.714 38.7242C165.996 38.4833 164.965 37.4511 164.415 35.8339C164.106 34.9049 164.381 34.0791 164.827 33.2877C168.195 27.5416 171.494 21.7955 174.93 16.0838C176.064 14.1913 177.816 13.5376 179.603 14.0537C181.149 14.501 182.387 16.0838 182.387 17.5977H182.352Z" fill="#FF918E"/>
<path d="M30.9172 71.9279C29.5771 71.8247 27.6528 70.8957 25.6597 70.2419C20.8146 68.6936 16.0039 67.1108 11.1588 65.528C9.6125 65.0119 8.30673 64.2205 7.99747 62.4313C7.48203 59.4378 9.85304 57.3045 12.8769 58.268C19.6807 60.4012 26.4501 62.6378 33.1851 64.9431C35.1438 65.5968 36.1403 67.4893 35.7279 69.2785C35.3499 71.0677 33.9411 71.9967 30.8828 71.9279H30.9172Z" fill="#81B5EB"/>
<path d="M130.945 20.7632C130.945 23.9975 130.945 27.2318 130.945 30.4662C130.945 33.2188 129.468 34.8016 127.028 34.836C124.657 34.836 123.18 33.2876 123.145 30.6038C123.145 23.9631 123.111 17.3568 123.145 10.716C123.145 8.75478 124.417 7.44728 126.375 7.06879C128.059 6.72471 129.846 7.72254 130.636 9.2709C130.945 9.85584 130.911 10.4408 130.911 11.0601C130.911 14.2945 130.911 17.5288 130.911 20.7632H130.945Z" fill="#FF918E"/>
<path d="M226.232 93.2609C231.971 93.5705 237.984 93.8458 244.032 94.2243C246.094 94.3619 247.502 95.9791 247.399 97.8027C247.262 99.764 245.716 101.347 243.688 101.278C236.884 101.003 230.046 100.693 223.243 100.314C221.146 100.211 219.978 98.7317 220.047 96.6328C220.116 94.706 221.593 93.2953 223.621 93.2609C224.411 93.2609 225.167 93.2609 226.266 93.2609H226.232Z" fill="#FF918E"/>
<path d="M17.7212 101.312C15.4533 101.312 13.1854 101.312 10.8831 101.312C8.78697 101.312 7.13757 99.8672 7.00012 98.0092C6.86267 95.8415 8.031 94.4307 10.402 94.2243C13.8382 93.949 17.2401 93.777 20.6764 93.6049C23.5972 93.4673 26.5523 93.3297 29.4731 93.2609C31.8098 93.2264 33.3561 94.6716 33.3904 96.8049C33.3904 99.007 31.8441 100.59 29.5075 100.659C25.5558 100.727 21.6385 101.175 17.6868 101.347L17.7212 101.312Z" fill="#6299D1"/>
<path d="M190.461 60.2291C189.396 60.7108 188.777 59.7818 188.124 59.3689C183.313 56.1689 177.918 54.6206 172.455 53.1066C166.819 51.5583 161.047 51.0077 155.308 50.2508C151.631 49.7691 147.92 49.6314 144.209 49.5282C139.879 49.425 135.584 48.9433 131.22 49.1497C130.395 49.1841 129.536 48.9777 129.399 50.2508C129.33 50.8013 128.712 51.0422 128.196 51.3174C127.852 51.5239 127.2 51.6271 127.371 52.1776C127.543 52.6937 128.162 52.4529 128.574 52.4529C130.017 52.4529 131.461 52.5217 132.904 52.4529C139.02 52.2464 145.102 52.797 151.185 53.2099C160.497 53.8636 169.775 55.0335 178.606 58.4399C179.293 58.7151 180.152 58.7495 180.496 59.6097C179.568 59.6097 178.812 59.0936 178.022 58.7839C171.905 56.4442 165.514 55.3087 159.054 54.5174C154.896 54.0012 150.703 53.6228 146.511 53.5539C145.446 53.5539 144.415 53.4851 143.35 53.4507C142.456 53.0034 141.494 53.1754 140.532 53.2099C138.436 53.1066 136.34 52.969 134.244 52.969C130.979 52.969 127.749 52.5561 124.485 53.0722C124.382 53.0722 124.279 52.969 124.176 53.0034C117.131 53.2099 110.087 53.2443 103.077 53.7604C96.239 54.2765 89.4353 54.9991 82.7346 56.513C77.6834 57.6829 72.7695 59.2312 68.3368 62.0871C68.0275 62.2247 67.7526 62.3624 67.4434 62.4656C67.5464 60.9861 68.8866 60.9516 69.8144 60.5387C72.3228 59.3345 74.8656 58.1646 77.4772 57.2012C79.6764 56.4098 81.9443 55.8937 84.2466 55.4464C87.8546 54.7582 91.5314 54.4485 95.1395 53.6572C97.0981 53.2099 99.2629 53.2443 101.325 53.2099C104.211 53.141 107.063 52.9002 109.95 52.7626C114.554 52.5561 119.159 52.3497 123.763 52.4873C123.145 50.7325 122.011 50.2164 120.258 50.7669C119.709 50.9389 119.021 50.4916 119.021 49.9067C119.021 49.1497 119.777 49.4938 120.224 49.4594C121.186 49.3906 122.183 49.4594 123.145 49.2529C118.437 49.2874 113.73 48.8056 109.022 49.3562C106.479 49.6658 103.936 49.5282 101.393 49.7002C92.3905 50.3884 83.4562 51.4551 74.8656 54.3453C74.1784 54.5862 73.4224 55.1023 72.6321 54.5174C78.1644 52.4529 83.9029 51.2486 89.7446 50.3884C105.07 48.1175 120.499 48.2207 135.928 48.496C144.346 48.6336 152.765 49.1497 161.115 50.354C169.053 51.4895 176.819 53.0722 184.138 56.4442C186.337 57.442 188.468 58.6463 190.358 60.1603L190.461 60.2291Z" fill="#535157"/>
<path d="M72.5305 54.655C72.5992 55.5152 71.7745 55.5152 71.3278 55.7217C68.407 56.926 65.658 58.3711 63.0465 60.1259C62.7029 60.3667 62.3936 60.5732 62.0156 60.2291C65.2113 57.7862 68.785 56.0313 72.5305 54.655Z" fill="#535157"/>
<path d="M54.3858 68.1431C53.7672 70.1043 52.9769 71.9623 51.2588 73.2354C52.0835 71.4118 53.0456 69.657 54.3858 68.1431Z" fill="#535157"/>
<path d="M193.142 62.2248C191.802 62.2593 190.977 61.6399 190.634 60.3668C191.562 60.8485 192.386 61.5023 193.142 62.2248Z" fill="#535157"/>
<path d="M200.428 70.8269C199.362 70.2075 198.331 69.5538 198.641 68.0742C199.259 68.9688 200.084 69.7602 200.428 70.8269Z" fill="#535157"/>
<path d="M196.096 65.184C194.928 64.9776 194.24 64.2894 194.034 63.1539C194.825 63.7389 195.512 64.3926 196.096 65.184Z" fill="#535157"/>
<path d="M198.503 67.902C197.404 67.9364 197.266 67.2483 197.3 66.3881C197.885 66.7321 198.125 67.3859 198.503 67.902Z" fill="#535157"/>
<path d="M55.3824 66.8011C55.4855 67.5925 55.3481 68.1775 54.3516 68.1431C54.5234 67.5581 54.9014 67.1452 55.3824 66.8011Z" fill="#535157"/>
<path d="M61.4316 60.8141C61.3629 61.5367 61.1567 61.984 60.332 61.5711C60.71 61.3302 61.088 61.0549 61.4316 60.8141Z" fill="#535157"/>
<path d="M197.162 66.2505C196.2 66.6634 196.406 65.9408 196.372 65.4247C196.647 65.6999 196.888 65.9752 197.162 66.2505Z" fill="#535157"/>
<path d="M55.8285 66.0786C56.1722 66.6291 55.9316 66.8356 55.3818 66.8356C55.5193 66.5947 55.6911 66.3195 55.8285 66.0786Z" fill="#535157"/>
<path d="M59.8159 62.053C59.9877 62.5347 59.644 62.5003 59.3691 62.5347C59.5066 62.3626 59.6784 62.225 59.8159 62.053Z" fill="#535157"/>
<path d="M61.8432 60.3668C62.015 60.8485 61.6714 60.8141 61.3965 60.8141C61.5339 60.6765 61.7057 60.5045 61.8432 60.3668Z" fill="#535157"/>
<path d="M56.4479 65.4592C56.4479 65.7345 56.4479 66.113 55.9668 65.9409C56.1386 65.7689 56.2761 65.6313 56.4479 65.4592Z" fill="#535157"/>
<path d="M194.07 63.154C193.795 63.154 193.417 63.2228 193.658 62.7067C193.795 62.8443 193.933 62.9819 194.07 63.154Z" fill="#535157"/>
<path d="M60.1248 61.7775C60.1248 61.7775 60.2286 61.8467 60.2286 61.8814C60.1594 62.0199 60.0902 62.0199 60.0557 61.8814L60.1248 61.8121V61.7775Z" fill="#535157"/>
<path d="M193.348 62.5002C193.348 62.5002 193.348 62.5695 193.314 62.6388C193.314 62.6388 193.245 62.5695 193.21 62.5695C193.245 62.5695 193.279 62.5349 193.314 62.5002H193.348Z" fill="#535157"/>
<path d="M163.658 192.631C162.765 192.631 161.837 192.631 160.944 192.631C158.057 192.631 155.171 192.597 152.285 192.597C143.178 192.631 134.072 192.7 124.966 192.734C124.863 192.665 124.76 192.631 124.657 192.562C124.657 192.115 124.657 191.668 124.657 191.22C124.657 171.952 124.657 152.683 124.588 133.415C124.588 129.011 124.52 124.606 124.485 120.237C124.52 120.168 124.554 120.065 124.588 119.996C127.99 117.312 131.358 114.594 134.76 111.91C140.258 107.575 145.721 103.17 151.494 99.2478C152.01 99.2478 152.525 99.3167 152.525 98.5597C153.281 98.6285 153.865 98.4909 153.865 97.5619C154.415 97.6307 154.896 97.5619 154.862 96.8049C155.274 96.4952 155.686 96.1855 156.099 95.8759C156.236 95.7726 156.408 95.6694 156.545 95.5318C157.198 95.0845 157.817 94.6372 158.47 94.1899C158.607 94.0867 158.745 93.9834 158.882 93.8802C158.882 93.8802 159.088 93.7082 159.191 93.6394C159.26 93.5705 159.363 93.5361 159.466 93.5361C159.604 93.4329 159.741 93.3297 159.879 93.2265C159.982 93.1576 160.085 93.0544 160.188 92.9856C160.394 92.848 160.635 92.7103 160.841 92.5727C160.944 92.4695 161.081 92.4007 161.184 92.2975C162.903 91.0932 164.586 89.8545 166.407 88.8911C166.579 88.7878 166.717 88.6846 166.889 88.5814C166.992 88.4782 167.095 88.4093 167.198 88.3061C167.267 88.2373 167.37 88.2029 167.473 88.2029C167.61 88.0997 167.748 87.9965 167.919 87.8932C167.919 87.8932 168.126 87.7212 168.229 87.6524C168.297 87.5836 168.4 87.5492 168.504 87.5492C169.019 87.5492 169.569 87.6524 169.603 86.861C169.603 86.861 169.844 86.689 169.981 86.5513C170.084 86.4825 170.187 86.4137 170.256 86.3105C170.359 86.2416 170.428 86.2072 170.531 86.1728C170.668 86.0696 170.806 85.9664 170.943 85.8632H171.012H171.115C171.287 85.7255 171.459 85.6223 171.596 85.4847C171.768 85.3815 171.94 85.2782 172.112 85.2094L172.593 84.8653C172.593 84.8653 172.799 84.6933 172.902 84.6245C172.971 84.5557 173.074 84.5557 173.143 84.5213L173.589 84.2116L173.658 84.1772H173.727C173.727 84.1772 174.07 83.9363 174.208 83.8331C174.38 83.7299 174.551 83.6266 174.723 83.5234C174.895 83.4202 175.032 83.317 175.204 83.2138C175.41 83.1105 175.582 82.9729 175.788 82.8697C175.926 82.7664 176.063 82.6632 176.201 82.56H176.269L176.373 82.5256C176.888 82.5256 177.507 82.6632 177.507 81.8374C177.507 81.8374 177.747 81.6654 177.85 81.5622C177.919 81.5278 177.988 81.4934 178.056 81.4934C178.228 81.3901 178.366 81.2869 178.537 81.1837C178.537 81.1837 178.744 81.0461 178.847 80.9428C179.156 80.8052 179.465 80.6332 179.74 80.4955C180.29 80.5299 180.84 80.5987 180.874 79.773C181.046 79.6697 181.252 79.5665 181.424 79.4977C181.561 79.3945 181.733 79.2912 181.871 79.188L181.939 79.1536H182.042C182.558 79.1536 183.176 79.2913 183.211 78.4655C183.417 78.3622 183.589 78.259 183.795 78.1558C183.932 78.0526 184.07 77.9493 184.207 77.8805C184.276 77.8461 184.345 77.8117 184.413 77.8461C184.585 77.7429 184.723 77.6397 184.894 77.5364C184.929 77.502 184.998 77.4676 185.066 77.4676C186.338 77.2612 186.922 77.7429 187.403 79.0504C189.327 84.4524 190.392 90.0265 191.251 95.6694C192.007 100.59 192.489 105.545 193.691 110.362C194.516 113.665 194.894 117.002 195.203 120.34C195.581 124.469 195.959 128.598 196.406 132.727C197.093 139.368 197.712 146.043 198.227 152.718C198.674 158.395 199.155 164.038 199.361 169.75C199.43 171.436 199.464 173.191 199.705 174.876C200.392 180.038 200.736 185.268 200.529 190.463C200.495 191.805 200.804 191.874 201.869 191.874C206.199 191.84 210.529 191.289 214.858 191.53C215.443 191.53 216.096 191.323 216.611 191.805C200.083 192.493 183.554 192.562 167.026 192.562C165.961 192.562 164.93 192.597 163.865 192.631C163.762 192.562 163.658 192.562 163.555 192.631H163.658Z" fill="#FF918E"/>
<path d="M236.748 221.671C234.583 222.944 232.075 223.047 229.704 223.219C221.594 223.873 213.45 224.149 205.307 224.389C197.85 224.63 190.428 224.389 182.971 224.63C156.856 225.353 130.706 225.043 104.59 224.837C90.4674 224.733 76.3445 224.94 62.2559 224.527C57.1359 224.389 52.0503 224.561 46.9303 224.252C41.7759 223.908 36.6216 224.045 31.5016 223.598C26.897 223.185 22.2581 222.875 17.7566 221.637C17.6879 218.265 18.0315 214.893 18.8219 211.624C19.8871 207.289 21.4678 203.16 24.6978 199.925C24.8353 199.788 24.9384 199.65 25.0758 199.512C25.0758 199.409 25.0758 199.306 25.1445 199.203C28.7526 200.201 32.4637 200.338 36.1405 200.51C42.1883 200.786 48.2361 200.613 54.2495 201.302C58.0637 201.749 61.8436 201.164 65.6578 201.439C72.8395 201.99 80.09 201.577 87.3061 201.783C94.0068 201.99 100.707 201.955 107.408 201.955C125.517 201.955 143.66 201.508 161.769 202.162C163.213 202.231 164.69 201.646 166.065 201.955C169.329 202.678 172.594 202.093 175.789 202.024C179.294 201.921 182.868 201.887 186.407 201.646C191.94 201.302 197.506 201.542 203.039 201.198C205.513 201.061 208.021 201.026 210.495 200.958C217.024 200.717 223.553 200.407 230.013 199.512C231.869 201.164 233.003 203.366 233.965 205.568C236.13 210.695 237.023 216.063 236.714 221.637L236.748 221.671ZM223.038 203.263C223.038 202.678 222.66 202.644 222.179 202.575C217.505 201.818 212.832 201.99 208.159 202.299C207.678 202.299 207.471 202.575 207.197 203.056C206.441 203.366 205.478 203.366 205.032 204.261C204.482 204.295 204.482 204.57 204.619 205.052C204.791 205.671 205.1 206.016 205.753 205.912C205.753 206.704 206.475 206.704 206.956 206.807C211.801 207.874 216.646 207.874 221.526 207.048C222.007 206.979 222.728 207.117 222.797 206.256C223.141 206.016 223.45 205.809 223.794 205.568C225.065 204.674 225.031 204.261 223.69 203.607C223.622 203.607 223.519 203.607 223.45 203.538C223.347 203.435 223.209 203.332 223.106 203.263H223.038Z" fill="#5E5E5E"/>
<path d="M216.714 191.805C216.198 191.323 215.545 191.564 214.961 191.53C210.631 191.289 206.302 191.84 201.972 191.874C200.907 191.874 200.563 191.805 200.632 190.463C200.804 185.268 200.495 180.038 199.807 174.876C199.567 173.19 199.532 171.436 199.464 169.75C199.258 164.072 198.811 158.395 198.33 152.718C197.78 146.043 197.196 139.402 196.509 132.727C196.062 128.598 195.684 124.469 195.306 120.34C194.997 117.002 194.619 113.63 193.794 110.362C192.591 105.544 192.145 100.555 191.354 95.6693C190.461 90.0264 189.43 84.4524 187.506 79.0503C187.059 77.7772 186.475 77.2611 185.169 77.4675C185.581 77.1579 185.959 76.8482 186.372 76.5385C186.681 76.5385 187.128 76.5729 187.231 76.2289C187.712 74.8525 188.433 73.5795 188.708 72.0655C189.327 68.5559 189.361 68.5215 192.351 68.5215C192.385 69.2096 192.763 69.6225 193.416 69.7946C193.416 69.7946 193.622 70.0698 193.76 70.1731C193.76 70.4483 193.794 70.758 194.172 70.7924H194.138C194.241 70.93 194.344 71.0677 194.447 71.2053C194.55 71.9279 194.687 72.6848 195.615 72.8225C195.753 72.9945 195.924 73.1666 196.062 73.3386C195.993 73.7515 196.302 73.9579 196.474 74.2676C196.612 74.5429 196.646 74.9214 197.058 74.9558H196.99C196.99 74.9902 196.955 75.0246 196.955 75.059C196.955 75.1278 197.024 75.1966 197.024 75.2654C197.024 75.6783 197.23 75.9536 197.436 76.2633C201.835 87.0674 204.274 98.3876 206.439 109.811C207.882 117.381 209.12 124.95 210.322 132.555C211.491 139.952 212.418 147.35 213.415 154.748C214.274 161.113 215.167 167.479 215.958 173.844C216.679 179.625 217.298 185.405 217.951 191.186C218.088 192.356 217.195 191.736 216.714 191.84V191.805Z" fill="#FF5F5C"/>
<path d="M124.52 120.271C124.52 124.675 124.623 129.08 124.623 133.449C124.623 152.718 124.658 171.986 124.692 191.255C124.692 191.702 124.692 192.149 124.692 192.597C124.554 192.665 124.417 192.734 124.28 192.803C119.228 192.321 114.143 192.528 109.091 192.665C106.686 192.665 104.281 192.665 101.875 192.665C95.9649 192.631 90.089 192.597 84.1786 192.493C72.4954 192.287 60.8122 192.115 49.1633 191.771C45.8302 191.668 42.497 191.633 39.1639 191.496C37.8238 191.427 37.4114 191.048 37.6176 189.534C38.2705 184.683 38.6141 179.831 39.1295 174.945C39.7137 169.027 40.3322 163.143 40.9507 157.225C41.5349 151.823 42.1534 146.421 42.8063 141.019C43.3561 136.615 43.9059 132.211 44.5588 127.841C45.3835 122.095 46.1051 116.314 47.2047 110.602C48.4417 104.031 49.7475 97.493 51.2938 90.9899C52.2903 86.9298 53.6305 82.9729 54.8331 78.9816C54.8675 78.8783 54.9019 78.7751 54.9362 78.6719C55.3829 77.9493 55.6922 77.1924 55.8984 76.3666C56.0358 76.1257 56.1733 75.8504 56.3107 75.6096C56.5856 75.0591 56.8605 74.5085 57.1698 73.9236C57.2385 73.8548 57.3072 73.7516 57.3072 73.6483C57.4447 73.4763 57.5821 73.3387 57.7196 73.1666C58.0632 73.8204 57.6509 74.3709 57.376 74.887C55.7266 77.8461 55.108 81.2181 53.7679 84.2804C52.7714 86.5857 52.737 89.2007 51.8436 91.5749C50.8815 94.1211 50.6409 96.8393 50.2286 99.5231C49.8506 102.069 49.1633 104.581 48.6135 107.093C48.0981 109.329 48.2012 111.566 47.617 113.768C46.6205 117.518 46.2082 121.407 45.5209 125.226C44.868 128.873 45.0399 132.624 43.9403 136.202C43.8028 136.684 43.6997 137.234 44.2152 137.544C44.7306 137.854 45.0055 137.337 45.3148 137.062C48.2012 134.619 50.7784 131.832 53.493 129.217C55.2798 127.497 57.1354 125.88 59.1284 124.056C58.4756 131.35 57.7196 138.37 57.2385 145.423C56.7918 152.511 56.5169 159.599 56.3451 166.687C56.2764 170.059 56.0702 184.992 56.8262 187.779V185.818C57.3416 186.438 56.998 187.195 57.1354 187.883C56.5856 188.949 56.0358 190.016 55.5204 191.048C58.0632 191.564 60.6404 191.599 63.2519 191.496C68.853 191.289 74.4197 191.977 80.0551 191.599C87.6836 191.117 95.3464 191.977 103.009 192.08C108.267 192.149 113.558 191.874 118.816 191.874C120.122 191.874 121.427 191.977 122.768 191.943C123.936 191.874 124.28 191.564 124.28 190.394C124.245 167.1 124.245 143.841 124.245 120.546C124.348 120.443 124.451 120.374 124.554 120.271H124.52ZM47.8232 190.945C47.8232 190.945 47.8232 191.048 47.8232 191.117H53.6992C53.6992 191.117 53.6992 191.014 53.6992 190.945H47.7888H47.8232Z" fill="#72A8DB"/>
<path d="M175.307 197.104C179.878 196.76 184.448 196.863 189.018 196.898C189.224 197.242 189.568 197.207 189.911 197.207C196.853 197.345 203.759 197.07 210.666 196.726C212.453 196.622 214.343 196.932 216.061 196.175C217.401 196.209 218.707 196.278 219.979 195.797C220.15 195.9 220.391 196.106 220.528 196.072C223.002 195.59 225.339 196.347 227.71 196.932C228.5 197.104 229.188 197.689 230.081 197.517C229.978 197.827 230.012 198.102 230.39 198.205H230.459C230.39 198.446 230.356 198.756 230.047 198.893C229.944 198.893 229.806 198.893 229.703 198.859C229.359 198.377 228.878 198.584 228.466 198.652C224.102 199.444 219.669 199.616 215.237 199.857C208.914 200.166 202.591 200.304 196.268 200.51C189.946 200.751 183.623 200.717 177.266 200.82C166.27 201.027 155.24 200.889 144.244 200.923C143.694 200.923 142.835 200.476 142.56 201.474C136.753 201.611 130.946 201.611 125.138 201.474C124.863 200.476 124.039 200.923 123.455 200.923C110.156 200.717 96.8924 201.027 83.5942 200.648C73.2167 200.338 62.8393 200.235 52.4618 199.96C45.6924 199.788 38.923 199.341 32.1537 199.168C30.3324 199.134 28.5112 198.756 26.7244 198.48C26.312 198.412 25.7622 198.308 25.6935 197.792C25.5904 197.138 26.2433 197.173 26.5869 197.035C29.817 195.969 33.2189 195.693 36.552 195.969C38.9918 196.175 41.4315 196.313 43.8369 196.416C51.0873 196.691 58.3722 196.829 65.6226 197.138C70.777 197.379 75.9657 197.379 81.1201 197.414C111.943 197.586 142.766 197.517 173.555 197.517C174.105 197.517 174.792 197.861 175.17 197.104H175.307Z" fill="#ADAFB7"/>
<path d="M230.08 198.893C230.39 198.756 230.39 198.446 230.493 198.171C233.894 198.446 236.197 200.614 237.984 203.125C241.042 207.392 242.141 212.381 242.073 217.577C242.073 220.054 240.011 221.499 236.747 221.637C237.056 216.063 236.197 210.695 233.998 205.603C233.07 203.366 231.901 201.199 230.046 199.547C230.046 199.341 230.046 199.1 230.046 198.893H230.08Z" fill="#5C5D5C"/>
<path d="M24.6635 199.891C21.4334 203.16 19.8528 207.289 18.7875 211.59C17.9628 214.858 17.6192 218.23 17.7223 221.602C13.8737 220.88 12.2243 219.331 12.7054 215.615C13.427 209.869 14.7328 204.364 19.3717 200.338C20.8836 199.031 22.4987 197.826 24.6635 197.826C24.7322 197.895 24.7666 197.998 24.7322 198.102C24.8353 198.239 24.9728 198.377 25.0759 198.515C25.0759 198.755 25.0759 198.962 25.1102 199.203C25.0759 199.306 25.0415 199.409 25.0415 199.512C24.904 199.65 24.801 199.788 24.6635 199.925V199.891Z" fill="#5C5D5C"/>
<path d="M24.7308 198.136C24.7308 198.136 24.7308 197.93 24.6621 197.861C24.7308 196.829 25.6243 196.863 26.3115 196.588C30.5381 194.936 34.9365 195.418 39.3005 195.659C43.2178 195.865 47.1351 196.037 51.0524 196.244C56.413 196.553 61.7735 196.416 67.134 196.588C69.1271 197.104 71.1544 196.829 73.1818 196.829C78.4049 196.863 83.628 196.898 88.8511 196.966C93.3182 197.448 97.7853 197.207 102.252 197.173C125.481 197.173 148.71 197.173 171.939 197.173C172.077 197.173 172.249 197.173 172.386 197.173C172.901 197.173 173.417 197.173 173.898 197.173C174.173 197.173 174.448 197.173 174.757 197.173C174.929 197.173 175.135 197.173 175.307 197.173C174.929 197.93 174.242 197.586 173.692 197.586C142.869 197.586 112.046 197.654 81.257 197.482C76.1026 197.482 70.9139 197.448 65.7595 197.207C58.5091 196.898 51.2242 196.76 43.9738 196.485C41.5684 196.381 39.0943 196.244 36.689 196.037C33.3558 195.762 29.9539 196.037 26.7239 197.104C26.3459 197.242 25.7273 197.207 25.8304 197.861C25.8992 198.377 26.449 198.515 26.8613 198.549C28.6825 198.824 30.4694 199.168 32.2906 199.237C39.06 199.409 45.8293 199.857 52.5987 200.029C62.9762 200.304 73.3536 200.407 83.7311 200.717C97.0293 201.095 110.293 200.786 123.591 200.992C124.176 200.992 125 200.545 125.275 201.543C119.124 201.474 112.939 201.405 106.788 201.371C90.1912 201.267 73.5942 201.233 56.9971 200.682C49.7123 200.442 42.4618 200.235 35.177 199.891C31.8095 199.719 28.4076 199.581 25.1432 198.583C25.0401 198.446 24.9026 198.308 24.7996 198.171L24.7308 198.136Z" fill="#B8B9BC"/>
<path d="M124.967 192.734C134.073 192.7 143.179 192.631 152.285 192.597C155.171 192.597 158.058 192.597 160.944 192.631C160.635 192.906 160.223 192.872 159.845 192.872C148.471 192.872 137.131 192.872 125.757 192.872C125.482 192.872 125.207 192.769 124.967 192.734Z" fill="#80494C"/>
<path d="M216.062 196.209C214.309 196.966 212.454 196.657 210.667 196.76C203.76 197.104 196.853 197.379 189.912 197.242C189.568 197.242 189.225 197.242 189.019 196.932C191.905 196.932 194.791 197.001 197.644 196.898C203.382 196.657 209.121 196.347 214.825 196.072C215.237 196.072 215.684 195.762 216.027 196.244L216.062 196.209Z" fill="#B8B9BC"/>
<path d="M230.116 197.517C229.223 197.723 228.536 197.138 227.745 196.932C225.409 196.381 223.072 195.624 220.563 196.072C220.392 196.072 220.185 195.9 220.014 195.796C223.587 195.177 226.921 195.831 230.116 197.517Z" fill="#B8B9BC"/>
<path d="M109.057 192.665C114.142 192.528 119.194 192.321 124.245 192.803C119.262 192.803 114.245 192.838 109.263 192.872C109.194 192.803 109.125 192.734 109.057 192.665Z" fill="#5B9EF1"/>
<path d="M102.219 197.173C97.7516 197.173 93.2845 197.448 88.8174 196.966C93.2845 196.863 97.7516 196.966 102.219 197.173Z" fill="#ADAFB7"/>
<path d="M109.056 192.665C109.056 192.665 109.193 192.803 109.262 192.872C106.788 192.872 104.314 193.181 101.84 192.665C104.245 192.665 106.651 192.665 109.056 192.665Z" fill="#4A4F59"/>
<path d="M73.1835 196.863C71.1561 196.863 69.1288 197.138 67.1357 196.622C69.1631 196.519 71.1905 196.588 73.1835 196.863Z" fill="#ADAFB7"/>
<path d="M174.758 197.104C174.484 197.104 174.209 197.104 173.899 197.104C174.174 196.932 174.449 196.932 174.758 197.104Z" fill="#ADAFB7"/>
<path d="M230.39 198.205C230.047 198.102 229.978 197.827 230.081 197.517C230.528 197.586 230.39 197.93 230.39 198.205Z" fill="#B8B9BC"/>
<path d="M163.659 192.631C163.659 192.631 163.865 192.562 163.968 192.631C163.865 192.803 163.762 192.803 163.659 192.631Z" fill="#80494C"/>
<path d="M58.1661 71.9279C57.9255 70.3452 58.9908 69.5882 60.1591 68.9C60.1591 69.657 59.3344 70.0355 59.2313 70.7581C58.8877 70.8613 58.7846 71.1709 58.7159 71.4806C58.7159 71.4806 58.3722 71.7903 58.2004 71.9623H58.1661V71.9279Z" fill="#535157"/>
<path d="M67.4796 62.5002C67.7889 62.3626 68.0638 62.2249 68.373 62.1217L68.4761 62.2249C67.617 63.3948 66.4144 64.0141 65.1429 64.5647L65.0742 64.4958C65.246 64.3238 65.3835 64.1174 65.5553 63.9453C65.8646 63.7045 66.1738 63.4636 66.5174 63.2228C66.758 63.0507 66.9985 62.8443 67.2391 62.6722C67.3421 62.6722 67.4452 62.6034 67.514 62.5346L67.4796 62.5002Z" fill="#72A8DB"/>
<path d="M59.2314 70.758C59.3345 70.0354 60.1592 69.6913 60.1592 68.9C60.2967 68.7967 60.4341 68.6591 60.5372 68.5559C60.7778 68.3494 61.0527 68.1774 61.2932 67.9709C61.3619 68.0742 61.4306 68.143 61.4994 68.2118C60.8808 69.1752 60.5716 70.4139 59.2658 70.7236L59.2314 70.758Z" fill="#72A8DB"/>
<path d="M55.8303 76.3322C55.6241 77.158 55.3492 77.915 54.8682 78.6376C54.6276 77.7429 54.6276 76.8828 55.418 76.229C55.418 76.229 55.6929 76.2978 55.8303 76.3322Z" fill="#535157"/>
<path d="M63.5268 65.5624C63.8704 65.2527 64.2484 64.943 64.592 64.5989C64.7638 64.5645 64.9013 64.4957 65.0731 64.4613L65.1418 64.5301C64.7982 65.4935 64.1453 66.1129 63.0801 66.1473C63.2175 65.9408 63.3893 65.7344 63.5268 65.5279V65.5624Z" fill="#72A8DB"/>
<path d="M57.65 73.1321C57.65 73.1321 57.3751 73.4418 57.2377 73.6138C57.1002 72.7881 57.1346 72.0999 58.1655 71.9279H58.1998C58.028 72.3063 57.8562 72.6848 57.7187 73.0633L57.65 73.1321Z" fill="#535157"/>
<path d="M57.101 73.8892C56.8261 74.4397 56.5512 74.9902 56.242 75.5751C55.6234 74.5773 56.4138 74.2676 57.101 73.8892Z" fill="#535157"/>
<path d="M61.2588 67.9709C61.2588 67.9709 61.3962 67.73 61.465 67.5924C61.7742 67.3171 62.1178 67.0419 62.4271 66.7666C62.4958 67.5236 61.9804 67.8677 61.465 68.2117C61.3962 68.1429 61.3275 68.0397 61.2588 67.9709Z" fill="#72A8DB"/>
<path d="M62.461 66.8011C62.1517 67.0764 61.8081 67.3517 61.4988 67.6269C61.4644 66.9044 61.9455 66.5259 62.461 66.2162C62.5297 66.285 62.6328 66.3538 62.7015 66.457C62.6328 66.5947 62.5297 66.6979 62.461 66.8355V66.8011Z" fill="#535157"/>
<path d="M65.0729 64.4615C65.0729 64.4615 64.7636 64.5647 64.5918 64.5991C64.5918 63.9453 65.0385 63.8765 65.5196 63.9109C65.3478 64.083 65.2103 64.2894 65.0385 64.4615H65.0729Z" fill="#535157"/>
<path d="M63.5272 65.5623C63.3897 65.7688 63.2179 65.9752 63.0804 66.1817C62.943 66.2505 62.8055 66.3537 62.7024 66.4225C62.6337 66.3537 62.5306 66.2849 62.4619 66.1817C62.6681 65.7344 63.0117 65.4935 63.5272 65.5279V65.5623Z" fill="#535157"/>
<path d="M67.2031 62.6378C66.9625 62.8098 66.722 63.0163 66.4814 63.1883C66.4814 62.7066 66.6876 62.5002 67.2031 62.6378Z" fill="#535157"/>
<path d="M55.4518 76.2294C55.4518 76.2294 55.3826 76.1948 55.3135 76.1602C55.3481 76.1602 55.3826 76.1948 55.4518 76.2294Z" fill="#535157"/>
<path d="M60.504 68.5558C60.504 68.5558 60.2291 68.7966 60.126 68.8999C60.2634 68.7966 60.4009 68.659 60.504 68.5558Z" fill="#535157"/>
<path d="M192.351 68.5216C189.362 68.5216 189.327 68.556 188.709 72.0656C188.434 73.5795 187.712 74.8526 187.231 76.2289C187.094 76.6074 186.681 76.5042 186.372 76.5386C186.235 76.2633 186.097 75.9881 185.994 75.7128C185.994 74.9214 186.063 74.0957 184.963 73.8892C184.963 73.8892 184.757 73.6483 184.654 73.5451C184.62 73.4763 184.585 73.4075 184.62 73.3387C184.517 73.1666 184.413 73.029 184.31 72.857C184.276 72.8226 184.242 72.7537 184.276 72.6849C184.276 72.1688 184.413 71.5495 183.589 71.5495C183.589 71.5495 183.554 71.2742 183.52 71.1022C183.451 71.2054 183.383 71.343 183.314 71.4462C183.108 71.4462 182.902 71.5151 182.73 71.5151C183.108 70.4484 182.317 69.7258 181.939 68.8656C182.283 68.3151 181.733 68.6248 181.63 68.5216C180.737 67.7646 179.843 67.0076 178.95 66.2162C178.95 65.4593 178.434 65.4937 177.919 65.5281C177.919 65.0808 177.85 64.5991 177.266 65.2184C176.51 64.8399 175.72 64.4958 174.964 64.1174C174.861 63.2916 174.07 63.3604 173.555 63.1883C171.734 62.5346 169.775 62.397 167.92 61.9152C163.899 60.8486 159.844 59.9884 155.79 59.2658C154.415 59.025 152.697 58.5777 151.563 60.1604C151.494 60.1948 151.426 60.2293 151.357 60.1948L150.91 60.4701C150.91 60.4701 150.738 60.5389 150.635 60.5389C150.498 60.6422 150.36 60.711 150.223 60.8142C149.914 60.9518 149.604 61.0895 149.295 61.2271C148.161 61.1927 147.096 61.3303 146.546 62.5346C146.477 62.569 146.409 62.6034 146.34 62.569C146.202 62.6722 146.031 62.741 145.893 62.8443C145.824 62.8787 145.756 62.9131 145.653 62.9131C145.515 63.0163 145.378 63.0851 145.24 63.1883C144.897 63.326 144.587 63.4636 144.244 63.6012C143.797 63.0507 143.625 63.326 143.557 63.8421C143.453 63.8421 143.35 63.8765 143.247 63.9109C143.144 64.0141 143.041 64.0829 142.904 64.1862C142.801 64.1862 142.698 64.2206 142.56 64.255C140.43 64.6335 138.677 65.9066 136.822 66.87C136.822 66.87 136.856 67.1108 136.89 67.2485C135.894 67.8678 134.966 68.6592 133.695 68.5904C133.213 68.5904 132.87 68.6936 132.87 69.2785C132.87 69.2785 132.629 69.4506 132.526 69.5538C132.457 69.5882 132.389 69.6226 132.286 69.6226C132.148 69.6914 132.011 69.7947 131.839 69.8635C131.736 69.8635 131.633 69.8979 131.495 69.9323C130.739 69.9667 129.949 69.9323 129.812 70.9645C129.605 71.0678 129.399 71.171 129.193 71.2742C129.056 71.3774 128.953 71.4462 128.815 71.5495C128.746 71.5839 128.678 71.6183 128.575 71.6183C127.784 71.6183 126.994 71.5839 126.788 72.6161C126.788 72.6161 126.547 72.7881 126.444 72.857C126.375 72.8914 126.272 72.9258 126.169 72.9258C124.967 72.9946 125.07 72.1344 125.07 71.343C125.07 66.2851 125.138 61.1927 125.07 56.1347C125.07 54.4487 125.241 53.5197 127.303 53.5541C131.461 53.6229 135.619 53.3133 139.777 53.7262C141.976 53.967 144.244 54.2767 146.443 53.5541C150.635 53.6229 154.827 54.0014 158.985 54.5175C165.445 55.3089 171.837 56.4788 177.953 58.7841C178.778 59.0938 179.5 59.6099 180.427 59.6099L180.53 59.5067C181.39 60.3325 182.489 60.711 183.52 61.1927C183.623 61.4679 183.864 61.5023 184.139 61.5023C184.482 61.7432 184.86 61.9497 185.204 62.1905C185.307 62.4658 185.513 62.5002 185.788 62.5002C185.925 62.6034 186.097 62.7066 186.235 62.8443C186.475 63.0163 186.681 63.1539 186.922 63.326C187.025 63.3948 187.128 63.4636 187.197 63.5324C187.334 63.6356 187.472 63.7733 187.609 63.8765C189.19 65.3904 191.114 66.5603 192.317 68.5216H192.351Z" fill="#FF918E"/>
<path d="M183.657 61.227C182.626 60.7109 181.492 60.3668 180.667 59.541C181.87 59.7131 183.107 59.9195 183.657 61.227Z" fill="#535157"/>
<path d="M195.547 72.7882C194.619 72.6506 194.516 71.8936 194.379 71.171C194.482 71.171 194.585 71.2054 194.654 71.2742C194.86 71.5839 195.066 71.8936 195.307 72.2377C195.375 72.4097 195.479 72.6162 195.547 72.7882Z" fill="#FF918E"/>
<path d="M193.416 69.7946C192.763 69.6225 192.385 69.2096 192.351 68.5215C192.694 68.8656 193.072 69.2096 193.416 69.5537C193.416 69.6225 193.416 69.6914 193.416 69.7946Z" fill="#FF918E"/>
<path d="M195.548 72.7881C195.479 72.5816 195.376 72.4096 195.308 72.2375C196.098 72.2375 196.029 72.7881 195.995 73.3386C195.857 73.1666 195.686 72.9945 195.548 72.8225V72.7881Z" fill="#535157"/>
<path d="M185.307 62.2249C184.964 61.984 184.586 61.7776 184.242 61.5367C184.792 61.4679 185.307 61.4335 185.307 62.2249Z" fill="#535157"/>
<path d="M194.653 71.2741C194.653 71.2741 194.481 71.1709 194.378 71.1709C194.275 71.0333 194.172 70.8957 194.069 70.758H194.103C194.069 70.5516 194 70.3795 193.966 70.1731C194.687 70.1731 194.653 70.6892 194.619 71.2053L194.653 71.2741Z" fill="#535157"/>
<path d="M196.99 74.9216C196.578 74.8871 196.578 74.4743 196.406 74.2334C196.853 74.2334 197.025 74.5087 196.99 74.9216Z" fill="#535157"/>
<path d="M186.991 63.3605C186.785 63.1885 186.544 63.0508 186.304 62.8788C186.647 62.8788 186.922 62.982 186.991 63.3605Z" fill="#535157"/>
<path d="M186.338 62.8786C186.338 62.8786 186.029 62.6722 185.892 62.5345C186.029 62.6378 186.201 62.741 186.338 62.8786Z" fill="#535157"/>
<path d="M196.955 75.2311C196.955 75.2311 196.887 75.0934 196.887 75.0246C196.887 75.0246 196.887 74.9558 196.921 74.9214C196.99 74.9558 197.093 74.9902 197.162 75.0246L196.955 75.1966V75.2311Z" fill="#535157"/>
<path d="M187.677 63.9109C187.677 63.9109 187.402 63.67 187.265 63.5668C187.402 63.67 187.54 63.8076 187.677 63.9109Z" fill="#535157"/>
<path d="M193.692 69.8634C193.692 69.8634 193.899 70.1042 194.002 70.2075C193.899 70.2075 193.795 70.1731 193.727 70.1387C193.727 70.0354 193.692 69.9322 193.692 69.829V69.8634Z" fill="#535157"/>
<path d="M193.416 69.7946C193.416 69.7946 193.416 69.6569 193.416 69.5537C193.519 69.6569 193.588 69.7602 193.691 69.8634C193.588 69.829 193.485 69.7946 193.382 69.7946H193.416Z" fill="#535157"/>
<path d="M68.3713 62.1215C72.804 59.2657 77.7178 57.7173 82.7691 56.5474C89.4698 54.9991 96.2735 54.2765 103.112 53.7948C110.156 53.2787 117.166 53.2099 124.21 53.0378C124.313 53.0378 124.416 53.1067 124.519 53.1067L124.588 53.2443C124.588 54.1045 124.588 54.9647 124.588 55.8593C124.588 55.9969 124.588 56.1001 124.588 56.2378C124.588 62.1559 124.588 68.0397 124.623 73.9579C124.588 74.0611 124.554 74.1643 124.519 74.2675C123.97 74.5084 123.454 74.7837 122.904 75.0245C123.317 73.9579 124.21 73.2009 124.21 71.859C124.141 66.0096 124.21 60.1259 123.935 54.2765C123.901 53.3819 123.454 53.554 123.007 53.5884C120.843 53.6228 118.678 53.7604 116.547 53.8292C112.733 53.9324 108.885 54.0357 105.07 54.2765C101.703 54.483 98.3353 54.5862 95.0021 55.1711C92.4937 55.6184 89.9509 55.8937 87.4424 56.2378C87.0644 56.2378 86.6521 56.2378 86.2741 56.341C84.3842 56.8571 82.4599 57.2356 80.5699 57.8894C78.4051 58.6119 76.2746 59.3689 74.1098 60.0571C72.1511 60.6764 70.5705 62.1559 68.44 62.2248L68.3369 62.1215H68.3713Z" fill="#72A8DB"/>
<path d="M124.623 56.2036C124.623 56.2036 124.623 55.9627 124.623 55.8251C125.001 54.9649 125.036 54.0703 124.623 53.2101L124.555 53.0725C127.785 52.5563 131.049 52.9692 134.314 52.9692C136.41 52.9692 138.506 53.1413 140.602 53.2101C141.495 53.795 142.492 53.3821 143.42 53.4509C144.485 53.4509 145.516 53.5198 146.581 53.5542C144.382 54.2767 142.114 53.9671 139.915 53.7262C135.757 53.2789 131.599 53.623 127.441 53.5542C125.379 53.5198 125.173 54.4488 125.208 56.1348C125.311 61.1927 125.242 66.2851 125.208 71.3431C125.208 72.1345 125.104 72.9946 126.307 72.9258C125.826 73.2355 125.379 73.5452 124.898 73.8204C124.898 68.5216 124.898 63.2572 124.898 57.9584C124.898 57.3734 125.104 56.7197 124.658 56.2036H124.623Z" fill="#FF5F5C"/>
<path d="M143.42 53.4509C142.492 53.3821 141.496 53.795 140.603 53.21C141.565 53.21 142.527 53.0036 143.42 53.4509Z" fill="#FF918E"/>
<path d="M122.939 74.9558C123.489 74.715 124.004 74.4397 124.554 74.1989C124.554 74.9214 124.554 75.644 124.554 76.3665C124.554 90.9211 124.554 105.476 124.589 120.03C124.554 120.099 124.52 120.202 124.486 120.271C124.382 120.374 124.279 120.443 124.176 120.546C119.125 124.4 114.52 128.77 109.847 133.071C109.504 133.312 109.057 133.518 109.16 134.034C108.885 134 108.782 134.103 108.816 134.378C108.541 134.344 108.438 134.447 108.473 134.722C108.129 134.585 107.923 134.826 107.751 135.066C107.442 135.376 107.098 135.686 106.789 135.996L106.445 136.408C106.342 136.512 106.205 136.649 106.102 136.752C106.102 136.752 105.861 136.959 105.758 137.097C105.758 137.097 105.517 137.303 105.414 137.441C105.414 137.441 105.105 137.647 104.933 137.785C103.559 139.023 102.219 140.262 100.844 141.501C100.707 141.604 100.569 141.742 100.432 141.845C100.329 141.948 100.191 142.086 100.088 142.189C100.088 142.189 99.8477 142.43 99.7446 142.567V143.152C99.4697 143.118 99.3666 143.221 99.401 143.496C99.1604 143.496 99.023 143.565 99.0573 143.841C98.8168 143.841 98.6794 143.909 98.7137 144.185C98.4388 144.15 98.3357 144.253 98.3701 144.529C98.0952 144.494 97.9921 144.597 98.0265 144.873C97.7516 144.838 97.6485 144.942 97.6828 145.217C97.3392 145.079 97.133 145.32 96.9612 145.561C96.652 145.871 96.3427 146.215 95.9991 146.524C95.7586 146.696 95.518 146.868 95.6555 147.247C95.3806 147.212 95.2775 147.316 95.3118 147.591H94.7277C94.7277 147.591 94.4528 147.866 94.3153 147.969C94.3153 147.969 94.0748 148.176 93.9717 148.314C93.9717 148.314 93.7312 148.52 93.6281 148.658C93.6281 148.658 93.3875 148.864 93.2501 149.002C93.2501 149.002 93.0096 149.208 92.8721 149.346C92.8721 149.346 92.6316 149.587 92.5285 149.724C92.5285 149.931 92.5285 150.103 92.5285 150.309C92.2879 150.275 92.1505 150.378 92.1849 150.653C91.9787 150.653 91.8069 150.653 91.6007 150.653C91.4633 150.757 91.3258 150.894 91.2227 150.997C91.0853 151.135 90.9822 151.238 90.8447 151.341C90.7416 151.479 90.6042 151.582 90.5011 151.72C90.5011 151.72 90.2606 151.926 90.1231 152.064C90.1231 152.064 89.8826 152.305 89.7795 152.442C89.7795 152.649 89.7795 152.821 89.7795 153.027C89.5046 152.993 89.4015 153.096 89.4359 153.372C89.1953 153.337 89.0579 153.44 89.0922 153.716C88.8173 153.681 88.7143 153.784 88.7486 154.06C88.5425 154.06 88.3706 154.06 88.1645 154.06C88.027 154.163 87.8896 154.301 87.7865 154.404C87.7865 154.404 87.5459 154.61 87.4429 154.748C87.4429 154.748 87.2023 154.954 87.0992 155.092C87.0992 155.092 86.8587 155.333 86.7556 155.47C86.6525 155.574 86.5838 155.642 86.4807 155.746C86.3433 155.849 86.2058 155.987 86.0684 156.09C86.0684 156.09 85.8278 156.365 85.7247 156.503C85.6216 156.675 85.4842 156.881 85.3811 157.053C84.7282 157.741 84.0753 158.395 83.3881 159.083C76.172 166.447 69.2651 174.051 62.427 181.758C60.5027 183.926 58.8877 186.334 56.6198 188.192C56.4823 187.504 56.826 186.747 56.3105 186.128C56.1731 175.565 56.1731 165.001 56.6541 154.473C56.7572 152.374 56.7916 150.24 56.9978 148.176C57.7194 141.398 58.0286 134.585 58.7159 127.806C58.8877 126.224 58.4066 124.297 59.9873 123.024C59.9873 123.024 60.2278 122.783 60.3309 122.68C60.3309 122.68 60.5715 122.473 60.6745 122.336C60.7776 122.232 60.9151 122.095 61.0182 121.991C61.1213 121.888 61.2587 121.751 61.3618 121.647C61.568 121.647 61.7054 121.544 61.7054 121.303H61.8772L62.0147 121.235C62.1865 121.097 62.3927 120.994 62.5645 120.856C71.9798 112.46 81.67 104.375 91.7038 96.7016C100.844 89.6824 110.191 83.0073 119.915 76.8827C120.293 76.7794 120.637 76.6074 120.843 76.2633H120.877C121.496 76.0569 122.08 75.7816 122.493 75.2655H122.527L122.939 74.9558Z" fill="#C0DFF5"/>
<path d="M124.623 120.03C124.623 105.476 124.623 90.921 124.589 76.3665C124.589 75.6439 124.589 74.9213 124.589 74.1988C124.623 74.0956 124.658 73.9923 124.692 73.8891C124.761 73.8891 124.829 73.8203 124.932 73.8203C125.414 73.5106 125.86 73.2009 126.341 72.9257C126.444 72.9257 126.513 72.9257 126.616 72.8569C126.719 72.7536 126.857 72.6848 126.96 72.5816C127.613 72.3751 128.197 72.0311 128.747 71.5838C128.815 71.5838 128.919 71.5838 128.987 71.515C129.125 71.4117 129.228 71.3429 129.365 71.2397C129.571 71.1365 129.778 71.0332 129.984 70.93C130.602 70.6892 131.255 70.4827 131.668 69.8978C131.771 69.8978 131.874 69.8634 132.011 69.829C132.149 69.7601 132.286 69.6569 132.458 69.5881C132.527 69.5881 132.63 69.5881 132.698 69.5193C132.801 69.4161 132.939 69.3128 133.042 69.244C133.454 69.1752 133.798 69.0376 133.867 68.5559C135.138 68.6247 136.066 67.8333 137.062 67.214C138.987 66.2849 141.014 65.528 142.732 64.1861C142.835 64.1861 142.938 64.1517 143.076 64.1172C143.179 64.014 143.282 63.9452 143.419 63.842C143.523 63.842 143.626 63.8076 143.729 63.7732C144.004 63.8076 144.244 63.7732 144.416 63.5323C144.76 63.3947 145.069 63.257 145.412 63.1194C145.55 63.0162 145.687 62.9474 145.825 62.8442C145.894 62.8442 145.997 62.8441 146.065 62.7753C146.203 62.6721 146.375 62.6033 146.512 62.5001C146.581 62.5001 146.65 62.5001 146.718 62.4657C147.646 62.0184 148.539 61.6055 149.467 61.1582C149.776 61.0205 150.086 60.8829 150.395 60.7453C150.532 60.642 150.67 60.5732 150.807 60.47C150.91 60.47 150.979 60.47 151.082 60.4012C151.22 60.298 151.392 60.2291 151.529 60.1259C151.598 60.1259 151.666 60.1259 151.735 60.0915C152.663 59.9539 153.453 59.2657 154.45 59.4722C159.157 60.3668 163.934 61.0205 168.47 62.7065C165.892 62.7065 163.831 63.7388 163.59 65.3215C163.247 67.558 164.965 68.5215 166.545 69.4849C169.604 71.3773 172.937 72.5128 176.442 73.0289C178.71 73.3386 181.149 73.6138 182.902 71.4805C183.108 71.4805 183.314 71.4117 183.486 71.4117C183.555 71.4805 183.658 71.515 183.761 71.5494C183.83 72.0311 184.139 72.3752 184.448 72.6848C184.448 72.7536 184.448 72.8225 184.483 72.8569C184.586 73.0289 184.689 73.1665 184.792 73.3386C184.792 73.4074 184.792 73.4762 184.826 73.545C184.929 73.6482 185.032 73.7859 185.135 73.8891C185.273 74.6117 185.616 75.1966 186.132 75.7127C186.269 75.988 186.407 76.2632 186.51 76.5385C186.098 76.8482 185.72 77.1579 185.307 77.4675C185.238 77.4675 185.204 77.4675 185.135 77.5363C184.964 77.6396 184.826 77.7428 184.654 77.846C184.586 77.846 184.517 77.846 184.448 77.8804C184.311 77.9836 184.173 78.0869 184.036 78.1557C183.83 78.2589 183.658 78.3621 183.452 78.4654C183.074 78.7062 182.696 78.9127 182.283 79.1535H182.18L182.112 79.1879C181.974 79.2911 181.802 79.3944 181.665 79.4976C181.493 79.6008 181.287 79.704 181.115 79.7729C180.737 80.0137 180.359 80.2546 179.981 80.4954C179.672 80.6331 179.363 80.8051 179.088 80.9427C178.985 81.0115 178.881 81.1148 178.778 81.1836C178.607 81.2868 178.469 81.39 178.297 81.4933C178.229 81.4933 178.16 81.4933 178.091 81.5621C177.988 81.6653 177.851 81.7685 177.747 81.8373C177.266 81.8717 176.923 82.1814 176.614 82.5255H176.51L176.442 82.5599C176.304 82.6631 176.167 82.7663 176.029 82.8696C175.823 82.9728 175.651 83.1104 175.445 83.2137C175.273 83.3169 175.136 83.4201 174.964 83.5233C174.792 83.6265 174.621 83.7298 174.449 83.833C174.277 83.9706 174.105 84.0739 173.968 84.2115H173.899L173.83 84.2459C173.693 84.3491 173.521 84.4523 173.383 84.5556C173.28 84.5556 173.212 84.5556 173.143 84.6244C173.04 84.7276 172.937 84.7964 172.834 84.8996C172.662 85.0029 172.524 85.1061 172.353 85.2437C172.181 85.3469 172.009 85.4502 171.837 85.519C171.665 85.6566 171.494 85.7598 171.356 85.8975H171.253H171.184C171.047 86.0007 170.909 86.1039 170.772 86.2071C170.669 86.2071 170.566 86.276 170.497 86.3448C170.394 86.4136 170.291 86.4824 170.222 86.5856C170.085 86.6889 169.982 86.7921 169.844 86.8953C169.397 86.9985 169.054 87.2394 168.745 87.5835C168.641 87.5835 168.538 87.6523 168.47 87.6867C168.367 87.7555 168.263 87.8587 168.16 87.9275C168.023 88.0308 167.885 88.134 167.714 88.2372C167.611 88.2372 167.542 88.2716 167.439 88.3404C167.336 88.4437 167.233 88.5125 167.13 88.6157C166.958 88.7189 166.82 88.8221 166.648 88.9254C164.793 89.9232 163.109 91.1619 161.425 92.3318C161.322 92.435 161.185 92.5038 161.082 92.607C160.876 92.7446 160.635 92.8823 160.429 93.0199C160.326 93.0887 160.223 93.192 160.12 93.2608C159.982 93.364 159.845 93.4672 159.707 93.5704C159.604 93.5704 159.501 93.6049 159.432 93.6737C159.329 93.7425 159.226 93.8457 159.123 93.9145C158.986 94.0177 158.848 94.121 158.711 94.2242C158.058 94.6715 157.439 95.1188 156.786 95.5661C156.649 95.6693 156.477 95.7725 156.34 95.9102C155.927 96.2199 155.515 96.5295 155.103 96.8392C154.656 96.9768 154.312 97.1833 154.106 97.5962C153.453 97.665 153.11 98.1123 152.766 98.594C152.285 98.594 152.01 98.9381 151.735 99.2822C145.928 103.205 140.499 107.609 135.001 111.944C131.599 114.628 128.231 117.346 124.829 120.03H124.623Z" fill="#FFBABA"/>
<path d="M152.594 98.5941C152.937 98.1124 153.315 97.6651 153.934 97.5963C153.934 98.5253 153.35 98.663 152.594 98.5941Z" fill="#FF5F5C"/>
<path d="M182.181 79.2225C182.559 78.9816 182.937 78.7752 183.349 78.5343C183.349 79.3601 182.73 79.2225 182.181 79.2225Z" fill="#FF5F5C"/>
<path d="M151.563 99.2821C151.838 98.9381 152.113 98.594 152.594 98.594C152.594 99.351 152.079 99.3166 151.563 99.2821Z" fill="#FF5F5C"/>
<path d="M176.476 82.5599C176.785 82.2158 177.128 81.9405 177.61 81.8717C177.61 82.6975 176.991 82.5599 176.476 82.5599Z" fill="#FF5F5C"/>
<path d="M153.934 97.5963C154.14 97.1834 154.518 96.977 154.93 96.8394C154.964 97.5963 154.483 97.6307 153.934 97.5963Z" fill="#FF5F5C"/>
<path d="M168.537 87.549C168.846 87.2049 169.156 86.9641 169.637 86.8608C169.637 87.6522 169.087 87.5834 168.537 87.549Z" fill="#FF5F5C"/>
<path d="M179.843 80.5299C180.221 80.2891 180.599 80.0482 180.977 79.8074C180.977 80.6332 180.393 80.5644 179.843 80.5299Z" fill="#FF5F5C"/>
<path d="M172.146 85.2439C172.146 85.2439 172.456 85.0374 172.628 84.8998C172.456 85.003 172.318 85.1062 172.146 85.2439Z" fill="#FF5F5C"/>
<path d="M171.149 85.8974C171.149 85.8974 171.493 85.6566 171.63 85.5189C171.459 85.6566 171.287 85.7598 171.149 85.8974Z" fill="#FF5F5C"/>
<path d="M170.565 86.2417C170.565 86.2417 170.84 86.0352 170.978 85.932C170.84 86.0352 170.703 86.1385 170.565 86.2417Z" fill="#FF5F5C"/>
<path d="M169.98 86.5856C169.98 86.5856 170.187 86.448 170.255 86.3447C170.152 86.4135 170.049 86.4824 169.98 86.5856Z" fill="#FF5F5C"/>
<path d="M169.604 86.8954C169.604 86.8954 169.845 86.6889 169.982 86.5857C169.845 86.6889 169.742 86.7921 169.604 86.8954Z" fill="#FF5F5C"/>
<path d="M167.955 87.9275C167.955 87.9275 168.161 87.7555 168.264 87.6866C168.161 87.7555 168.058 87.8587 167.955 87.9275Z" fill="#FF5F5C"/>
<path d="M167.542 88.2373C167.542 88.2373 167.817 88.0308 167.989 87.9276C167.851 88.0308 167.714 88.1341 167.542 88.2373Z" fill="#FF5F5C"/>
<path d="M166.958 88.5813C166.958 88.5813 167.164 88.4093 167.267 88.306C167.164 88.4093 167.061 88.4781 166.958 88.5813Z" fill="#FF5F5C"/>
<path d="M166.512 88.891C166.512 88.891 166.821 88.6845 166.993 88.5813C166.821 88.6845 166.684 88.7877 166.512 88.891Z" fill="#FF5F5C"/>
<path d="M160.909 92.6071C160.909 92.6071 161.15 92.435 161.253 92.3318C161.15 92.435 161.012 92.5038 160.909 92.6071Z" fill="#FF5F5C"/>
<path d="M159.948 93.2609C159.948 93.2609 160.154 93.0888 160.258 93.02C160.154 93.0888 160.051 93.1921 159.948 93.2609Z" fill="#FF5F5C"/>
<path d="M178.193 81.562C178.193 81.562 178.503 81.3555 178.674 81.2523C178.503 81.3555 178.365 81.4588 178.193 81.562Z" fill="#FF5F5C"/>
<path d="M159.536 93.6048C159.536 93.6048 159.811 93.3984 159.948 93.2952C159.811 93.3984 159.674 93.5016 159.536 93.6048Z" fill="#FF5F5C"/>
<path d="M178.642 81.2526C178.642 81.2526 178.848 81.0805 178.951 81.0117C178.848 81.0805 178.745 81.1838 178.642 81.2526Z" fill="#FF5F5C"/>
<path d="M158.951 93.9491C158.951 93.9491 159.157 93.7771 159.26 93.7083C159.157 93.7771 159.054 93.8803 158.951 93.9491Z" fill="#FF5F5C"/>
<path d="M158.539 94.2588C158.539 94.2588 158.814 94.0523 158.951 93.9491C158.814 94.0523 158.677 94.1555 158.539 94.2588Z" fill="#FF5F5C"/>
<path d="M156.167 95.9102C156.167 95.9102 156.476 95.7038 156.614 95.5662C156.476 95.6694 156.304 95.7726 156.167 95.9102Z" fill="#FF5F5C"/>
<path d="M177.61 81.9061C177.61 81.9061 177.851 81.6997 177.954 81.6309C177.851 81.7341 177.713 81.8373 177.61 81.9061Z" fill="#FF5F5C"/>
<path d="M181.528 79.5321C181.528 79.5321 181.838 79.3256 181.975 79.2224C181.838 79.3256 181.666 79.4289 181.528 79.5321Z" fill="#FF5F5C"/>
<path d="M183.898 78.2246C183.898 78.2246 184.173 78.0182 184.311 77.9493C184.173 78.0526 184.036 78.1558 183.898 78.2246Z" fill="#FF5F5C"/>
<path d="M184.517 77.8805C184.517 77.8805 184.826 77.674 184.998 77.5708C184.826 77.674 184.688 77.7772 184.517 77.8805Z" fill="#FF5F5C"/>
<path d="M175.892 82.9039C175.892 82.9039 176.166 82.6975 176.304 82.5942C176.166 82.6975 176.029 82.8007 175.892 82.9039Z" fill="#FF5F5C"/>
<path d="M174.826 83.5578C174.826 83.5578 175.135 83.3514 175.307 83.2482C175.135 83.3514 174.998 83.4546 174.826 83.5578Z" fill="#FF5F5C"/>
<path d="M173.796 84.2458C173.796 84.2458 174.14 84.0049 174.277 83.8673C174.105 84.0049 173.933 84.1082 173.796 84.2458Z" fill="#FF5F5C"/>
<path d="M173.211 84.5555C173.211 84.5555 173.52 84.3491 173.658 84.2458C173.52 84.3491 173.348 84.4523 173.211 84.5555Z" fill="#FF5F5C"/>
<path d="M172.627 84.8997C172.627 84.8997 172.833 84.7276 172.936 84.6244C172.833 84.7276 172.73 84.7964 172.627 84.8997Z" fill="#FF5F5C"/>
<path d="M25.0752 198.515C28.3396 199.512 31.7415 199.65 35.109 199.822C42.3595 200.166 49.6443 200.373 56.9291 200.613C73.5262 201.164 90.1232 201.233 106.72 201.302C112.871 201.302 119.056 201.405 125.207 201.474C131.014 201.611 136.822 201.611 142.629 201.474C160.188 201.405 177.782 201.302 195.341 200.923C204.241 200.717 213.141 200.476 222.006 199.822C224.583 199.65 227.229 199.684 229.738 198.859C229.841 198.859 229.978 198.859 230.081 198.893C230.081 199.099 230.081 199.34 230.081 199.547C223.587 200.407 217.092 200.717 210.563 200.992C208.089 201.095 205.581 201.095 203.107 201.233C197.574 201.577 191.973 201.302 186.475 201.68C182.936 201.921 179.362 201.955 175.857 202.059C172.662 202.127 169.397 202.712 166.133 201.99C164.793 201.68 163.281 202.265 161.838 202.196C143.729 201.508 125.585 201.955 107.476 201.99C100.776 201.99 94.0405 201.99 87.3742 201.818C80.1581 201.611 72.9077 201.99 65.7259 201.474C61.9117 201.198 58.1318 201.783 54.3176 201.336C48.3042 200.648 42.2564 200.785 36.2086 200.545C32.5318 200.373 28.7863 200.235 25.2126 199.237C25.2126 198.996 25.2126 198.79 25.1783 198.549L25.0752 198.515Z" fill="#535157"/>
<path d="M223.38 203.538C223.38 203.538 223.517 203.607 223.62 203.607C224.067 204.226 223.998 204.915 223.723 205.568C223.38 205.809 223.07 206.016 222.727 206.256C217.023 207.22 211.353 207.564 205.717 205.878C205.168 205.465 204.927 204.915 204.996 204.226C205.443 203.332 206.405 203.332 207.161 203.022C212.452 202.403 217.744 202.162 223.002 203.263V203.229C223.105 203.332 223.242 203.435 223.345 203.504L223.38 203.538Z" fill="#ADAFB7"/>
<path d="M205.718 205.878C211.353 207.53 217.023 207.22 222.727 206.257C222.659 207.082 221.937 206.945 221.456 207.048C216.576 207.874 211.731 207.908 206.886 206.807C206.405 206.704 205.718 206.704 205.684 205.912L205.718 205.878Z" fill="#535157"/>
<path d="M223.036 203.297C217.779 202.162 212.487 202.403 207.195 203.057C207.436 202.575 207.676 202.334 208.157 202.3C212.831 201.99 217.538 201.818 222.177 202.575C222.658 202.644 223.071 202.712 223.036 203.332V203.297Z" fill="#535157"/>
<path d="M223.724 205.568C223.999 204.88 224.068 204.227 223.621 203.607C224.996 204.295 224.996 204.708 223.724 205.568Z" fill="#535157"/>
<path d="M204.997 204.226C204.928 204.915 205.168 205.465 205.718 205.878C205.031 205.981 204.756 205.637 204.584 205.018C204.447 204.536 204.447 204.261 204.997 204.226Z" fill="#535157"/>
<path d="M24.6621 199.891C24.6621 199.891 24.9026 199.616 25.0401 199.478C24.9026 199.616 24.7996 199.753 24.6621 199.891Z" fill="#535157"/>
<path d="M223.38 203.538C223.38 203.538 223.139 203.332 223.036 203.263C223.139 203.366 223.277 203.469 223.38 203.538Z" fill="#535157"/>
<path d="M193.692 70.1731C193.692 70.1731 193.899 70.2075 193.967 70.2419C194.002 70.4484 194.07 70.6204 194.105 70.8268C193.727 70.758 193.692 70.4828 193.692 70.1731Z" fill="#FF918E"/>
<path d="M194.07 70.7924C194.07 70.7924 194.276 71.0676 194.38 71.2052C194.276 71.0676 194.173 70.93 194.07 70.7924Z" fill="#FF918E"/>
<path d="M193.382 69.7947C193.382 69.7947 193.588 69.7947 193.691 69.8635C193.691 69.9667 193.691 70.0699 193.725 70.1732C193.622 70.0355 193.519 69.8979 193.382 69.7947Z" fill="#FF918E"/>
<path d="M96.1715 146.352C96.4807 146.043 96.79 145.699 97.1336 145.389C97.4429 145.389 97.7178 145.389 97.8552 145.045C97.9583 144.942 98.0614 144.838 98.1989 144.701C98.3019 144.598 98.405 144.494 98.5425 144.357C98.6456 144.253 98.7486 144.15 98.8861 144.013C98.9892 143.909 99.1266 143.772 99.2297 143.669C99.3328 143.565 99.4703 143.428 99.5733 143.324C99.6764 143.221 99.7795 143.118 99.917 142.98C100.329 142.602 101.188 142.568 100.913 141.638C100.948 141.535 100.982 141.432 101.051 141.329C102.425 140.09 103.766 138.851 105.14 137.613C105.312 137.51 105.449 137.406 105.621 137.269C105.724 137.165 105.862 137.028 105.965 136.925C106.068 136.821 106.205 136.684 106.308 136.581C106.411 136.477 106.549 136.34 106.652 136.236C106.755 136.099 106.893 135.961 106.996 135.824C107.305 135.514 107.649 135.204 107.958 134.895C108.267 134.895 108.542 134.895 108.679 134.55C108.782 134.447 108.886 134.344 109.023 134.206C109.126 134.103 109.229 134 109.367 133.862C109.676 133.587 110.363 133.587 110.054 132.899C114.727 128.598 119.332 124.262 124.383 120.374C124.383 143.669 124.383 166.928 124.417 190.223C124.417 191.392 124.074 191.702 122.905 191.771C121.565 191.84 120.26 191.702 118.954 191.702C113.662 191.702 108.404 191.977 103.147 191.908C95.4842 191.805 87.8214 190.945 80.193 191.427C74.5575 191.805 68.9908 191.117 63.3897 191.324C60.8126 191.427 58.201 191.392 55.6582 190.876C56.1736 189.844 56.7234 188.777 57.2732 187.711C59.5412 185.887 61.1562 183.444 63.0805 181.276C69.9186 173.569 76.8254 165.965 84.0415 158.602C84.6944 157.913 85.3473 157.26 86.0346 156.572C87.5809 156.055 88.3712 154.679 89.3677 153.544C89.4708 153.44 89.5739 153.337 89.7113 153.2C89.8144 153.096 89.9175 152.993 90.055 152.855C90.158 152.752 90.2611 152.649 90.3986 152.511C91.3607 151.892 92.1511 151.135 92.7352 150.172C92.8383 150.068 92.9414 149.965 93.0788 149.828C94.1441 149.105 95.0375 148.21 95.7591 147.144C95.8622 147.041 95.9653 146.937 96.1027 146.8C96.4464 146.662 96.4464 146.387 96.4464 146.077L96.1715 146.352Z" fill="#81B5EB"/>
<path d="M60.4683 122.714C58.8876 123.987 59.3687 125.914 59.1969 127.497C58.5096 134.275 58.2003 141.088 57.4787 147.866C57.2726 149.965 57.2382 152.064 57.1351 154.163C56.654 164.726 56.654 175.255 56.7915 185.818C56.7915 186.472 56.7915 187.126 56.7915 187.779C56.0355 184.992 56.2417 170.059 56.3104 166.687C56.4822 159.599 56.7571 152.477 57.2038 145.423C57.6505 138.37 58.4409 131.35 59.0938 124.056C57.1007 125.88 55.2452 127.531 53.4583 129.217C50.7437 131.832 48.1665 134.619 45.2801 137.062C44.9708 137.337 44.6959 137.854 44.1805 137.544C43.665 137.234 43.7338 136.684 43.9056 136.202C45.0052 132.624 44.799 128.839 45.4863 125.226C46.1735 121.407 46.5859 117.518 47.5824 113.768C48.1665 111.566 48.0634 109.329 48.5789 107.093C49.163 104.581 49.8159 102.069 50.1939 99.5231C50.6063 96.8393 50.8468 94.1211 51.8089 91.5749C52.7024 89.2007 52.7367 86.5857 53.7332 84.2804C55.0734 81.1837 55.6919 77.8461 57.3413 74.887C57.6162 74.3709 58.0629 73.8548 57.6849 73.1666L57.7536 73.0978C58.7158 72.9602 58.922 72.3408 58.7501 71.5151C59.2999 71.5495 59.5748 71.4118 59.2656 70.7925C60.5713 70.4828 60.8806 69.2441 61.4991 68.2807C62.0146 67.9366 62.53 67.5925 62.4613 66.8356C62.53 66.6979 62.6331 66.5947 62.7018 66.4571C62.8393 66.3883 62.9767 66.285 63.0798 66.2162C64.145 66.1474 64.7979 65.5625 65.1415 64.5991C66.413 64.0485 67.6156 63.3948 68.4747 62.2593C70.6052 62.1905 72.1858 60.711 74.1445 60.0916C76.3093 59.4035 78.4742 58.6465 80.6046 57.9239C82.4946 57.2702 84.4189 56.8917 86.3088 56.3756C86.6868 56.2723 87.0648 56.3067 87.4771 56.2723C86.137 57.2014 86.1713 59.2314 85.0717 60.0228C83.2162 61.3647 82.1509 63.9797 79.3676 63.9797C78.9209 63.9797 78.6803 64.427 78.6116 64.7711C78.4398 66.0442 77.5807 66.3883 76.2062 66.3883C77.0309 66.8012 77.7869 66.3539 78.1649 67.0076C77.4433 67.0076 76.7217 66.9388 76.0001 67.0076C72.6325 67.2141 69.643 70.2764 69.9179 73.1322C68.6465 73.5451 68.1998 74.7838 67.8905 75.7816C65.7257 82.0095 64.5918 88.5126 63.4922 94.9813C62.7705 99.2134 62.1177 103.48 61.7053 107.781C61.2242 112.392 60.4339 116.968 59.8154 121.544C59.7467 122.095 59.6779 122.714 60.5026 122.817L60.4683 122.714Z" fill="#5B9EF1"/>
<path d="M47.8232 190.945H53.7336C53.7336 190.945 53.7336 191.048 53.7336 191.117H47.8576C47.8576 191.117 47.8576 191.014 47.8576 190.945H47.8232Z" fill="#81B5EB"/>
<path d="M229.739 198.859C227.23 199.685 224.584 199.65 222.007 199.822C213.142 200.442 204.242 200.717 195.342 200.923C177.783 201.336 160.189 201.405 142.63 201.474C142.905 200.476 143.729 200.923 144.314 200.923C155.31 200.889 166.34 201.027 177.336 200.82C183.659 200.717 190.016 200.717 196.338 200.51C202.661 200.27 208.984 200.166 215.306 199.857C219.705 199.616 224.138 199.444 228.536 198.652C228.948 198.584 229.429 198.412 229.773 198.859H229.739Z" fill="#B8B9BC"/>
<path d="M24.7305 198.136C24.7305 198.136 24.971 198.412 25.0741 198.549C24.971 198.412 24.8336 198.274 24.7305 198.136Z" fill="#535157"/>
<path d="M58.7162 71.4807C58.8537 72.3065 58.6475 72.9258 57.7197 73.0635C57.8915 72.685 58.0633 72.3065 58.2008 71.928C58.3726 71.756 58.5444 71.6183 58.7162 71.4463V71.4807Z" fill="#72A8DB"/>
<path d="M59.2322 70.7581C59.5415 71.343 59.2322 71.515 58.7168 71.4806C58.8199 71.1709 58.8886 70.8613 59.2322 70.7581Z" fill="#72A8DB"/>
<path d="M182.763 71.5494C181.011 73.6827 178.571 73.4419 176.303 73.0978C172.798 72.5817 169.431 71.4462 166.407 69.5538C164.861 68.5903 163.108 67.5925 163.452 65.3904C163.692 63.8076 165.788 62.8098 168.331 62.7754C170.634 62.8442 172.798 63.5324 174.963 64.1517C175.719 64.5302 176.51 64.8743 177.265 65.2528C177.369 65.5624 177.678 65.528 177.918 65.5968C178.159 65.9753 178.571 66.113 178.949 66.285C179.843 67.042 180.736 67.799 181.63 68.5903C181.733 68.6936 181.836 68.8312 181.939 68.9344C182.317 69.7946 183.107 70.5172 182.729 71.5838L182.763 71.5494Z" fill="white"/>
<path d="M174.998 64.1518C172.799 63.5324 170.634 62.8443 168.366 62.7755C163.83 61.0895 159.054 60.4357 154.346 59.5411C153.35 59.3347 152.56 60.0228 151.632 60.1605C152.766 58.5777 154.484 59.025 155.858 59.2659C159.913 60.0228 163.968 60.8486 167.988 61.9153C169.844 62.397 171.803 62.569 173.624 63.1884C174.139 63.3604 174.93 63.2572 175.033 64.1174L174.998 64.1518Z" fill="#FF5F5C"/>
<path d="M142.629 64.1862C140.911 65.5281 138.884 66.285 136.96 67.2141C136.96 67.0764 136.856 66.8356 136.891 66.8356C138.781 65.8721 140.499 64.599 142.629 64.2206V64.1862Z" fill="#FF5F5C"/>
<path d="M149.364 61.1925C148.436 61.6398 147.543 62.0527 146.615 62.5C147.165 61.3302 148.23 61.1581 149.364 61.1925Z" fill="#FF5F5C"/>
<path d="M128.677 71.5839C128.162 72.0312 127.578 72.3753 126.891 72.5818C127.062 71.5151 127.853 71.5495 128.677 71.5839Z" fill="#FF5F5C"/>
<path d="M131.599 69.8977C131.186 70.4826 130.534 70.6891 129.915 70.9299C130.052 69.8977 130.843 69.9321 131.599 69.8977Z" fill="#FF5F5C"/>
<path d="M185.959 75.7128C185.444 75.2311 185.1 74.6117 184.963 73.8892C186.062 74.0612 185.994 74.887 185.959 75.7128Z" fill="#FF5F5C"/>
<path d="M178.984 66.2506C178.572 66.113 178.194 65.9754 177.953 65.5625C178.503 65.4937 178.984 65.4937 178.984 66.2506Z" fill="#FF5F5C"/>
<path d="M184.311 72.7193C184.002 72.3752 183.693 72.0656 183.624 71.5839C184.449 71.5839 184.311 72.2032 184.311 72.7193Z" fill="#FF5F5C"/>
<path d="M144.312 63.5669C144.14 63.8078 143.9 63.8422 143.625 63.8078C143.694 63.2917 143.866 63.0508 144.312 63.5669Z" fill="#FF5F5C"/>
<path d="M177.954 65.5968C177.713 65.528 177.404 65.5624 177.301 65.2527C177.885 64.6678 177.919 65.1495 177.954 65.5968Z" fill="#FF5F5C"/>
<path d="M133.762 68.5561C133.693 69.0378 133.35 69.1754 132.938 69.2442C132.938 68.6593 133.281 68.5217 133.762 68.5561Z" fill="#FF5F5C"/>
<path d="M181.973 68.8999C181.973 68.8999 181.767 68.659 181.664 68.5558C181.802 68.659 182.317 68.3493 181.973 68.8999Z" fill="#FF5F5C"/>
<path d="M183.623 71.584C183.623 71.584 183.416 71.5496 183.348 71.4464C183.416 71.3432 183.485 71.2055 183.554 71.1023C183.554 71.2399 183.588 71.412 183.623 71.5496V71.584Z" fill="#FF5F5C"/>
<path d="M150.704 60.5389C150.704 60.5389 150.429 60.711 150.292 60.8142C150.429 60.711 150.567 60.6422 150.704 60.5389Z" fill="#FF5F5C"/>
<path d="M146.41 62.5345C146.41 62.5345 146.1 62.7066 145.963 62.8098C146.1 62.7066 146.272 62.6378 146.41 62.5345Z" fill="#FF5F5C"/>
<path d="M145.722 62.8788C145.722 62.8788 145.447 63.0508 145.31 63.154C145.447 63.0508 145.584 62.982 145.722 62.8788Z" fill="#FF5F5C"/>
<path d="M184.998 73.9235C184.998 73.9235 184.792 73.6827 184.688 73.5795C184.792 73.6827 184.895 73.8203 184.998 73.9235Z" fill="#FF5F5C"/>
<path d="M184.654 73.373C184.654 73.373 184.448 73.0633 184.345 72.8912C184.448 73.0633 184.551 73.2009 184.654 73.373Z" fill="#FF5F5C"/>
<path d="M126.927 72.5472C126.927 72.5472 126.686 72.7193 126.583 72.8225C126.686 72.7193 126.824 72.6505 126.927 72.5472Z" fill="#FF5F5C"/>
<path d="M143.282 63.8765C143.282 63.8765 143.076 64.0485 142.938 64.1517C143.042 64.0485 143.145 63.9797 143.282 63.8765Z" fill="#FF5F5C"/>
<path d="M151.425 60.1947C151.425 60.1947 151.116 60.3667 150.979 60.47C151.116 60.3667 151.288 60.2979 151.425 60.1947Z" fill="#FF5F5C"/>
<path d="M132.354 69.5537C132.354 69.5537 132.079 69.7257 131.907 69.7946C132.045 69.7257 132.182 69.6225 132.354 69.5537Z" fill="#FF5F5C"/>
<path d="M132.939 69.2097C132.939 69.2097 132.699 69.4162 132.596 69.485C132.699 69.3818 132.836 69.2785 132.939 69.2097Z" fill="#FF5F5C"/>
<path d="M129.297 71.2399C129.297 71.2399 129.056 71.4119 128.919 71.5151C129.056 71.4119 129.159 71.3431 129.297 71.2399Z" fill="#FF5F5C"/>
<path d="M60.4695 122.714C59.6448 122.611 59.7135 121.991 59.7823 121.441C60.4008 116.865 61.1911 112.288 61.6722 107.678C62.1189 103.377 62.7374 99.1446 63.459 94.878C64.593 88.4093 65.727 81.9062 67.8574 75.6784C68.201 74.7149 68.6134 73.4419 69.8848 73.029L69.7817 73.1322C69.8848 73.4763 70.1597 73.5107 70.4346 73.5107C70.469 73.7171 70.5721 73.8203 70.7439 73.5795C73.4585 74.4741 75.8639 73.6827 78.1318 72.2376C80.8808 70.4828 80.8464 68.5215 78.1318 66.9043C77.7194 66.2506 76.9978 66.6979 76.1731 66.285C77.582 66.285 78.441 65.9409 78.5785 64.6678C78.6129 64.3238 78.8534 63.8765 79.3345 63.8765C82.1178 63.8765 83.1831 61.2614 85.0386 59.9195C86.1382 59.1282 86.1039 57.1325 87.444 56.1691C89.9524 55.825 92.4953 55.5497 95.0037 55.1024C98.3369 54.4831 101.704 54.4143 105.072 54.2078C108.886 53.967 112.7 53.8637 116.549 53.7605C118.714 53.6917 120.844 53.5541 123.009 53.5197C123.456 53.5197 123.902 53.3476 123.937 54.2078C124.212 60.0572 124.143 65.9409 124.212 71.7903C124.212 73.1322 123.353 73.8892 122.906 74.9558H122.872C122.047 74.8182 121.531 75.1967 121.257 75.9192H121.222C120.81 75.9536 120.26 75.816 120.294 76.5386C110.57 82.6976 101.223 89.3727 92.0829 96.3575C82.0835 104.031 72.3589 112.116 62.9436 120.512C62.7718 120.65 62.5656 120.753 62.3938 120.89C62.2564 120.684 62.1533 120.753 62.0845 120.959C61.9815 121.062 61.844 121.2 61.7409 121.303C61.6378 121.407 61.5004 121.544 61.3973 121.647C61.2942 121.751 61.1568 121.888 61.0537 121.991C60.9506 122.095 60.8131 122.232 60.71 122.336C60.607 122.439 60.4695 122.576 60.3664 122.68L60.4695 122.714ZM86.5162 69.0721C88.7498 69.8978 91.0177 69.7602 93.2856 69.1409C93.5261 69.0376 93.7667 68.9344 94.0416 68.8656C96.8249 68.2807 99.5739 67.6957 101.979 66.113C103.01 65.4592 104.075 64.5646 103.8 63.1539C103.56 61.7087 102.289 61.1582 101.017 60.9174C95.7253 59.9539 90.7771 61.0894 86.1039 63.4636C84.7981 64.1173 83.458 65.0463 83.6298 66.6979C83.8016 68.2118 85.3135 68.5903 86.5506 69.0721H86.5162Z" fill="#81B5EB"/>
<path d="M124.898 73.8202C124.898 73.8202 124.726 73.8546 124.657 73.889C124.657 67.9709 124.657 62.0871 124.623 56.1689C125.07 56.7195 124.864 57.3388 124.864 57.9238C124.864 63.2226 124.864 68.487 124.864 73.7858L124.898 73.8202Z" fill="#FF918E"/>
<path d="M124.623 53.21C125.035 54.0702 125.035 54.9304 124.623 55.825C124.623 54.9648 124.623 54.1046 124.623 53.21Z" fill="#FF918E"/>
<path d="M89.1603 153.75C88.1638 154.885 87.4078 156.262 85.8271 156.778C85.9302 156.606 86.0677 156.399 86.1708 156.227C86.2739 156.09 86.4113 155.918 86.5144 155.78C86.6518 155.677 86.7893 155.539 86.9267 155.436C87.0298 155.333 87.0986 155.264 87.2016 155.161C87.3047 155.023 87.4422 154.885 87.5453 154.748C87.6484 154.61 87.7858 154.507 87.8889 154.369C87.992 154.266 88.1294 154.128 88.2325 154.025C88.37 153.922 88.5074 153.784 88.6105 153.681C88.8167 153.681 88.9885 153.681 89.1947 153.681L89.1603 153.75Z" fill="#5B9EF1"/>
<path d="M95.483 147.384C94.7614 148.451 93.868 149.346 92.8027 150.068C92.8027 149.862 92.8027 149.69 92.8027 149.483C92.9058 149.346 93.0433 149.208 93.1464 149.07C93.2838 148.933 93.3869 148.83 93.49 148.692C93.6274 148.554 93.7305 148.451 93.8336 148.313C93.9711 148.176 94.0741 148.073 94.1772 147.935C94.2803 147.797 94.4178 147.694 94.5209 147.556C94.6583 147.453 94.7958 147.316 94.9332 147.212H95.5174L95.483 147.384Z" fill="#5B9EF1"/>
<path d="M92.4929 150.413C91.8744 151.376 91.1184 152.167 90.1562 152.752C90.1562 152.546 90.1562 152.374 90.1562 152.167C90.2593 152.03 90.3968 151.892 90.4999 151.789C90.6373 151.651 90.7404 151.548 90.8779 151.41C91.0153 151.273 91.1184 151.17 91.2215 151.032C91.3589 150.894 91.462 150.791 91.5995 150.688C91.7369 150.585 91.8744 150.447 91.9775 150.344C92.1836 150.344 92.3554 150.344 92.5616 150.344L92.4929 150.413Z" fill="#5B9EF1"/>
<path d="M121.29 75.9192C121.599 75.1622 122.08 74.7838 122.905 74.9558C122.493 75.4719 121.909 75.7472 121.29 75.9192Z" fill="#72A8DB"/>
<path d="M100.809 141.707C101.084 142.602 100.225 142.671 99.8125 143.049C99.8125 142.843 99.8125 142.671 99.8125 142.464C99.9156 142.327 100.053 142.189 100.156 142.051C100.259 141.948 100.397 141.81 100.5 141.707C100.603 141.707 100.706 141.707 100.809 141.673V141.707Z" fill="#5B9EF1"/>
<path d="M120.293 76.6074C120.293 75.8848 120.808 76.0224 121.221 75.988C121.015 76.3321 120.671 76.5386 120.293 76.6074Z" fill="#72A8DB"/>
<path d="M109.882 133.036C110.191 133.759 109.504 133.759 109.195 134C109.126 133.449 109.573 133.277 109.882 133.036Z" fill="#5B9EF1"/>
<path d="M97.8202 145.045C97.6828 145.389 97.4079 145.423 97.0986 145.389C97.2704 145.148 97.4766 144.942 97.8202 145.045Z" fill="#5B9EF1"/>
<path d="M96.1719 146.352C96.1719 146.662 96.1718 146.937 95.8282 147.075C95.6908 146.731 95.9313 146.559 96.1719 146.352Z" fill="#5B9EF1"/>
<path d="M108.507 134.688C108.369 135.032 108.094 135.067 107.785 135.032C107.957 134.791 108.163 134.585 108.507 134.688Z" fill="#5B9EF1"/>
<path d="M62.1514 121.028C62.2201 120.822 62.2888 120.753 62.4606 120.959L62.3232 121.028H62.1514Z" fill="#5B9EF1"/>
<path d="M61.8096 121.372C61.8096 121.372 62.0501 121.131 62.1532 121.028C62.1532 121.235 62.0157 121.338 61.8096 121.372Z" fill="#5B9EF1"/>
<path d="M61.4648 121.716C61.4648 121.716 61.7054 121.475 61.8085 121.372C61.7054 121.475 61.5679 121.613 61.4648 121.716Z" fill="#5B9EF1"/>
<path d="M61.1211 122.026C61.1211 122.026 61.3616 121.785 61.4647 121.682C61.3616 121.785 61.2242 121.923 61.1211 122.026Z" fill="#5B9EF1"/>
<path d="M60.8125 122.37C60.8125 122.37 61.053 122.129 61.1561 122.026C61.053 122.129 60.9156 122.267 60.8125 122.37Z" fill="#5B9EF1"/>
<path d="M60.4678 122.714C60.4678 122.714 60.7083 122.473 60.8114 122.37C60.7083 122.473 60.5709 122.611 60.4678 122.714Z" fill="#5B9EF1"/>
<path d="M109.195 134.034C109.195 134.034 108.989 134.241 108.851 134.378C108.817 134.103 108.92 134 109.195 134.034Z" fill="#5B9EF1"/>
<path d="M108.85 134.378C108.85 134.378 108.644 134.585 108.506 134.722C108.472 134.447 108.575 134.344 108.85 134.378Z" fill="#5B9EF1"/>
<path d="M106.857 135.961C106.857 135.961 106.617 136.236 106.514 136.374C106.617 136.236 106.754 136.099 106.857 135.961Z" fill="#5B9EF1"/>
<path d="M106.514 136.374C106.514 136.374 106.273 136.615 106.17 136.718C106.273 136.615 106.41 136.477 106.514 136.374Z" fill="#5B9EF1"/>
<path d="M106.171 136.684C106.171 136.684 105.93 136.925 105.827 137.028C105.93 136.925 106.068 136.787 106.171 136.684Z" fill="#5B9EF1"/>
<path d="M105.861 137.028C105.861 137.028 105.621 137.269 105.518 137.372C105.621 137.269 105.758 137.131 105.861 137.028Z" fill="#5B9EF1"/>
<path d="M105.518 137.372C105.518 137.372 105.209 137.578 105.037 137.716C105.209 137.613 105.346 137.509 105.518 137.372Z" fill="#5B9EF1"/>
<path d="M100.81 141.707C100.81 141.707 100.604 141.742 100.501 141.742C100.638 141.638 100.776 141.501 100.913 141.397C100.879 141.501 100.845 141.604 100.776 141.707H100.81Z" fill="white"/>
<path d="M100.534 141.742C100.534 141.742 100.294 141.983 100.19 142.086C100.294 141.983 100.431 141.845 100.534 141.742Z" fill="white"/>
<path d="M100.226 142.086C100.226 142.086 99.9859 142.361 99.8828 142.499C99.9859 142.361 100.123 142.223 100.226 142.086Z" fill="white"/>
<path d="M99.8471 143.049C99.8471 143.049 99.6409 143.255 99.5034 143.393C99.4691 143.118 99.5722 143.015 99.8471 143.049Z" fill="#5B9EF1"/>
<path d="M99.5038 143.393C99.5038 143.393 99.2632 143.634 99.1602 143.737C99.1602 143.496 99.2289 143.359 99.5038 143.393Z" fill="#5B9EF1"/>
<path d="M99.161 143.703C99.161 143.703 98.9205 143.944 98.8174 144.047C98.8174 143.806 98.8861 143.668 99.161 143.703Z" fill="#5B9EF1"/>
<path d="M98.8158 144.047C98.8158 144.047 98.6096 144.253 98.4722 144.391C98.4378 144.116 98.5409 144.013 98.8158 144.047Z" fill="#5B9EF1"/>
<path d="M98.5082 144.391C98.5082 144.391 98.302 144.597 98.1646 144.735C98.1302 144.46 98.2333 144.356 98.5082 144.391Z" fill="#5B9EF1"/>
<path d="M98.1649 144.735C98.1649 144.735 97.9587 144.942 97.8213 145.079C97.8213 144.838 97.89 144.701 98.1649 144.735Z" fill="#5B9EF1"/>
<path d="M95.8275 147.075C95.8275 147.075 95.6214 147.281 95.4839 147.419C95.4496 147.144 95.5526 147.04 95.8275 147.075Z" fill="#5B9EF1"/>
<path d="M94.9006 147.419C94.9006 147.419 94.6257 147.66 94.4883 147.763C94.6257 147.66 94.7632 147.522 94.9006 147.419Z" fill="white"/>
<path d="M94.5214 147.763C94.5214 147.763 94.2808 148.004 94.1777 148.141C94.2808 148.004 94.4183 147.901 94.5214 147.763Z" fill="white"/>
<path d="M94.2128 148.073C94.2128 148.073 93.9722 148.314 93.8691 148.451C93.9722 148.314 94.1097 148.21 94.2128 148.073Z" fill="white"/>
<path d="M93.869 148.417C93.869 148.417 93.6285 148.658 93.5254 148.795C93.6285 148.692 93.7659 148.554 93.869 148.417Z" fill="white"/>
<path d="M93.5243 148.761C93.5243 148.761 93.2838 149.002 93.1807 149.139C93.2838 149.002 93.4212 148.898 93.5243 148.761Z" fill="white"/>
<path d="M93.2167 149.105C93.2167 149.105 92.9761 149.38 92.873 149.518C92.9761 149.38 93.1136 149.242 93.2167 149.105Z" fill="white"/>
<path d="M92.8373 150.068C92.8373 150.068 92.6311 150.275 92.4937 150.412C92.4593 150.137 92.5624 150.034 92.8373 150.068Z" fill="#5B9EF1"/>
<path d="M91.9102 150.447C91.9102 150.447 91.6353 150.688 91.5322 150.791C91.6697 150.688 91.8071 150.55 91.9102 150.447Z" fill="white"/>
<path d="M91.5313 150.756C91.5313 150.756 91.2908 150.997 91.1533 151.101C91.2564 150.997 91.3939 150.86 91.5313 150.756Z" fill="white"/>
<path d="M91.1884 151.1C91.1884 151.1 90.9478 151.341 90.8447 151.479C90.9478 151.341 91.0853 151.238 91.1884 151.1Z" fill="white"/>
<path d="M90.879 151.445C90.879 151.445 90.6384 151.686 90.501 151.823C90.6041 151.72 90.7415 151.582 90.879 151.445Z" fill="white"/>
<path d="M90.536 151.754C90.536 151.754 90.2955 152.029 90.1924 152.133C90.2955 151.995 90.4329 151.857 90.536 151.754Z" fill="white"/>
<path d="M90.1566 152.752C90.1566 152.752 89.9505 152.959 89.813 153.096C89.7787 152.821 89.8817 152.718 90.1566 152.752Z" fill="#5B9EF1"/>
<path d="M89.8148 153.096C89.8148 153.096 89.6087 153.303 89.4712 153.44C89.4369 153.165 89.5399 153.062 89.8148 153.096Z" fill="#5B9EF1"/>
<path d="M89.4701 153.406C89.4701 153.406 89.2639 153.612 89.1265 153.75C89.0921 153.475 89.1952 153.372 89.4701 153.406Z" fill="#5B9EF1"/>
<path d="M88.543 153.784C88.543 153.784 88.2681 154.025 88.165 154.128C88.3025 154.025 88.4399 153.888 88.543 153.784Z" fill="white"/>
<path d="M88.1981 154.094C88.1981 154.094 87.9576 154.335 87.8545 154.438C87.9576 154.335 88.095 154.197 88.1981 154.094Z" fill="white"/>
<path d="M87.8563 154.438C87.8563 154.438 87.6158 154.679 87.5127 154.817C87.6158 154.679 87.7532 154.576 87.8563 154.438Z" fill="white"/>
<path d="M87.5116 154.782C87.5116 154.782 87.2711 155.057 87.168 155.195C87.2711 155.057 87.4085 154.92 87.5116 154.782Z" fill="white"/>
<path d="M86.928 155.436C86.928 155.436 86.6531 155.677 86.5156 155.78C86.6531 155.677 86.7905 155.539 86.928 155.436Z" fill="white"/>
<path d="M86.5145 155.78C86.5145 155.78 86.274 156.09 86.1709 156.227C86.274 156.09 86.4114 155.918 86.5145 155.78Z" fill="white"/>
<path d="M78.1655 66.9044C80.8801 68.556 80.9145 70.5173 78.1655 72.2377C75.8976 73.6828 73.4922 74.4398 70.7776 73.5796C70.6745 73.5108 70.5714 73.5108 70.4683 73.4764C70.3309 73.2355 70.1591 72.9946 69.8154 73.0979L69.9185 72.9946C69.6436 70.1044 72.6331 67.0765 76.0007 66.87C76.7223 66.8356 77.4439 66.87 78.1655 66.87V66.9044Z" fill="white"/>
<path d="M86.5145 69.072C85.2775 68.5903 83.7655 68.2118 83.5937 66.6978C83.4219 65.0463 84.7964 64.1173 86.0678 63.4635C90.7755 61.0549 95.7236 59.9539 100.981 60.9173C102.287 61.1582 103.524 61.7087 103.764 63.1538C104.005 64.5646 102.94 65.4248 101.943 66.1129C99.5379 67.6957 96.7545 68.315 94.0055 68.8655C93.7306 68.9344 93.4901 69.0376 93.2495 69.1408C90.9816 69.2096 88.7481 69.3129 86.4802 69.072H86.5145Z" fill="white"/>
<path d="M86.5156 69.0721C88.7835 69.313 91.0171 69.1754 93.285 69.141C91.0171 69.7947 88.7835 69.8979 86.5156 69.0721Z" fill="#5B9EF1"/>
<path d="M69.8496 73.1665C70.1932 73.0633 70.365 73.3041 70.5025 73.545C70.1932 73.545 69.9183 73.545 69.8496 73.1665Z" fill="#5B9EF1"/>
<path d="M70.502 73.5106C70.502 73.5106 70.7081 73.545 70.8112 73.6138C70.6394 73.8547 70.5363 73.7515 70.502 73.5106Z" fill="#5B9EF1"/>
</g>
</g>
<defs>
<filter id="filter0_f_51_11100" x="0" y="0" width="255.052" height="236" filterUnits="userSpaceOnUse" color-interpolation-filters="sRGB">
<feFlood flood-opacity="0" result="BackgroundImageFix"/>
<feBlend mode="normal" in="SourceGraphic" in2="BackgroundImageFix" result="shape"/>
<feGaussianBlur stdDeviation="3.5" result="effect1_foregroundBlur_51_11100"/>
</filter>
<clipPath id="clip0_51_11100">
<rect width="241.052" height="222" fill="white" transform="translate(7 7)"/>
</clipPath>
</defs>
</svg>
