<svg width="129" height="86" viewBox="0 0 129 86" fill="none" xmlns="http://www.w3.org/2000/svg">
<rect x="0.0410156" y="43.1109" width="120" height="45.8333" transform="rotate(-21 0.0410156 43.1109)" fill="#D7CCBB"/>
<path d="M20.9883 75.3478L29.1001 42.4237L33.0924 43.4074L24.9806 76.3315L20.9883 75.3478Z" fill="#1F1F1D"/>
<path d="M32.9737 35.307L33.1084 43.5065L29.0453 42.5054L32.9737 35.307Z" fill="#1F1F1D"/>
<ellipse cx="23.9526" cy="70.7697" rx="4.72471" ry="2.02116" transform="rotate(13.8409 23.9526 70.7697)" fill="#1F1F1D"/>
<rect x="26.2764" y="53.3682" width="4.60851" height="10.2613" transform="rotate(13.3598 26.2764 53.3682)" fill="#D7CCBB"/>
<rect x="12.9658" y="54.2344" width="26.1411" height="1.24379" transform="rotate(13.7629 12.9658 54.2344)" fill="#1F1F1D"/>
<path d="M22.8528 57.2917C21.4307 58.2544 20.6098 57.7736 19.8649 56.6733C19.1201 55.5731 18.8559 54.4512 20.278 53.4884C21.7001 52.5257 23.4111 52.4238 25.0147 53.1869C25.1534 54.4136 24.2749 56.3289 22.8528 57.2917Z" fill="#1F1F1D"/>
<path d="M28.9973 59.3804C27.5753 60.3432 26.7543 59.8623 26.0095 58.7621C25.2646 57.6618 25.0005 56.5399 26.4225 55.5772C27.8446 54.6144 29.5556 54.5125 31.1593 55.2757C31.298 56.5023 30.4194 58.4177 28.9973 59.3804Z" fill="#1F1F1D"/>
<path d="M35.2268 59.97C33.8048 60.9328 32.9838 60.4519 32.239 59.3517C31.4941 58.2514 31.23 57.1295 32.652 56.1668C34.0741 55.204 35.7851 55.1021 37.3887 55.8653C37.5275 57.0919 36.6489 59.0073 35.2268 59.97Z" fill="#1F1F1D"/>
<path d="M40.9231 61.7662C39.501 62.7289 38.6801 62.2481 37.9353 61.1478C37.1904 60.0476 36.9262 58.9257 38.3483 57.9629C39.7704 57.0002 41.4814 56.8983 43.085 57.6614C43.2238 58.8881 42.3452 60.8034 40.9231 61.7662Z" fill="#1F1F1D"/>
<path d="M37.1923 64.0205C36.1858 62.6291 36.6409 61.7936 37.7175 61.0149C38.794 60.2362 39.9072 59.9373 40.9136 61.3288C41.9201 62.7202 42.0752 64.4272 41.3622 66.0538C40.1405 66.2306 38.1987 65.412 37.1923 64.0205Z" fill="#1F1F1D"/>
<path d="M30.9252 62.2171C30.2355 60.6444 30.8569 59.924 32.0738 59.3904C33.2906 58.8569 34.4418 58.8 35.1314 60.3728C35.821 61.9455 35.6118 63.6468 34.5711 65.0859C33.3396 65.0004 31.6148 63.7899 30.9252 62.2171Z" fill="#1F1F1D"/>
<path d="M25.0511 60.8235C24.3615 59.2507 24.9829 58.5303 26.1998 57.9967C27.4166 57.4632 28.5678 57.4063 29.2574 58.9791C29.947 60.5519 29.7377 62.2531 28.6971 63.6922C27.4656 63.6068 25.7408 62.3962 25.0511 60.8235Z" fill="#1F1F1D"/>
<path d="M18.9515 58.8495C18.2619 57.2767 18.8833 56.5563 20.1001 56.0227C21.317 55.4892 22.4682 55.4323 23.1578 57.0051C23.8474 58.5779 23.6381 60.2791 22.5975 61.7182C21.366 61.6328 19.6412 60.4222 18.9515 58.8495Z" fill="#1F1F1D"/>
<path d="M43.8004 64.4122C42.1345 63.9951 41.945 63.0628 42.2677 61.7739C42.5904 60.485 43.25 59.5398 44.9159 59.9568C46.5817 60.3739 47.7991 61.5805 48.3005 63.2842C47.4793 64.2059 45.4663 64.8292 43.8004 64.4122Z" fill="#1F1F1D"/>
</svg>
